/* XPM */
static char *char_jpg[] = {
/* columns rows colors chars-per-pixel */
"63 59 239 2 ",
"   c #0C0A1B",
".  c #1A0B16",
"X  c #1B0D1C",
"o  c #140A1A",
"O  c #1C121C",
"+  c #191218",
"@  c #12080E",
"#  c #200E1D",
"$  c #24131D",
"%  c #29151C",
"&  c #341C1C",
"*  c #080C25",
"=  c #140D23",
"-  c #1A0D24",
";  c #110E29",
":  c #0C1227",
">  c #141325",
",  c #1B1324",
"<  c #15142A",
"1  c #1B152B",
"2  c #151A2B",
"3  c #1B192C",
"4  c #171926",
"5  c #191B33",
"6  c #0D1834",
"7  c #231524",
"8  c #2C1A25",
"9  c #24162A",
"0  c #231B2C",
"q  c #2B1C2B",
"w  c #291725",
"e  c #331A26",
"r  c #341D2B",
"t  c #3A1E2B",
"y  c #351724",
"u  c #241E34",
"i  c #2B1C33",
"p  c #351F32",
"a  c #210E27",
"s  c #1D223B",
"d  c #2D232E",
"f  c #34222D",
"g  c #3A222E",
"h  c #3C272C",
"j  c #242335",
"k  c #2C2334",
"l  c #23243C",
"z  c #2C2639",
"x  c #342432",
"c  c #3D2533",
"v  c #352A34",
"b  c #3D2934",
"n  c #342639",
"m  c #3B2539",
"M  c #362A3A",
"N  c #3C2A3A",
"B  c #3E323C",
"V  c #393138",
"C  c #42262D",
"Z  c #43282E",
"A  c #422734",
"S  c #422835",
"D  c #492B36",
"F  c #422639",
"G  c #432B3A",
"H  c #4A2D3A",
"J  c #45313C",
"K  c #4B323D",
"L  c #4A3A3A",
"P  c #55353B",
"I  c #562630",
"U  c #69363B",
"Y  c #52433E",
"T  c #192F49",
"R  c #2B2B43",
"E  c #262A49",
"W  c #3C2B42",
"Q  c #352C43",
"!  c #2C324D",
"~  c #263149",
"^  c #3D3342",
"/  c #31334C",
"(  c #3A364B",
")  c #383748",
"_  c #2D3353",
"`  c #323654",
"'  c #353A56",
"]  c #3B3B54",
"[  c #353C5B",
"{  c #3A3D5D",
"}  c #3A3756",
"|  c #292F51",
" . c #393E61",
".. c #343C60",
"X. c #432C41",
"o. c #492D43",
"O. c #443243",
"+. c #4B3542",
"@. c #493B49",
"#. c #563945",
"$. c #423C54",
"%. c #553E50",
"&. c #6A3B45",
"*. c #643D4A",
"=. c #723C48",
"-. c #3C415E",
";. c #36405D",
":. c #3C4262",
">. c #366F78",
",. c #4B4146",
"<. c #564447",
"1. c #4A4457",
"2. c #594856",
"3. c #5C5258",
"4. c #6A464A",
"5. c #794749",
"6. c #664A55",
"7. c #7A4C54",
"8. c #695658",
"9. c #795659",
"0. c #73524D",
"q. c #7E615B",
"w. c #424763",
"e. c #585467",
"r. c #544C63",
"t. c #655867",
"y. c #795864",
"u. c #695D71",
"i. c #526679",
"p. c #78656A",
"a. c #6A6373",
"s. c #796875",
"d. c #7D747B",
"f. c #72696D",
"g. c #86474C",
"h. c #844D56",
"j. c #875458",
"k. c #985857",
"l. c #914E56",
"z. c #94645A",
"x. c #8D625C",
"c. c #915E63",
"v. c #876567",
"b. c #966463",
"n. c #836A76",
"m. c #877476",
"M. c #9E797A",
"N. c #9E786D",
"B. c #AA6967",
"V. c #B66B67",
"C. c #A37568",
"Z. c #B67569",
"A. c #A57875",
"S. c #B67B77",
"D. c #A96B70",
"F. c #AA735F",
"G. c #C27668",
"H. c #CA7C74",
"J. c #AC887A",
"K. c #B7877A",
"L. c #BE917E",
"P. c #99827A",
"I. c #C58479",
"U. c #D3957D",
"Y. c #366E85",
"T. c #567387",
"R. c #797886",
"E. c #64768A",
"W. c #8C7987",
"Q. c #AA7C85",
"!. c #6A8396",
"~. c #5897A6",
"^. c #699EAA",
"/. c #96888F",
"(. c #AB8E84",
"). c #A98B8B",
"_. c #A48A86",
"`. c #AE918B",
"'. c #B8978A",
"]. c #B79997",
"[. c #AA8B8E",
"{. c #BEA29F",
"}. c #8F98AA",
"|. c #BCA6A8",
" X c #A1ADBE",
".X c #B5A5B4",
"XX c #AC9CA9",
"oX c #CC9383",
"OX c #C99889",
"+X c #D99888",
"@X c #CC9794",
"#X c #E39B8B",
"$X c #E59B85",
"%X c #C9A69A",
"&X c #D7A998",
"*X c #D7B19A",
"=X c #D2A68B",
"-X c #E5AD98",
";X c #F7AB96",
":X c #ECB59A",
">X c #F8B29A",
",X c #EFA58C",
"<X c #C49DA1",
"1X c #C7A5A3",
"2X c #D3ADA2",
"3X c #D6B3A7",
"4X c #D5B6B8",
"5X c #C9B3A8",
"6X c #E8BAA7",
"7X c #F7B9A4",
"8X c #E5BBB3",
"9X c #FFC69D",
"0X c #EAC3AE",
"qX c #FBC4A5",
"wX c #FCCAAC",
"eX c #F9C8AB",
"rX c #FED4AB",
"tX c #E5C2B4",
"yX c #FDCCB2",
"uX c #F6CBB6",
"iX c #FED3B4",
"pX c #FDD3BB",
"aX c #FBD4BE",
"sX c #80BBC3",
"dX c #D6BBC8",
"fX c #C3B6C5",
"gX c #ACCFDA",
"hX c #B7DCE3",
"jX c #84C0C8",
"kX c #D6C5C7",
"lX c #D5C5D2",
"zX c #FCD5C6",
"xX c #E3D3D8",
"cX c #F1CBC7",
"vX c #E7DAE5",
"bX c #E6F5FC",
"nX c #F3F8FD",
"mX c #F3E8EF",
"MX c #D6DFEC",
/* pixels */
"r G S c S S c S b c b c c S b r r b b b b A D D H D A A A S A e t A A A A c v S A S H D A A c r H S A c g A A S S S S S S A S ",
"c b f 8 r f 8 f e e g r r g S b c h f e e e y e y y r e e g A A A c t r r r r e e e e e e t c g S S S S A A A S S A A S S S S ",
"S G g t c g r c e 8 e e f c c r S S h g c g c A y e e f g b c t H F c x f v g b e y t t g A c x c S G S S A A S S S S S S S S ",
"c S b b c c g H c c c c g c S c S S S b c g x N A m b m x m b M c m v M v d x b c g A A A A G A S S S A S A S S S A S A A S A ",
"c S c b S c c S S G G b b S H S h A b G N N M B M M M M n M M M M M W M Q V M N m c S S S A G A S S A A S S S S S S A S A S A ",
"S S A S S S S S S A A S G H S h A b c b M x 7 , 1 - - < 1 0 1 = - , , , 4 , , 7 p c N G c S S S S A A S S S S S S A S S S S S ",
"S S c A S S S S A S G S g g A G A S S N N M 0 3 5 1 5 1 > ; 1 3 ; 1 3 1 < > 3 0 n M N c c A D S S A S S S S S A S S S S S S S ",
"A S H S S A A S A A S D A G G c S S b x k k j j l l u l l l l l E R j j j l j j u k v G b A Z h A S S S S A S G S A S A G c S ",
"S S S A S A S A G c S S A A S A m m v q 3 j R E ' ! ~ _ _ ! ! ~ / / ! ! / ` ! R j j w n b S D A S S A S S A S A S S A S S S A ",
"A S S S S S S S G A S S A S S S X.N x 3 1 l } { :.[ [ [ ;.;.' ;.] { { { -.-.] / j 3 3 n v S h A S S S S S S S S S S S S S A S ",
"A S S S S A S S G A S S A S A c M x i u j R } { :.:.:.:.:.w.-.-.:.w.w.w.1.:.:.' R j 3 k x c c b S S A S S A S S A S A G S S G ",
"S S S A S S A S S S S S A A S c q 0 k R / '  . .:.:.:.:.:.:.:.-. . . . .:.:.:.[ ' / R z 0 d c S S A S S S S S S S S A A S A A ",
"S S A S S S S A S S S S A G c c 0 1 j / [ { w. ... .w. .:.:.;.[ :.{  . . .:. .;.:.[ / l 1 7 x b A S S S A S S c S S S A S S A ",
"S A S S S A S S S S S A A S c g 3 3 l ` :. . .[ .. . . .:.{  .{ :.:. . ...[ [ ;.:.;.' l 3 , x N A A S S S S S A S A S S A S S ",
"S S S S S A S A S S S A A S b f 5 5 R ' w.:..._ .... .{ { { { { :.{ [ [ [ [ [ [ ;.;.[ l 3 1 M G A S S S S S S A S A S A S A S ",
"S A S A S S S S b A G A S S b f 5 1 s ! }  .{ }  . . . .1.-.-.-.$.{  .:. .[ [ ;.;.;.' s 3 9 M X.A S S S S S A A S S S S S S S ",
"G A A A A b S b D A D C A b c f 4 2 l ~ ] 1.u.e.e.w.{ [ [ { { } [ ;.....w.e.u.e.e. .` 5 3 j u Q D D K D A A A G m F F N A N A ",
"A A F b A S b S C A A A D K J f 3 2 l ! { u./.[.W.e./ | _ _ _ _ ` _ T _ e.W.[./.e.} | E 3 0 q m K K H D A g A S S b S c c c G ",
"A F S S S S Z b A H D h S K +.g 3 < s | $.n.1X8X1Xp.W ! [ } [ } -.) l 1.a.1X4X1Xs.$.E E > q g P S Z A A S A A G c S c S F G F ",
"A A S S S Z S b t A h J S g v 8 4 : 6 | } m.2XwX6XJ.8.6.t.t.e.t.t.3.3.8._.3XzX*Xm.} E 6 : 7 C P K S S S H G G S A G F A A A D ",
"F A S S A b Z S A H F K K S J x 3 : 6 E ] m.*XrXqX*X'.J.).).)._.J._.`.'.%XyXrX=Xn.@.E 6   2 m H +.H S A c S S A S G A A A F F ",
"A S A S S S b h A F c c g b B M , = < T ] s.%XeXrXrX0X0X6X6X6X6X6X6XuXtXpXpXuX%Xp.1.E : * 5 W G K H S A c S G b F S A F A A A ",
"S A S S A A b Z A N A S v v N M v ^ ( ) ] u.).%X5X5X3X6XqXqXeXeXeXeX7X8X2X3X1X).8.,./ / ) / M M J J J J H b A A A G G A A G A ",
"S A G S A A h A G S +.G g f v +.p.m.m.e.$.1.t.p.m.v.N.oX-X9XwXwXeX:XK.A.v.v.p.t.<.1.r.d./.u.@.n f f c c c c c H A S A A A S G ",
"A G D S A A S S A S t p p a 7 3.OX3X<Xs.1.~ R ] v v +.v.OX7XwXyX9XOXv.#.M M ^ ( ) ,.n.{.4X].<.O 7 r J +.H G J K D D A A F A S ",
"A A S S S G G H +.+.F H x $ 7 t.&XuX4Xn.] ) ( O.v 0 p 6.'.uXpXpX0X'.6.0 , z ( ! ~ ) s.3XuX*X8.d $ f O.+.G H D J C A A A F D S ",
"S S S S S S S S H H F G x X 7 t.2XcX4Xn.^ 1.f.n.8.M a %.`.pXzXiXrX`.1.2 z 8.W.a.:.;.s.*XiX=X9.4 . i G G b A A A A A D A F A S ",
"F A A A A A c c A A x G r o $ 8.%XtX5Xp.L 8.].3X_.,.7 @.(.uXrXrXrXJ.,.O @._.5X].e.,.f.2XrX=X0.> . r N c c A A h A A A F S S A ",
"F A A S S S S S A G F m d O 8 2.(.%X].p.*.v.2XyX'.Y + L J.:X9X9X>XC.L + <.'.0X6Xf.2.y.].%XK.3.2 7 m G c D S A A D A C D G A c ",
"A A A F S S S S A A G A g f g @.8.n.m.j.j.(.0XyX'.L @ h v.U.$X,X+Xz.f + <.'.pXuXJ.v.y.n.v.8.J j c N F S A S S S H C D A G A c ",
"F N A F A A S G S A D S g b V V d S #.h.b.+XeXeX'.<.O e g.V.I.I.F.5.f + <.'.7X7XOXD.y.*.F c M ^ J v c N A Z D G D D A D S A c ",
"c c A A A G D H +.F H D c N v 0 , . t 0.D.oX:XqX'.0.b P j.G.H.H.Z.z.P h 4.K.;X;XoXB.7.t # # x @.+.G b S S J D K D A g A S A A ",
"c A A A A D H G G G S C D F F m 2   4 v 2.b.oX+XOXZ.z.Z.I.oX$X$X+XI.C.z.B.U.+XI.B.&.m -   X x K +.G c H A G A t S S S A S A S ",
"A S S A A A A A m c D C D G S v 4     @ 8 P z.S.+X#X-X6X6XqX7X>X7X7X>X&X@X+XK.k.P % >     a F #.+.K K K D D K o.A S S S S S S ",
"b S G S S S A c +.D +.K J O.B V d d d q r S 7.b.'.-XeXeXqX7X>X;X7XyXyXeX&XoXb.=.P e u s j d m Q L S K A G H +.D S A S S S S S ",
"b S S S G S S A #.S S S v f 8 V 6.p.m.m.d.s.y.j.k.H.+X#X$X$X$X$X$X#X+X@XoXz.l.9.n.d.W.d.p.3.B u b G J A +.+.+.A S S S G S S A ",
"A c A b A S S G P Z b b d $ O ,.D.%XcXxXlXXXn.*.=.l.V.V.G.G.V.G.G.G.B.B.k.U &.n..XlXxXkX5XP.Y + $ f b b g c h g S A S S S S S ",
"G S b A b A b S Z Z h d 8 8 f 0.oX8XzXmXvX.Xs.H I U g.k.B.G.V.H.V.B.k.g.U I K s..XvXmXzXuX'.0.& % f h B b G c S S S S S S S S ",
"G S b b A b A Z A h f f L <.q.N.+X&X1X|.}.W.2.H I =.g.b.S.@X].<X<XQ.b.g.U I L 3.d.}.|.2X-XoXZ.j.<.J e f J J S A G G S S A S S ",
"A b b A b Z D D F x 0 d <.m.%X=X#XI.c.t.$.Q ^ O.I 4.l.A.<XcXxXvXkX<XQ.7.U &.D J b #.0.z.I.U.*X%XM.3.8 . f x c b S S S A A A S ",
"N S Z Z Z C F N X.k - - 6.%XeXqX$XZ.7.h X O f P &.=.l.Q.dXvXnXnXvXdXQ.l.=.U #.z u o t 5.Z.U.9XiX|.3.$ O v Z V b A S A A S S S ",
"G S Z Z C C A G W i - a 8.%XyXwX>XoXx.h @ . G 4.5.5.h.Q.dXmXnXnXmXdXQ.l.U g.*.N o o A b.U.,XrXaX|.8.$ O f b b c A c S A S S A ",
"F F D Z Z C A S W i 1 a 8.%XyXiXiX6X(.Y . % P h.j.g.h.Q.dXvXbXbXmXdXQ.h.l.k.j.#.> , <.(.7XiXpXzX|.3.$ . d A b b A S c A A S S ",
"m F C Z Z Z A S W i - a <.(.6XuXiX0X(.Y + e *.9.h.7.j.W.fXMXbXmXMXfXW.y.h.l.7.#.3 0 <.).8XzXuXtX_.3.$ . % h b G S c G A S S S ",
"F F F C Z D A A X.p i r #.v.J.'.'._.p.B , 7 F #.*.6.y.W.sXgXhXhXgX XR.E.6.*.%.N 3 3 ^ f._.].`._.p.,.r 8 r A b F S S S S S S S ",
"F F F D A A b b m m p x C D Y ,.<.@.B z 3 1 9 w O.1.E.E.sXjXsXsXjX^.E.e.1.m i 7 < 3 j ) @.2.2.,.J b x c S S c A S A S A A S A ",
"F F D A A c b c A F A S f 8 4 : < - < < < 1 9 9 W $.E.T.~.~.~.~.~.E.E.T.%.Q 3 X - < 4 > , - , O 8 q m G G D b c A S S S S S S ",
"F F F A A c b G C C A S m 0 > : < ; ; < 5 u m o.2.t.E.T.Y.Y.Y.Y.Y.T.T.E.s.2.@.N i 3 4   < - , + 8 x c v A A c c S S S A A S S ",
"A S S A S A S S A S S c c x r r n i 1 = 9 H 4.j.C.C.A.p.1.~ T T ` $.s.M.N.C.k.*.o.9 * 5 i i g & c c c S S S S G S S A A S S A ",
"S A S S S S A S A S S S S S N b c N x q 9 D y.Q.S.S.D.h.J 4 * * 3 X.y.A.A.K.A.v.o.9 1 z Q m S Z A A A S S S S S S A G A A S S ",
"S A S A S S S S S S S S S N S G Z G b q 8 N 6.p.b.c.j.&.Z 7 o > w c %.j.v.k.9.4.o.r q W m F N A A A S H S S A A S S S S S A S ",
"S S S S A S A S S S S A S A A A D h g g m X.G N L L J A g d d d g f A D #.P D G G t p F F F b v A A A S H S A S S A S A S S S ",
"S S S S S S A S A A S S S A G A Z A A F F m q - 7 $ $ w f G G G F c w 7 9 7 7 r h g A D A b N b S A A S S S S S S A S S S S S ",
"A S A S S S S S S S S S S F A F S A A F F p 9 a , X X 7 r A A A F x 7 > > = o X h A D C A S G c S A c S A A S S S S S S S A S ",
"S S A S A S A G S S S S S A c c A c c A D F F m ^ M M M N F G c F G v n M W n G v A Z Z Z b S F S A S c S A S S S A S S A S S ",
"A S S S S S A A A S S S S F S S G b b S A A A A G N M M N F S A m G S m X.W M M b h C Z Z b b S S A A S S S A S S S S c S S A ",
"G A S S A S S S S S S S S A F G X.F N A Z Z Z Z Z b h S c G G F F A F A S S b b v b b c S b A D S A S S S S A S A S A S A S S ",
"S A S G S S S S S A A D S A A F W F c A A Z Z Z A A c G m F A F A A A D S S S b S b S v S c D S S S S S S A S S S S S S S S S ",
"S A S S S S S S A A A A S A S S F G S A A Z Z A S c A H c G S S A C C A S A S c b b G b S b A D S S A S S S S A S S A S A S S "
};
