/* XPM */
static char *conssomable_jpg[] = {
/* columns rows colors chars-per-pixel */
"30 30 139 2 ",
"   c #371627",
".  c #391725",
"X  c #371827",
"o  c #3C1C24",
"O  c #37162A",
"+  c #381729",
"@  c #371828",
"#  c #3E1D2D",
"$  c #3F1C31",
"%  c #3F2026",
"&  c #34232D",
"*  c #3D242D",
"=  c #372D2E",
"-  c #3A2B2A",
";  c #3D2432",
":  c #3C2A34",
">  c #3D2B39",
",  c #3E3236",
"<  c #3E343F",
"1  c #4C171F",
"2  c #5A290B",
"3  c #512011",
"4  c #572E12",
"5  c #5E2218",
"6  c #5F3117",
"7  c #6F300D",
"8  c #793601",
"9  c #703509",
"0  c #772A16",
"q  c #73301D",
"w  c #7E301A",
"e  c #421D26",
"r  c #411D2C",
"t  c #411B33",
"y  c #4F1D38",
"u  c #452523",
"i  c #43242D",
"p  c #482029",
"a  c #41292C",
"s  c #4B2A2C",
"d  c #542D2A",
"f  c #5D2B2E",
"g  c #4E312D",
"h  c #513027",
"j  c #5C3525",
"k  c #51332B",
"l  c #59352D",
"z  c #543D2D",
"x  c #412533",
"c  c #4A2332",
"v  c #442B35",
"b  c #4B2D34",
"n  c #47213A",
"m  c #4A233B",
"M  c #452D3A",
"N  c #4A2E3B",
"B  c #592531",
"V  c #502D33",
"C  c #512E3C",
"Z  c #453335",
"A  c #4B3236",
"S  c #403835",
"D  c #45323B",
"F  c #4B323C",
"G  c #46383E",
"H  c #4A393C",
"J  c #513136",
"K  c #593332",
"L  c #52333C",
"P  c #583438",
"I  c #5C383A",
"U  c #682723",
"Y  c #692F2D",
"T  c #762B28",
"R  c #754423",
"E  c #784623",
"W  c #7A4823",
"Q  c #794329",
"!  c #794B2B",
"~  c #6F4A38",
"^  c #725337",
"/  c #4C2E41",
"(  c #512E41",
")  c #463440",
"_  c #4D3342",
"`  c #453945",
"'  c #4C3C40",
"]  c #4D3648",
"[  c #523342",
"{  c #573448",
"}  c #5F3450",
"|  c #814B31",
" . c #80543B",
".. c #9B6B2B",
"X. c #9E6C31",
"o. c #906F3C",
"O. c #A5702E",
"+. c #BE792C",
"@. c #A47C3A",
"#. c #CB7E2E",
"$. c #C87934",
"%. c #D17738",
"&. c #9E7549",
"*. c #BF7D41",
"=. c #CE7942",
"-. c #C17949",
";. c #D0774B",
":. c #C77351",
">. c #CC745C",
",. c #BD8526",
"<. c #B6822F",
"1. c #B9822F",
"2. c #BC833C",
"3. c #CA871F",
"4. c #C48826",
"5. c #C6852B",
"6. c #C38928",
"7. c #CC8B2D",
"8. c #C3853C",
"9. c #EFBB34",
"0. c #F1C037",
"q. c #F5CB37",
"w. c #F6C83E",
"e. c #BC8145",
"r. c #A78F5F",
"t. c #B68E5B",
"y. c #A38F6A",
"u. c #B18B67",
"i. c #BA8D64",
"p. c #B79265",
"a. c #C28244",
"s. c #F7B34E",
"d. c #FCBD56",
"f. c #FFBB5E",
"g. c #FFB366",
"h. c #FAC245",
"j. c #F7C049",
"k. c #FCC14B",
"l. c #FFC355",
/* pixels */
"x v i i & : > > M _ v M y m G = Z Z D ; y } ( r M D G Z - u ",
"_ / b i v D ) > % c A ; m N D G F D H N n $ r c ; M D H F s ",
"/ N b b [ ] D ; b p o M N ) : A ; ; & > D N b N > ; Z F b s ",
"# x b b N N v a % V { D > @ d e c / > G ) F P b v : ; * i a ",
"& : ; x x x ; * F [ / ) : o Y T B C M ) H Z A b v ) ) F F P ",
") ) F F C C b Z D D ] F s 3 0 >.U f P D , Z a o ; M ) F F F ",
"D D D F / / D - x & D J j 7 ;.%.w 5 I D , H b C / / D D b b ",
"D D G F ( / D S A G G s 6 -.%.g.:.q d D ` H v ( _ / ) F F F ",
"* v / ] / ( _ F ) D Z j 9 +.3.j.$.8 2 h F _ N { ( [ F F Z A ",
"a M ) / C / F D G Z g 6 *.7.h.0.5.-.2 u A ] [ ( ( F D Z A F ",
"s F _ / ( [ _ F Z Z k ! a.d.9.q.f.8.E l M _ N ( N N F Z A A ",
"J L _ / N M F F ` F u | a.d.h.w.s.8.E d [ / ( / N N D A A L ",
"b b D v ; * Z D < D K R a.5.l.j.6.e.R l [ / L F M M F A F C ",
"A F D > ; a v D H a g ! X.<.,.6.+...^ I M F F A M F D F L C ",
"L _ ) ) F A J L Z L s ^ &.<...O.@.&.~ s N N H A Z Z D D N C ",
"N N / ) F J V V L M g S y.r.p.i.t.u.l L N ) Z Z A H F F C C ",
"C N _ N F F A A F F b o e e r e e r . ( N F A A Z F F F F M ",
"N / N F F F A A M F N + r # r r e r + N / F A F A F H F F F ",
"[ _ F F F Z F A N _ N + $ t t t t t + ( / _ N F F F F F F F ",
"N F N F F F F D F / ) + $ $ t t t t + / N F N / Z F Z F F _ ",
"F N F F F D A F F F F X r # t $ $ # + N F F F F F F Z F F _ ",
"F F F F F F A F F F N . # # # t $ $ . F F F F N A F F F F _ ",
"F F F F F F F M F F N @ # # # # # # O _ L F N F Z F A N M M ",
"F F F N C F A F N _ F @ # # t # # # O / / _ F N F D F M x x ",
"[ F N N N F F N F _ F N m N N / x ; $ v F _ N F N L F N F L ",
"M N F L [ N F F M L F / M N v c v ; x M _ _ M b M F F F F F ",
"F F F b v v v F F L _ _ N N v x [ F N _ _ N v x x m F F F N ",
"L F b v ; x v N F M M N F [ N F F M M _ _ L F M ; v M ) M M ",
"Z F F F M F F F F v x v M F F F v ; x v M F F _ F v M ) N M ",
"A Z F F F [ _ F M x ; x N M F b N x x ; ; x M M _ v v F F F "
};
