/* XPM */
static char *exit[] = {
/* columns rows colors chars-per-pixel */
"46 32 58 1 ",
"  c #1D0E07",
". c #170B0F",
"X c #1C0D0D",
"o c #1C0C12",
"O c #1E1113",
"+ c #200700",
"@ c #230A03",
"# c #210D0D",
"$ c #221107",
"% c #22120E",
"& c #220E15",
"* c #200F19",
"= c #221215",
"- c #2D1515",
"; c #23131A",
": c #2C151B",
"> c #2E1C1F",
", c #331C15",
"< c #331B1A",
"1 c #362015",
"2 c #36221B",
"3 c #2C1622",
"4 c #2E1A24",
"5 c #311B26",
"6 c #331E29",
"7 c #381E2B",
"8 c #3C1F31",
"9 c #342325",
"0 c #3D2525",
"q c #35212C",
"w c #3A222E",
"e c #352A2A",
"r c #3E2C2C",
"t c #3D2532",
"y c #3E2834",
"u c #40262F",
"i c #432A2C",
"p c #412734",
"a c #422835",
"s c #482E35",
"d c #432638",
"f c #452B39",
"g c #482D3A",
"h c #47303A",
"j c #4B333E",
"k c #583F3B",
"l c #544238",
"z c #5F473D",
"x c #4C3643",
"c c #4E3841",
"v c #523C44",
"b c #513B48",
"n c #5B4743",
"m c #5C4A43",
"M c #554049",
"N c #5A4648",
"B c #634C43",
"V c #625245",
/* pixels */
"5q5455666645w446664646q56q4565564q546656476646",
"6t6w65463666t6q54q66643q3q66t6664q66644646t6y6",
"wty6t46y6aaay6atqtettqqy4attf7ytwtwwt66t8yyyyt",
"tyftxyfywadsa6tfyytyaypftyffy6tfyyttyyfftfyftw",
"5a7ptapappdppppaytttaafappaayatfttwtapfpdtfty5",
"5awfddpafpfppsaftytadtppfufadfafupppftppffaaa6",
"67atfwaafudppppayadafpppfpappptdpafafppfpduaw5",
"6taaapfapdspdpaaddatppfppafadpddpaapppftdpdpy5",
"35tffdaataaaaaaaaaaapaapppaaaaapaaapaapaddfy44",
"5ttt7papayaapaappapaaaaaappapaaaaapdaappatyyq6",
"6tffdsafpaaaaapdaapaaaaaaaaapaapyyaaaapaffyyt6",
"56ttspppaaaapdpdpaaaappapapaaaaaaapaappyfpytq6",
"qttt8appaaaaaappaapaaaaaaaaaaaaapyppppppauwtt6",
"qtytaffaapaapappaaaaappaaapaapapppaapffdddpttw",
"56tfddppaaaaapaaaapaaaaapaappaaaaaapppppffpt64",
"6tyyadpattaaaaaaaappapapaappaaapaapfappapaaat5",
"qappppfaaaaapaapstagppatfpafafppapaaapafppppdw",
"557ugpppapaaaaapwgd8fdatfffatppaaaaaaptppfpw53",
"waappppppaaaapypdfddgpuppp7sadpdaapaaaafppwfft",
"wyfadpfpyaaapppfuupu0sisugsswfdpaaaapaaapffpa6",
"6taafuapppaaaaypairni-,,5:l0aaaaaaappaparaayt6",
"qyaapuadaapaaayys<2l#nBBk0B,9waapappaaaftayayw",
"46wfjypapaaaapaf35$V%#@+-#z,#5sppapaapppdfaw64",
"6yaaapapaaaaaayy::@m%nmmN&z2=;ppaaaapaaappaay6",
"36tffaaaaapaapyaOOOe.OXOX=9>o;yyaapapaaadyfy44",
"4tytttatapaaaayy3OO4Oee6r#9O;Ofypaaapapattydw5",
"6ttfffaaaaaaapayx*o9=.O3oX4OOxtyaapaaaaafdyyw6",
"5wttaapaapaapaaahcv4;e44w*4Mcfgfpaaaapppfaytq6",
"qttw8aaapppafppwtpajvcbxNjvpg6paapaaaaaaatwttq",
"wtttaffappaappfgfawjfwfgwgwuagpdpaapaaaafatayq",
"4qtafappfppapfytpfwgtwfdafauwufppaaapptafdtt64",
"6watpaapapapppsppwfppfutftpafpfdaapaaaaaaaafy5"
};
