/* XPM */
static char *void[] = {
/* columns rows colors chars-per-pixel */
"63 59 76 1 ",
"  c #2F1925",
". c #301825",
"X c #311B27",
"o c #321A27",
"O c #331B28",
"+ c #321C28",
"@ c #331D29",
"# c #351D2A",
"$ c #341E2A",
"% c #361E2B",
"& c #371F2C",
"* c #391F2A",
"= c #391F2C",
"- c #38202D",
"; c #3B212C",
": c #3A202D",
"> c #39212E",
", c #3B212E",
"< c #3C222D",
"1 c #3D232E",
"2 c #3C222F",
"3 c #3E242F",
"4 c #3B2330",
"5 c #3D2330",
"6 c #3C2431",
"7 c #3F2530",
"8 c #3E2431",
"9 c #3D2532",
"0 c #3F2532",
"q c #3D2733",
"w c #3E2633",
"e c #3F2734",
"r c #3E2834",
"t c #3F2935",
"y c #402631",
"u c #412533",
"i c #412732",
"p c #402633",
"a c #412734",
"s c #422833",
"d c #402835",
"f c #432934",
"g c #422835",
"h c #412936",
"j c #432936",
"k c #422A37",
"l c #442A35",
"z c #442836",
"x c #452B36",
"c c #442A37",
"v c #462C37",
"b c #432B38",
"n c #452B38",
"m c #462A38",
"M c #472D38",
"N c #462C39",
"B c #472D3A",
"V c #482E39",
"C c #492F3A",
"Z c #482E3B",
"A c #492F3C",
"S c #4A303B",
"D c #4B313C",
"F c #4A303D",
"G c #4B313E",
"H c #4C323D",
"J c #4D333E",
"K c #4C323F",
"L c #4E343F",
"P c #4D3340",
"I c #4F3540",
"U c #4E3441",
"Y c #4F3542",
"T c #503641",
"R c #503643",
"E c #523843",
/* pixels */
"oeh9he9brqrrhk9#orh9hh9crqrhrkq#oeh9he9br9rrebe$aha95uahacaaaca",
"bh#o#&oO++#X -hhch#o##oO+++X -rhnh#o##o#++#+ &eeabaaaazcacacaac",
"hh5-94-eo +#6hq#hh9&92-q+ X-9h9#ah2-95-9X +#6b5#anazachaaacacca",
"5hnca25n999969h95ccch23c969999ha9hMhh25n699r5eaaaaanaacacaaaaaa",
"ccusau9chaa92uVcccush9ucbaa9-annccuhuu9chha92unnaaaaccaaaacccaa",
"ch9shccch99ccnc2cuuscccch99hMnc5csushcnch99cnMz5ccaaaaaccaaaaac",
"uhccuuuuhcVcuuzmuhccuuu9abMMuuzcqhccusu9hcMMeuancaaczccacaaaaca",
"uuhhuhMhhuacchzuqhcu9cccaauchzzuuuchuhMhhuahaczaaaahcaaaaaccaac",
"hhszhcuhshzufhshchhsaachcaaahuuchcus9csschahcchuccaaaaccaaacaca",
"hfhauzhfzachhuzauuacncuachazcchccuucchhccaauuuccaaaccaaaacaaaca",
"fhzuahfhazuhhcazhcchuuznzchauchushchucuuacnnshhcaaaccaaacacaaac",
"huchzshuhshfuzhssuuu9hhaaaaaschuuccshccu9zVDchu3ccaaaaccaacacaa",
"szahzuhczuhcuhfhhsuVUHn5cahhchachu9cADDDcMDDVVccaacaacaaacaacaa",
"hazschuzchuzhfhuuhnVAAnaHHSScsuaccscBDUDuua92yuhacaaaacaaacacaa",
"zcuhuhshuhshshzcaaaa95ucDUJMsscfMDSseMcsMVVMcMSJaaccccaaccaaaaa",
"uhhfhfzahfzazauhUVahAHVc2VSsuSJSJDMcu23uuVUHMcMDcaaaaaacaaacacc",
"hahfhfchchucucffUAaMJUMu5a5ahADHy;;fDDMfssMUDu29cHUBhaaaaccacaa",
"zzshshuu2sccVHM2=anUJVh9nVAAcu45yifMDDDDsu952uhcVAAnaaznaaaaaac",
"uhcuzahzccu9hAHD;y59<;ufAVJVcyucDJLJDDDScSHHDJHD2;=aaa5acaacaca",
"uchuzhazMuhcu=25HLAHDSSMHHTHSucVDDMVSMs3cVHVSHDMHDAAAAnncaacaac",
"hszazahhuuMPAVATVHSHLDVy<3MDLVJLDDDJLLDMHHDDDDHJHDc255aaaaacaca",
"fhzhhazaMhh-2hVVVLSDVDHDDVDDJVVSDDDDVSDDSVDHJVMSDVcuennnacaaaca",
"hfuhhzaaahcuuVUAuVDJDSHDJDVDDJJLDJDDDDDDHDSDDDHJUDSVVMcccacaaac",
"shucazhaanDDMcSUyMDJDDJDVJSJVLVD;;3fVDDSDSDDDDDSSu2uhuuaaacacaa",
"zchusuhcau55n5=5DDSDDJDDDJJSf<;3ufcMDDDJVDDDDDDDMhUMPeAUAnaacaa",
"succcccnPPaAAUnADJDDDVVDDDDDVlflVDDDJDSSDDVVDDDDTHDRAAnAaauaaaa",
"hacahhhuUABVUPAAVSMs3ylDDDDJDSDDHHHDDDDSDVDDDDDDhnnA555naaaaaac",
"chazusuu5=a5AAABJJMfyiVJDDDDDDDDDVDDDDDDDDDDDDDDHh5uabz5nnnaaha",
"huucccchanan5h55DDJDDDDDDDSSDDDDHHDDDDDDDDDDDDDDUAAnuunnaaaaaaa",
"fchhhszceaanaMHUSSDDDJDVDDDSDDDDHHDDDDDDDDDDDDDDUn5nena9caaacac",
"hcauuuucnananaHSLDSSDDJJVDJDDDJDVVVDDDDDDDDDDDAHnnanaanAAnaznaa",
"suhhshcVAnan5a33DDDDDDSDSDDDDDDSHHHHHDDVDDDDAHHAUan5naAHAc9anaa",
"hhsuucMVHDaaaazADDDDDDDDSDDDDDJDDDJDSDDDSSDDDDSSAAan5n5=aaaazba",
"zuhhhsha45uanbMRDDDDDDDDDJDDSSSSMDSSDDJDJDDDJJJJUAATUAAUaaazana",
"uhszhuuuAUPAAAAUDDDDDDDDDDSSDDDDJJJDDDDDDSMVSSSSUAAaAAUAaabaaaa",
"hsuchhsuUUn5aPUnDDDDDDDDSDDDJDDDVSVSSDDDDDJDDDDDUAUbUPP5anaaana",
"uhfhfccuAAa5aARUDDDDDDDDDDDDDSDSJJDJDJDDDJJDMMSDnaa5u=5anaanaaa",
"chhuuuhh55ane5anDDDDDDDDDDSSSDDJDSDDDDSDDDDcffMDUAanuchnnaaanaa",
"chzhhuusaaAUAaAUDDDDDDDDDDSDVSSV;;3fSDDDJJJSVSDJADMAADn2aaanaaa",
"usuccchsanAAaBUADDDDDDDDSDDDMf3;fsfSDJSSSSDDJDDSAe5ue59Manaaaan",
"accacaaaaa55a=5AHHHVTMuMSSVSJSluDDDJHSs2ylJDDDDJVcVUDaunfhhufhh",
"aaaaaaccnaaARPcVVHVu;=sJSJJJSSSJDDSVHJHHiilVDDVMJHHUDnauauccauc",
"caacacaa5anAHAVHHHHAHLJSS7;<SJJVyiffVVSSJVMSDVJE9MPMeuaccufacuu",
"caacaacaAnaaHLDcVHHHVSHHSlisSJJUMly23cVUVyyVLMi<ss939nn9chhuchc",
"aaacacaa2scc555u5eARVu-939chu2hVDMhuuanAUVVHDchHSDHcu9scuacuuhf",
"acaaacacMcuucAHVDa5nUVcuhsuchsuuuuccnhu9=aAUS39cLcuucchuhfchcha",
"cacaaacaaahh2sDH5acVUAhsusccuuuuchssaaanna22cccu3yaau3uchuuhcuu",
"aacacaahc9hMuuy2una2993chu9uhchczchhzna5abhu3uchyucshchuccafafh",
"acaaccaacaaacaacaacaaacaacaaacaauhhfahcuuhcfachfachfahcuhcuacuc",
"aacaaaacaacacaacacaacacaacacaacahsuccufhcauhhuuchuuccufhuchfchh",
"ccaaaaacacacaaaaaaccacaaaacaccaacfahhuachfuccfahcfahhuacfahuuac",
"aaacccaaacaaaccacaaaaaaccaaaaaacuhcufchuuchauhcuuhcufchuhucchfu",
"caaaaaacacaaaccaaaacccaaaacccaaauchuahcuuhcfuchuuchuahcuhcuahuf",
"aaccacaaacacaaaaccaaaaaccaaaaacchafccufhcauhhafchafccufhuchfcca",
"acaacacaaacacaacaacaaaaccaaaacaacuuhhuachfuccuuhcuuhhuacfahuuhh",
"aacaaacacaaacaacacaaccaaaaccaacafhcafchuuchafhcafhcafchuhuccafu",
"ccaacaaaccaacaaaaacaacaaaacaacaaahcuuhcfahcuuhcfahcuuhcfahcucuh",
"aaacaacaaaacaacacacaacaccacaacaccufhcauhcufhcauhcufhcauhcufhafc",
"aaacacacaaacacacacaaaacaacaaaacahuachfuchuachfuchuachfuchuacuhc"
};
