/* XPM */
static char *wall[] = {
/* columns rows colors chars-per-pixel */
"46 22 70 1 ",
"  c #160F09",
". c #1A0F0A",
"X c #1A110D",
"o c #1C0716",
"O c #130D10",
"+ c #1C0D14",
"@ c #161115",
"# c #1C1116",
"$ c #1E1319",
"% c #1E181C",
"& c #210511",
"* c #220E16",
"= c #230E19",
"- c #231313",
"; c #23121A",
": c #29151E",
"> c #2D1C26",
", c #2F1E28",
"< c #331723",
"1 c #331E27",
"2 c #321F29",
"3 c #3D1F2B",
"4 c #34212C",
"5 c #3B242E",
"6 c #3D282F",
"7 c #3C2631",
"8 c #3D2932",
"9 c #3F2838",
"0 c #40222D",
"q c #42282F",
"w c #412632",
"e c #422A35",
"r c #492936",
"t c #442D39",
"y c #492D3A",
"u c #46333C",
"i c #4D363B",
"p c #45383F",
"a c #4E393C",
"s c #51373E",
"d c #503B3E",
"f c #55423C",
"g c #4E3640",
"h c #4E3A43",
"j c #523742",
"k c #533B44",
"l c #583D44",
"z c #553E48",
"x c #583E49",
"c c #4F4047",
"v c #514048",
"b c #6C595B",
"n c #715F5F",
"m c #6E635D",
"M c #73645D",
"N c #73695F",
"B c #715E60",
"V c #756463",
"C c #786665",
"Z c #766961",
"A c #796A64",
"S c #766868",
"D c #7B6968",
"F c #806D67",
"G c #83726E",
"H c #847470",
"J c #897773",
"K c #867974",
"L c #8A7A74",
"P c #8E7C78",
/* pixels */
"wte0eeeee9ewwewqt0wtwwt57ewwe9wqe7wtwwr5wte0q6",
"VCaCVnnD+SVV-SCNV*dMCDMD+SCV#ACCV-dBSDnA-bCFMC",
"MZMMANAM#NZZ VZMZ-mZMMNC#VZZ NNMC-mZMMNZ AMNmN",
"JPGPJGdJXKGL KKJD.LJJGfFXLGL KJLH KJLGfF-GGPKJ",
"jslilkdl;kak*hasv-kikljl;kik-hask-kikxsk+vkssi",
"ree7r0rrote7=trew=ey57weotw7*tte7*wywwwt=7twtt",
"t2tt2897;974;978u;771t7t;977;977t;771t4t;7t772",
"+;++$#+;$+$#@##*#+##+#####+#@#;#+#$++$##O;+#;@",
"2gh;hkhkzp+kzjkh1hk=hkkklh+cljkj4ak*kkklhk*vkh",
"et7;59e7r8:800yr8t7;7e7w69:875rewt8;68w7wq;8ew",
"3tw&eetwt8+w4e583re&eetwew*84e5w3eroeeyw88;8>t",
"$#$;+% %&;##++;$$##%+% %+;#+#+;$$+#%@$O%###;##",
"gxgzkh;hkhkvh+8pgxglhh;hkkkkh+8pgxglhh+hhhkhp$",
"wwee88$86t0we;eew8ee8e;57e6ew;eew8ee8e;8rrwue+",
"we<eww*et7e6u+5wwe<eww=et7ewu+5ewe<eww*ew5w6t+",
"#$##$+$###;+@@$*#$##$@$##+$+#@#*$$+#$+$##%+$##",
"kkk;hhlkk=khkkjkh=kkklkkh=zhzjkjh;khkjkkk=kjkk",
"rw8+8www8+88ewwe9+weww77w+e7e7ee8+8wew888+8w8t",
"675;88848;5487886;8878648;7476875:5888558;5558",
";;;+#;;+;#;*;*;;$+;;;*;;;.;#;=;;#+;=;***;+#;;;",
">>>2>>,>>4>>,>,,>>>>2>>>>>4>>>>>>2,2>>4>,,>>>>",
"2>49844>194>4,,,>444822,,484212221791482>4,,,,"
};
