/* XPM */
static char *spr_tree1[] = {
/* columns rows colors chars-per-pixel */
"48 64 9 1 ",
"  c #181425",
". c #0D3230",
"X c #3E2731",
"o c #593232",
"O c #743F38",
"+ c #1C5549",
"@ c #2F8055",
"# c #36A54C",
"$ c None",
/* pixels */
"$$$$$$$$$$$$$$$$$$$$$$$$$$$$$$$$$$$$$$$$$$$$$$$$",
"$$$$$$$$$$$$$$$$$$$$$$$$$$$$$$$$$$$$$$$$$$$$$$$$",
"$$$$$$$$$$$$$$$$$$$$$$$$$$$$$$$$$$$$$$$$$$$$$$$$",
"$$$$$$$$$$$$$$$$$$$$$$$$$$$$$$$$$$$$$$$$$$$$$$$$",
"$$$$$$$$$$$$$$$$$$$$$$$$$$$$$$$$$$$$$$$$$$$$$$$$",
"$$$$$$$$$$$$$$$$$$$$$$$$$$$$$$$$$$$$$$$$$$$$$$$$",
"$$$$$$$$$$$$$$$$$$$$$$$$$$$$$$$$$$$$$$$$$$$$$$$$",
"$$$$$$$$$$$$$$$$$$$$$$$$$$@@$$$$$$$$$$$$$$$$$$$$",
"$$$$$$$$$$$$$$$$@@$$$$$$$@##@$$$$$$$$$$$$$$$$$$$",
"$$$$$$$$$$$$$$$@##@$$@@@@@##@$$$$$$$$$$$$$$$$$$$",
"$$$$$$$$$$$$$$$@###@@####@@@#$$@@@$$$$$$$$$$$$$$",
"$$$$$$$$$@@@@$@@@@#########@##@###@$$$$$$$$$$$$$",
"$$$$$$$$@@@##@################@@##@$$$$$$$$$$$$$",
"$$$$$$$@@@###################@@@@##@$$$$$$$$$$$$",
"$$$$$@@@@###@@@###############@@@@@#@@@$$$$$$$$$",
"$$$$@##@@###@@@###############@@@@@#@##@$$$$$$$$",
"$$$$+##@@@##@@################@@####@##@@$$$$$$$",
"$$$$$@+@@@####@@################@@##@@@@@@$$$$$$",
"$$$$$++@@#####@@################@@#####@@@@$$$$$",
"$$$$+++@@##############################+@@@$$$$$",
"$$$$+@@##@###################@@#########@@$$$$$$",
"$$$..@@##@@@#########@@#@@###@@#########++$$$$$$",
"$$$.+##@##@##########@@#@@#####@@@###@@.+$$$$$$$",
"$$$++##@##@###@###@@@@@@######@@@@###@@.$$$$$$$$",
"$$$..+@@@@##@@@@##@@@@@@####@@@@@##@##+.$$$$$$$$",
"$$$.@@.@@@##++@@####@@######@@#####+##++@@$$$$$$",
"$$..@@.+@@@@+++#####@@####@#######++@@+@@+$$$$$$",
"$$.+++@@@@@@##+#########@@@####+##@##@+@@.$$$$$$",
"$.++++@@+@@@##@@########@++##+####@###@+.$$$$$$$",
"$.++++.+@@@@@@@@##+##@@@++##@@##+@@@##@+++$$$$$$",
"$$.+++..@@@++@@@##+++##@++##@@@++@@+@@+.++.$$$$$",
"$$$..+++++..++@@@@@++##@@@@@@##@@####+++.++$$$$$",
"$$$$..++.+.@@+@@+@@@@@@@@@@@@##@+####++..++.$$$$",
"$$$$$$...++@@++@@+@@++++++++@@@@@+####.+++..$$$$",
"$$$$$$$.+++++++@@+@@+++@@+@@@@@##+###+.+++..$$$$",
"$$$$$$$.++++.@@++@@+@@+@@+@@+@@##@@+++..++..$$$$",
"$$$$$$$$..++.@@++@@+@@++++@@+@@++@@.+++....$$$$$",
"$$$$$$$$$....+++++++..++.....++.++.++++++..$$$$$",
"$$$$$$$$$.++...++++..+...@@++++....++..++.$$$$$$",
"$$$$$$$$$.++..++.+++++..+@@+++.++.++.....$$$$$$$",
"$$$$$$$$$$.....+.++++....+++...++.++..++.$$$$$$$",
"$$$$$$$$$$$$$.........++.++...........++.$$$$$$$",
"$$$$$$$$$$$$$$........++..........+.....$$$$$$$$",
"$$$$$$$$$$$$$$$$XXXX.......XX..X.....$$$$$$$$$$$",
"$$$$$$$$$$$$$$$$$$XXXX....XXXXX$$..$$$$$$$$$$$$$",
"$$$$$$$$$$$$$$$$$$$XoXXXXXooXX$$$$$$$$$$$$$$$$$$",
"$$$$$$$$$$$$$$$$$$$$XooOoooX$$$$$$$$$$$$$$$$$$$$",
"$$$$$$$$$$$$$$$$$$$$$XoOoo$$$$$$$$$$$$$$$$$$$$$$",
"$$$$$$$$$$$$$$$$$$$$$ XOOX  $$$$$$$$$$$$$$$$$$$$",
"$$$$$$$$$$$$$$$$$$$  XOOOoo   $$$$$$$$$$$$$$$$$$",
"$$$$$$$$$$$$$$$$    XXoOOOOo     $$$$$$$$$$$$$$$",
"$$$$$$$$$$$$$$$   XXooOOOOOOoo    $$$$$$$$$$$$$$",
"$$$$$$$$$$$$$$   XXXXoOOOoOOXXoo   $$$$$$$$$$$$$",
"$$$$$$$$$$$$$$     XXoOOoooOOXXXX   $$$$$$$$$$$$",
"$$$$$$$$$$$$$$$$  XooOOOoXoOO      $$$$$$$$$$$$$",
"$$$$$$$$$$$$$$$  XoooXXOoXooo     $$$$$$$$$$$$$$",
"$$$$$$$$$$$$$$$   XXXXXoXXXooX $$$$$$$$$$$$$$$$$",
"$$$$$$$$$$$$$$$$       XX  XoX  $$$$$$$$$$$$$$$$",
"$$$$$$$$$$$$$$$$$$          X   $$$$$$$$$$$$$$$$",
"$$$$$$$$$$$$$$$$$$$$$  $$       $$$$$$$$$$$$$$$$",
"$$$$$$$$$$$$$$$$$$$$$$$$$$$    $$$$$$$$$$$$$$$$$",
"$$$$$$$$$$$$$$$$$$$$$$$$$$$$$$$$$$$$$$$$$$$$$$$$",
"$$$$$$$$$$$$$$$$$$$$$$$$$$$$$$$$$$$$$$$$$$$$$$$$",
"$$$$$$$$$$$$$$$$$$$$$$$$$$$$$$$$$$$$$$$$$$$$$$$$"
};
