/* XPM */
static char *spr_boulder2[] = {
/* columns rows colors chars-per-pixel */
"32 16 5 1 ",
"  c #181425",
". c gray35",
"X c gray52",
"o c #B4B4B4",
"O c None",
/* pixels */
"OOOOOOOOXXXXXXOOOXXXXOOOOOOOOOOO",
"OOOOOOXXooooXooOXooooXXXOOOOOOOO",
"OOOOOOoooooooooOoooooooX.OOOOOOO",
"OOOOOOooooooXoo.oXoooooX.OOOOOOO",
"OOOOOOooooooXoo.oooXXoo..OOOOOOO",
"OOOOO .oooooXXX.XXXXXX... OOOOOO",
"OOOO  .oooXXXX..X..ooXX..oo OOOO",
"OOOO XXXXXX.XX.....ooXX.XXo  OOO",
"OOO ..XooXXXXoooooXXXXX.XX.. OOO",
"OOO X.XooXX.XoooXo.XXX.....X OOO",
"OOO  ..Xo...XoooXX.....     OOOO",
"OOOO  .XX.X..XXXXX.X..     OOOOO",
"OOOOO   X ...XXoX.....   OOOOOOO",
"OOOOOO       .....      OOOOOOOO",
"OOOOOOO               OOOOOOOOOO",
"OOOOOOOOOOOOO     OOOOOOOOOOOOOO"
};
