/* XPM */
static char *graise_r[] = {
/* columns rows colors chars-per-pixel */
"93 87 109 2 ",
"   c #2D1920",
".  c #331B22",
"X  c #3A1E25",
"o  c #2C2025",
"O  c #292528",
"+  c #262F2E",
"@  c #2A2A2B",
"#  c #342026",
"$  c #3C2126",
"%  c #322529",
"&  c #3E2428",
"*  c #3C2C2C",
"=  c #26302F",
"-  c #253331",
";  c #2A3230",
":  c #233C36",
">  c #223E38",
",  c #2C3E3B",
"<  c #353437",
"1  c #3C3533",
"2  c #3A3D36",
"3  c #313939",
"4  c #402027",
"5  c #442429",
"6  c #49262B",
"7  c #402F2F",
"8  c #4E2A2E",
"9  c #522F2E",
"0  c #522F30",
"q  c #443432",
"w  c #4B3532",
"e  c #423A35",
"r  c #533332",
"t  c #5A3532",
"y  c #5B3835",
"u  c #643B35",
"i  c #683E37",
"p  c #653F3A",
"a  c #693F39",
"s  c #1F473D",
"d  c #1E4A3F",
"f  c #244036",
"g  c #22433A",
"h  c #29443C",
"j  c #21493F",
"k  c #2A4A3F",
"l  c #3A473D",
"z  c #31493F",
"x  c #22543F",
"c  c #41453C",
"v  c #4C443B",
"b  c #46493F",
"n  c #54443C",
"m  c #584239",
"M  c #53483E",
"N  c #5E493F",
"B  c #644039",
"V  c #6C443D",
"C  c #64483E",
"Z  c #71453C",
"A  c #1E4D40",
"S  c #1E5342",
"D  c #1F5843",
"F  c #214D41",
"G  c #2C4D43",
"H  c #3E4746",
"J  c #334E43",
"K  c #384E42",
"L  c #205342",
"P  c #205C44",
"I  c #285449",
"U  c #3B5044",
"Y  c #3E524E",
"T  c #33584E",
"R  c #3B5C54",
"E  c #216345",
"W  c #236C46",
"Q  c #247047",
"!  c #2A7147",
"~  c #247448",
"^  c #267C4A",
"/  c #287E4A",
"(  c #434647",
")  c #444F43",
"_  c #4F484C",
"`  c #584A40",
"'  c #544249",
"]  c #41534F",
"[  c #515245",
"{  c #445350",
"}  c #4A5453",
"|  c #5D575B",
" . c #644940",
".. c #6D4F45",
"X. c #744A41",
"o. c #7A4C42",
"O. c #755548",
"+. c #79584B",
"@. c #6B5960",
"#. c #4A6D64",
"$. c #5E6766",
"%. c #52736B",
"&. c #86574A",
"*. c #2A834B",
"=. c #2E894B",
"-. c #31834A",
";. c #318D4C",
":. c #36944D",
">. c #38974E",
/* pixels */
"R R R R %.%.%.%.%.$.| G D W W W W D G ' @.@.@.@.| G A A S A A T { ' ' ' @.Y S W W W S Y ' ' ' ' ' ( F F A A S I #.$.@.@.' ' G S W W E A ] @.@.@.@.@.} A E W W ^ ! A H _ %.%.%.%.%.%.%.%.R ",
"D P P P D D E D A , 3 d E *.*.*.^ D h < < < < < , j S D D D D D h < < < < h S Q ^ ~ S h < < < < < , A S D D D D S h < < < < F P ^ ^ Q A h 3 < < < < , S Q ^ ^ :./ L , 3 j L P P D D P E D ",
"W ^ ^ ^ ^ ^ ^ Q S d d A E ^ ;.=.^ D d d d d A d A A E ^ ^ ^ ^ D A A A A A A D ~ ^ ~ S A A A A A A A A E ^ ^ ^ Q S A A A A F F P ^ ^ ~ A A A A A A A A A W ^ ^ ;.-.F F F d E ^ ^ ^ ^ ^ ^ ^ ",
"Q ^ ^ ^ ^ ^ ^ Q S D W W Q *.*.*.^ Q W W W W W W E S E ^ =.*.^ W W W E W W W W ^ ^ ~ D D W W W W W E A W *.=.*.^ W W W W W W W W ^ ^ W S D W W W W W W W ~ *.;.:.;.W W E S E ^ ^ *.;.;.*.^ ",
"W ^ ^ ^ ^ *.*.Q D E *.*.*.*.^ ^ ^ ^ ^ *.*.*.*.*.~ E W ^ :.;.*.*.*.^ ^ ^ ^ *.*.*.*.~ E E ^ ^ ^ *.^ Q D W *.>.=.*.*.^ ^ ^ ~ ^ *.*.*.*.~ D Q ^ ^ *.*.*.*.*.*.=.>.;.=.^ ^ Q S E ^ ^ *.:.;.*.^ ",
"Q ^ ^ ^ *.:.*.W S E ^ ;.:.:.*.^ ^ *.*.>.:.:.:.*.^ ~ ^ *.;.>.:.:.=.^ ^ ^ ^ =.:.:.*.^ ^ ^ ^ ^ *.:.*.^ ^ ~ *.:.:.:.:.=.^ ^ ^ ^ ;.:.>.*.^ ~ ^ ^ ^ =.:.:.:.:.:.:.>.=.*.^ ^ Q S E ^ ^ ^ ^ ^ *.^ ",
"D E E ~ *.>.*.^ E ~ *.:.>.>.=.=.=.=.;.:.>.>.>.:.=.=.;.;.>.>.>.>.>.=.=.=.=.:.>.>.:.;.=.;.=.=.:.>.;.;.;.;.;.>.>.>.>.:.=.;.;.;.:.>.>.:.=.;.*.=.=.:.>.>.>.>.>.>.>.;.=.^ ^ ~ W Q ^ =.*.^ W E P ",
"A S D W *.>.=.*.*.*.*.:.>.>.>.>.>.>.>.>.>.>.>.>.>.>.>.>.>.>.>.>.>.>.>.>.>.>.>.>.>.>.>.>.>.>.>.>.>.>.>.>.>.>.>.>.>.>.>.>.>.>.>.>.>.>.>.>.>.>.>.>.>.>.>.>.>.>.>.>.;.*.*.^ *.*.*.>.=.^ D S d ",
"s D ~ ^ *.:.:.:.;.:.:.>.>.>.>.>.>.>.>.>.>.>.>.>.>.>.>.>.>.>.>.>.>.>.>.>.>.>.>.>.>.>.>.>.>.>.>.>.>.>.>.>.>.>.>.>.>.>.>.>.>.>.>.>.>.>.>.>.>.>.>.>.>.>.>.>.>.>.>.>.>.:.:.:.:.:.:.:.=.^ ~ E A ",
"s D ^ ^ *.:.>.:.;.*.=.:.>.>.>.>.>.>.>.>.>.>.>.>.>.>.>.>.>.>.>.>.>.>.>.>.>.>.>.>.>.>.>.>.>.>.>.>.>.>.>.>.>.>.>.>.>.>.>.>.>.>.>.>.>.>.>.>.>.>.>.>.>.>.>.>.>.>.>.>.:.=.=.=.:.>.>.>.=.^ ^ W d ",
"> x ~ ^ *.>.>.:.*.^ *.:.>.>.>.>.>.>.>.>.>.>.>.>.>.>.>.>.>.>.>.>.>.>.>.>.>.>.>.>.>.>.>.>.>.>.>.>.>.>.>.>.>.>.>.>.>.>.>.>.>.>.>.>.>.>.>.>.>.>.>.>.>.>.>.>.>.>.>.>.;.^ ^ *.>.>.>.>.=.^ ^ E d ",
"J x D Q *.>.>.;.*.^ ^ ;.>.>.>.>.>.>.>.>.>.>.>.>.>.>.>.>.>.>.>.>.>.>.>.>.>.>.>.>.>.>.>.>.>.>.>.>.>.>.>.>.>.>.>.>.>.>.>.>.>.>.>.>.>.>.>.>.>.>.>.>.>.>.>.>.>.>.>.>.;.^ ^ *.>.>.>.>.=.^ D S F ",
"M k F W *.:.>.:.=.*.=.:.>.>.>.>.>.>.>.>.>.>.>.>.>.>.>.>.>.>.>.>.>.>.>.>.>.>.>.>.>.>.>.>.>.>.>.>.>.>.>.>.>.>.>.>.>.>.>.>.>.>.>.>.>.>.>.>.>.>.>.>.>.>.>.>.>.>.>.>.:.=.*.;.>.;.=.=.*.^ L k c ",
"V v x W *.:.>.>.>.>.>.>.>.>.>.>.>.>.>.>.>.>.>.>.>.>.>.>.>.>.>.>.>.>.>.>.>.>.>.>.>.>.>.>.>.>.>.>.>.>.>.>.>.>.>.>.>.>.>.>.>.>.>.>.>.>.>.>.>.>.>.>.>.>.>.>.>.>.>.>.>.>.>.>.>.=.^ ^ ^ ^ P l B ",
"Z v A W ^ *.:.>.>.>.>.>.>.>.>.>.>.>.>.>.>.>.>.>.>.>.>.>.>.>.>.>.>.>.>.>.>.>.>.>.>.>.>.>.>.>.>.>.>.>.>.>.>.>.>.>.>.>.>.>.>.>.>.>.>.>.>.>.>.>.>.>.>.>.>.>.>.>.>.>.>.>.>.>.>.=.^ ^ ^ ~ D l i ",
"M l A E Q *.=.>.>.>.>.>.>.>.>.>.>.>.>.>.>.>.>.>.>.>.>.>.>.>.>.>.>.>.>.>.>.>.>.>.>.>.>.>.>.>.>.>.>.>.>.>.>.>.>.>.>.>.>.>.>.>.>.>.>.>.>.>.>.>.>.>.>.>.>.>.>.>.>.>.>.>.>.>.>.=.^ ^ Q W S G n ",
"d A A A D ^ =.>.>.>.>.>.>.>.>.>.>.>.>.>.>.>.>.>.>.>.>.>.>.>.>.>.>.>.>.>.>.>.>.>.>.>.>.>.>.>.>.>.>.>.>.>.>.>.>.>.>.>.>.>.>.>.>.>.>.>.>.>.>.>.>.>.>.>.>.>.>.>.>.>.>.>.>.>.>.*.^ ^ E A A A A ",
"E W W W Q ^ =.>.>.>.>.>.>.>.>.>.>.>.>.>.>.>.>.>.>.>.>.>.>.>.>.>.>.>.>.>.>.>.>.>.>.>.>.>.>.>.>.>.>.>.>.>.>.>.>.>.>.>.>.>.>.>.>.>.>.>.>.>.>.>.>.>.>.>.>.>.>.>.>.>.>.>.>.>.>.:.=.*.~ W W W W ",
"W ^ ^ *.*.*.:.>.>.>.>.>.>.>.>.>.>.>.>.>.>.>.>.>.>.>.>.>.>.>.>.>.>.>.>.>.>.>.>.>.>.>.>.>.>.>.>.>.>.>.>.>.>.>.>.>.>.>.>.>.>.>.>.>.>.>.>.>.>.>.>.>.>.>.>.>.>.>.>.>.>.>.>.>.>.>.:.*.*.*.^ ^ ^ ",
"Q ^ ^ ;.>.:.>.>.>.>.>.>.>.>.>.>.>.>.>.>.>.>.>.>.>.>.>.>.>.>.>.>.>.>.>.>.>.>.>.>.>.>.>.>.>.>.>.>.>.>.>.>.>.>.>.>.>.>.>.>.>.>.>.>.>.>.>.>.>.>.>.>.>.>.>.>.>.>.>.>.>.>.>.>.>.>.>.:.:.:.*.^ ^ ",
"D W ^ =.>.>.>.>.>.>.>.>.>.>.>.>.>.>.>.>.>.>.>.>.>.>.>.>.>.>.>.>.>.>.>.>.>.>.>.>.>.>.>.>.>.>.>.>.>.>.>.>.>.>.>.>.>.>.>.>.>.>.>.>.>.>.>.>.>.>.>.>.>.>.>.>.>.>.>.>.>.>.>.>.>.>.>.>.>.:.*.~ D ",
"j E ^ =.:.>.>.>.>.>.>.>.>.>.>.>.>.>.>.>.>.>.>.>.>.>.>.>.>.>.>.>.>.>.>.>.>.>.>.>.>.>.>.>.>.>.>.>.>.>.>.>.>.>.>.>.>.>.>.>.>.>.>.>.>.>.>.>.>.>.>.>.>.>.>.>.>.>.>.>.>.>.>.>.>.>.>.>.>.:.*.E A ",
"h P ^ *.*.:.>.>.>.>.>.>.>.>.>.>.>.>.>.>.>.>.>.>.>.>.>.>.>.>.>.>.>.>.>.>.>.>.>.>.>.>.>.>.>.>.>.>.>.>.>.>.>.>.>.>.>.>.>.>.>.>.>.>.>.>.>.>.>.>.>.>.>.>.>.>.>.>.>.>.>.>.>.>.>.>.>.>.:.:.*.W A ",
"g P ^ ^ *.:.>.>.>.>.>.>.>.>.>.>.>.>.>.>.>.>.>.>.>.>.>.>.>.>.>.>.>.>.>.>.>.>.>.>.>.>.>.>.>.>.>.>.>.>.>.>.>.>.>.>.>.>.>.>.>.>.>.>.>.>.>.>.>.>.>.>.>.>.>.>.>.>.>.>.>.>.>.>.>.>.>.>.>.:.*.W A ",
"f E ^ ^ *.>.>.>.>.>.>.>.>.>.>.>.>.>.>.>.>.>.>.>.>.>.>.>.>.>.>.>.>.>.>.>.>.>.>.>.>.>.>.>.>.>.>.>.>.>.>.>.>.>.>.>.>.>.>.>.>.>.>.>.>.>.>.>.>.>.>.>.>.>.>.>.>.>.>.>.>.>.>.>.>.>.>.>.>.:.*.W A ",
"> P ^ ^ *.>.>.>.>.>.>.>.>.>.>.>.>.>.>.>.>.>.>.>.>.>.>.>.>.>.>.>.>.>.>.>.>.>.>.>.>.>.>.>.>.>.>.>.>.>.>.>.>.>.>.>.>.>.>.>.>.>.>.>.>.>.>.>.>.>.>.>.>.>.>.>.>.>.>.>.>.>.>.>.>.>.>.>.>.:.*.W d ",
"j P ^ *.=.>.>.>.>.>.>.>.>.>.>.>.>.>.>.>.>.>.>.>.>.>.>.>.>.>.>.>.>.>.>.>.>.>.>.>.>.>.>.>.>.>.>.>.>.>.>.>.>.>.>.>.>.>.>.>.>.>.>.>.>.>.>.>.>.>.>.>.>.>.>.>.>.>.>.>.>.>.>.>.>.>.>.>.>.:.*.W A ",
"A E ^ ;.>.>.>.>.>.>.>.>.>.>.>.>.>.>.>.>.>.>.>.>.>.>.>.>.>.>.>.>.>.>.>.>.>.>.>.>.>.>.>.>.>.>.>.>.>.>.>.>.>.>.>.>.>.>.>.>.>.>.>.>.>.>.>.>.>.>.>.>.>.>.>.>.>.>.>.>.>.>.>.>.>.>.>.>.>.;.*.W A ",
"E ~ ^ :.>.>.>.>.>.>.>.>.>.>.>.>.>.>.>.>.>.>.>.>.>.>.>.>.>.>.>.>.>.>.>.>.>.>.>.>.>.>.>.>.>.>.>.>.>.>.>.>.>.>.>.>.>.>.>.>.>.>.>.>.>.>.>.>.>.>.>.>.>.>.>.>.>.>.>.>.>.>.>.>.>.>.>.>.>.:.*.~ W ",
"Q ^ ^ =.>.>.>.>.>.>.>.>.>.>.>.>.>.>.>.>.>.>.>.>.>.>.>.>.>.>.>.>.>.>.>.>.>.>.>.>.>.>.>.>.>.>.>.>.>.>.>.>.>.>.>.>.>.>.>.>.>.>.>.>.>.>.>.>.>.>.>.>.>.>.>.>.>.>.>.>.>.>.>.>.>.>.>.>.:.=.*.^ ^ ",
"Q ^ ^ =.>.:.>.>.>.>.>.>.>.>.>.>.>.>.>.>.>.>.>.>.>.>.>.>.>.>.>.>.>.>.>.>.>.>.>.>.>.>.>.>.>.>.>.>.>.>.>.>.>.>.>.>.>.>.>.>.>.>.>.>.>.>.>.>.>.>.>.>.>.>.>.>.>.>.>.>.>.>.>.>.>.>.>.>.=.*.^ ^ ^ ",
"D W ^ *.=.:.>.>.>.>.>.>.>.>.>.>.>.>.>.>.>.>.>.>.>.>.>.>.>.>.>.>.>.>.>.>.>.>.>.>.>.>.>.>.>.>.>.>.>.>.>.>.>.>.>.>.>.>.>.>.>.>.>.>.>.>.>.>.>.>.>.>.>.>.>.>.>.>.>.>.>.>.>.>.>.>.>.>.*.^ ^ Q D ",
"d D ^ ^ *.>.>.>.>.>.>.>.>.>.>.>.>.>.>.>.>.>.>.>.>.>.>.>.>.>.>.>.>.>.>.>.>.>.>.>.>.>.>.>.>.>.>.>.>.>.>.>.>.>.>.>.>.>.>.>.>.>.>.>.>.>.>.>.>.>.>.>.>.>.>.>.>.>.>.>.>.>.>.>.>.>.>.>.;.*.*.W A ",
"g E ^ ^ *.>.>.>.>.>.>.>.>.>.>.>.>.>.>.>.>.>.>.>.>.>.>.>.>.>.>.>.>.>.>.>.>.>.>.>.>.>.>.>.>.>.>.>.>.>.>.>.>.>.>.>.>.>.>.>.>.>.>.>.>.>.>.>.>.>.>.>.>.>.>.>.>.>.>.>.>.>.>.>.>.>.>.>.>.:.*.E d ",
"> P ^ ^ ^ =.=.=.:.>.>.>.>.>.>.>.>.>.>.>.>.>.>.>.>.>.>.>.>.>.>.>.>.>.>.>.>.>.>.>.>.>.>.>.>.>.>.>.>.>.>.>.>.>.>.>.>.>.>.>.>.>.>.>.>.>.>.>.>.>.>.>.>.>.>.>.>.>.>.>.>.>.>.>.>.;.=.*.*.*.*.E d ",
"h P Q W Q W ~ *.:.>.>.>.>.>.>.>.>.>.>.>.>.>.>.>.>.>.>.>.>.>.>.>.>.>.>.>.>.>.>.>.>.>.>.>.>.>.>.>.>.>.>.>.>.>.>.>.>.>.>.>.>.>.>.>.>.>.>.>.>.>.>.>.>.>.>.>.>.>.>.>.>.>.>.>.>.=.^ ~ Q Q W E A ",
"K F S S A S W *.:.>.>.>.>.>.>.>.>.>.>.>.>.>.>.>.>.>.>.>.>.>.>.>.>.>.>.>.>.>.>.>.>.>.>.>.>.>.>.>.>.>.>.>.>.>.>.>.>.>.>.>.>.>.>.>.>.>.>.>.>.>.>.>.>.>.>.>.>.>.>.>.>.>.>.>.>.=.~ D x x x S j ",
"M 2 + g D E Q *.:.>.>.>.>.>.>.>.>.>.>.>.>.>.>.>.>.>.>.>.>.>.>.>.>.>.>.>.>.>.>.>.>.>.>.>.>.>.>.>.>.>.>.>.>.>.>.>.>.>.>.>.>.>.>.>.>.>.>.>.>.>.>.>.>.>.>.>.>.>.>.>.>.>.>.>.>.=.^ W x d : ; v ",
"V 9   : P ~ ^ *.:.>.>.>.>.>.>.>.>.>.>.>.>.>.>.>.>.>.>.>.>.>.>.>.>.>.>.>.>.>.>.>.>.>.>.>.>.>.>.>.>.>.>.>.>.>.>.>.>.>.>.>.>.>.>.>.>.>.>.>.>.>.>.>.>.>.>.>.>.>.>.>.>.>.>.>.>.=.^ ^ W g O 5 B ",
"Z 9   : P ^ ^ *.:.>.>.>.>.>.>.>.>.>.>.>.>.>.>.>.>.>.>.>.>.>.>.>.>.>.>.>.>.>.>.>.>.>.>.>.>.>.>.>.>.>.>.>.>.>.>.>.>.>.>.>.>.>.>.>.>.>.>.>.>.>.>.>.>.>.>.>.>.>.>.>.>.>.>.>.>.>.;.*.E j O 6 B ",
"Z 9   > D ^ ^ *.:.>.>.>.>.>.>.>.>.>.>.>.>.>.>.>.>.>.>.>.>.>.>.>.>.>.>.>.>.>.>.>.>.>.>.>.>.>.>.>.>.>.>.>.>.>.>.>.>.>.>.>.>.>.>.>.>.>.>.>.>.>.>.>.>.>.>.>.>.>.>.>.>.>.>.>.>.>.;.^ E s O 5 B ",
"V w   : D ^ *.*.:.>.>.>.>.>.>.>.>.>.>.>.>.>.>.>.>.>.>.>.>.>.>.>.>.>.>.>.>.>.>.>.>.>.>.>.>.>.>.>.>.>.>.>.>.>.>.>.>.>.>.>.>.>.>.>.>.>.>.>.>.>.>.>.>.>.>.>.>.>.>.>.>.>.>.>.>.>.:.*.W s @ * B ",
"b h f d D ^ *.:.>.>.>.>.>.>.>.>.>.>.>.>.>.>.>.>.>.>.>.>.>.>.>.>.>.>.>.>.>.>.>.>.>.>.>.>.>.>.>.>.>.>.>.>.>.>.>.>.>.>.>.>.>.>.>.>.>.>.>.>.>.>.>.>.>.>.>.>.>.>.>.>.>.>.>.>.>.>.:.*.E d g h z ",
"z D E E W ^ =.>.>.>.>.>.>.>.>.>.>.>.>.>.>.>.>.>.>.>.>.>.>.>.>.>.>.>.>.>.>.>.>.>.>.>.>.>.>.>.>.>.>.>.>.>.>.>.>.>.>.>.>.>.>.>.>.>.>.>.>.>.>.>.>.>.>.>.>.>.>.>.>.>.>.>.>.>.>.>.:.^ W E E D d ",
"f E ^ ^ ^ ^ =.>.>.>.>.>.>.>.>.>.>.>.>.>.>.>.>.>.>.>.>.>.>.>.>.>.>.>.>.>.>.>.>.>.>.>.>.>.>.>.>.>.>.>.>.>.>.>.>.>.>.>.>.>.>.>.>.>.>.>.>.>.>.>.>.>.>.>.>.>.>.>.>.>.>.>.>.>.>.>.:.*.^ ^ ^ W d ",
"> P ^ *.=.:.:.>.>.>.>.>.>.>.>.>.>.>.>.>.>.>.>.>.>.>.>.>.>.>.>.>.>.>.>.>.>.>.>.>.>.>.>.>.>.>.>.>.>.>.>.>.>.>.>.>.>.>.>.>.>.>.>.>.>.>.>.>.>.>.>.>.>.>.>.>.>.>.>.>.>.>.>.>.>.>.:.:.=.:.^ W d ",
"> D ^ :.>.>.>.>.>.>.>.>.>.>.>.>.>.>.>.>.>.>.>.>.>.>.>.>.>.>.>.>.>.>.>.>.>.>.>.>.>.>.>.>.>.>.>.>.>.>.>.>.>.>.>.>.>.>.>.>.>.>.>.>.>.>.>.>.>.>.>.>.>.>.>.>.>.>.>.>.>.>.>.>.>.>.>.>.>.:.*.W d ",
"f P ^ ;.>.>.>.>.>.>.>.>.>.>.>.>.>.>.>.>.>.>.>.>.>.>.>.>.>.>.>.>.>.>.>.>.>.>.>.>.>.>.>.>.>.>.>.>.>.>.>.>.>.>.>.>.>.>.>.>.>.>.>.>.>.>.>.>.>.>.>.>.>.>.>.>.>.>.>.>.>.>.>.>.>.>.>.>.>.:.*.W d ",
"g E ^ =.>.>.>.>.>.>.>.>.>.>.>.>.>.>.>.>.>.>.>.>.>.>.>.>.>.>.>.>.>.>.>.>.>.>.>.>.>.>.>.>.>.>.>.>.>.>.>.>.>.>.>.>.>.>.>.>.>.>.>.>.>.>.>.>.>.>.>.>.>.>.>.>.>.>.>.>.>.>.>.>.>.>.>.>.>.:.*.W d ",
"> D ^ :.>.>.>.>.>.>.>.>.>.>.>.>.>.>.>.>.>.>.>.>.>.>.>.>.>.>.>.>.>.>.>.>.>.>.>.>.>.>.>.>.>.>.>.>.>.>.>.>.>.>.>.>.>.>.>.>.>.>.>.>.>.>.>.>.>.>.>.>.>.>.>.>.>.>.>.>.>.>.>.>.>.>.>.>.>.:.*.W d ",
"> E ^ =.>.>.>.>.>.>.>.>.>.>.>.>.>.>.>.>.>.>.>.>.>.>.>.>.>.>.>.>.>.>.>.>.>.>.>.>.>.>.>.>.>.>.>.>.>.>.>.>.>.>.>.>.>.>.>.>.>.>.>.>.>.>.>.>.>.>.>.>.>.>.>.>.>.>.>.>.>.>.>.>.>.>.>.>.>.:.*.E d ",
"s D ^ :.>.>.>.>.>.>.>.>.>.>.>.>.>.>.>.>.>.>.>.>.>.>.>.>.>.>.>.>.>.>.>.>.>.>.>.>.>.>.>.>.>.>.>.>.>.>.>.>.>.>.>.>.>.>.>.>.>.>.>.>.>.>.>.>.>.>.>.>.>.>.>.>.>.>.>.>.>.>.>.>.>.>.>.>.>.:.*.E A ",
"D E ^ =.>.>.>.>.>.>.>.>.>.>.>.>.>.>.>.>.>.>.>.>.>.>.>.>.>.>.>.>.>.>.>.>.>.>.>.>.>.>.>.>.>.>.>.>.>.>.>.>.>.>.>.>.>.>.>.>.>.>.>.>.>.>.>.>.>.>.>.>.>.>.>.>.>.>.>.>.>.>.>.>.>.>.>.>.>.:.*.Q D ",
"W ~ ^ :.>.>.>.>.>.>.>.>.>.>.>.>.>.>.>.>.>.>.>.>.>.>.>.>.>.>.>.>.>.>.>.>.>.>.>.>.>.>.>.>.>.>.>.>.>.>.>.>.>.>.>.>.>.>.>.>.>.>.>.>.>.>.>.>.>.>.>.>.>.>.>.>.>.>.>.>.>.>.>.>.>.>.>.>.>.:.*.^ ~ ",
"W ^ ^ *.=.>.>.>.>.>.>.>.>.>.>.>.>.>.>.>.>.>.>.>.>.>.>.>.>.>.>.>.>.>.>.>.>.>.>.>.>.>.>.>.>.>.>.>.>.>.>.>.>.>.>.>.>.>.>.>.>.>.>.>.>.>.>.>.>.>.>.>.>.>.>.>.>.>.>.>.>.>.>.>.>.>.>.>.:.*.^ ^ ^ ",
"W ~ ^ ^ *.>.>.>.>.>.>.>.>.>.>.>.>.>.>.>.>.>.>.>.>.>.>.>.>.>.>.>.>.>.>.>.>.>.>.>.>.>.>.>.>.>.>.>.>.>.>.>.>.>.>.>.>.>.>.>.>.>.>.>.>.>.>.>.>.>.>.>.>.>.>.>.>.>.>.>.>.>.>.>.>.>.>.>.*.^ ^ ^ Q ",
"D E ^ *.*.:.>.>.>.>.>.>.>.>.>.>.>.>.>.>.>.>.>.>.>.>.>.>.>.>.>.>.>.>.>.>.>.>.>.>.>.>.>.>.>.>.>.>.>.>.>.>.>.>.>.>.>.>.>.>.>.>.>.>.>.>.>.>.>.>.>.>.>.>.>.>.>.>.>.>.>.>.>.>.>.>.>.>.=.^ ^ W D ",
"d D ^ *.;.>.>.>.>.>.>.>.>.>.>.>.>.>.>.>.>.>.>.>.>.>.>.>.>.>.>.>.>.>.>.>.>.>.>.>.>.>.>.>.>.>.>.>.>.>.>.>.>.>.>.>.>.>.>.>.>.>.>.>.>.>.>.>.>.>.>.>.>.>.>.>.>.>.>.>.>.>.>.>.>.>.>.>.;.*.*.W d ",
"> D ^ =.:.:.>.:.>.>.>.>.>.>.>.>.>.>.>.>.>.>.>.>.>.>.>.>.>.>.>.>.>.>.>.>.>.>.>.>.>.>.>.>.>.>.>.>.>.>.>.>.>.>.>.>.>.>.>.>.>.>.>.>.>.>.>.>.>.>.>.>.>.>.>.>.>.>.>.>.>.>.>.>.>.>.>.:.>.:.*.W d ",
"f P ^ *.*.*.*.*.>.>.>.>.>.>.>.>.>.>.>.>.>.>.>.>.>.>.>.>.>.>.>.>.>.>.>.>.>.>.>.>.>.>.>.>.>.>.>.>.>.>.>.>.>.>.>.>.>.>.>.>.>.>.>.>.>.>.>.>.>.>.>.>.>.>.>.>.>.>.>.>.>.>.>.>.>.=.*.*.*.*.^ W d ",
"k D W W E W ^ *.:.>.>.>.>.>.>.>.>.>.>.>.>.>.>.>.>.>.>.>.>.>.>.>.>.>.>.>.>.>.>.>.>.>.>.>.>.>.>.>.>.>.>.>.>.>.>.>.>.>.>.>.>.>.>.>.>.>.>.>.>.>.>.>.>.>.>.>.>.>.>.>.>.>.>.>.>.*.^ Q W W W D A ",
"U d d d S d E *.:.>.>.>.>.>.>.>.>.>.>.>.>.>.>.>.>.>.>.>.>.>.>.>.>.>.>.>.>.>.>.>.>.>.>.>.>.>.>.>.>.>.>.>.>.>.>.>.>.>.>.>.>.>.>.>.>.>.>.>.>.>.>.>.>.>.>.>.>.>.>.>.>.>.>.>.>.=.~ D A x d d F ",
"N 1 + s x W ~ *.>.>.>.>.>.>.>.>.>.>.>.>.>.>.>.>.>.>.>.>.>.>.>.>.>.>.>.>.>.>.>.>.>.>.>.>.>.>.>.>.>.>.>.>.>.>.>.>.>.>.>.>.>.>.>.>.>.>.>.>.>.>.>.>.>.>.>.>.>.>.>.>.>.>.>.>.>.=.^ W D d = < y ",
"Z 9   : D ^ *.*.:.>.>.>.>.>.>.>.>.>.>.>.>.>.>.>.>.>.>.>.>.>.>.>.>.>.>.>.>.>.>.>.>.>.>.>.>.>.>.>.>.>.>.>.>.>.>.>.>.>.>.>.>.>.>.>.>.>.>.>.>.>.>.>.>.>.>.>.>.>.>.>.>.>.>.>.>.=.*.^ E s @ 5 B ",
"Z 9   : D ^ =.:.>.>.>.>.>.>.>.>.>.>.>.>.>.>.>.>.>.>.>.>.>.>.>.>.>.>.>.>.>.>.>.>.>.>.>.>.>.>.>.>.>.>.>.>.>.>.>.>.>.>.>.>.>.>.>.>.>.>.>.>.>.>.>.>.>.>.>.>.>.>.>.>.>.>.>.>.>.:.:.*.E s O 5 B ",
"Z 9   : D ^ ;.>.>.>.>.>.>.>.>.>.>.>.>.>.>.>.>.>.>.>.>.>.>.>.>.>.>.>.>.>.>.>.>.>.>.>.>.>.>.>.>.>.>.>.>.>.>.>.>.>.>.>.>.>.>.>.>.>.>.>.>.>.>.>.>.>.>.>.>.>.>.>.>.>.>.>.>.>.>.>.:.^ E s O 5 B ",
"C q O f x ^ =.>.>.>.>.>.>.>.>.>.>.>.>.>.>.>.>.>.>.>.>.>.>.>.>.>.>.>.>.>.>.>.>.>.>.>.>.>.>.>.>.>.>.>.>.>.>.>.>.>.>.>.>.>.>.>.>.>.>.>.>.>.>.>.>.>.>.>.>.>.>.>.>.>.>.>.>.>.>.>.:.*.E d = * m ",
"b j j d D ^ :.>.>.>.>.>.>.>.>.>.>.>.>.>.>.>.>.>.>.>.>.>.>.>.>.>.>.>.>.>.>.>.>.>.>.>.>.>.>.>.>.>.>.>.>.>.>.>.>.>.>.>.>.>.>.>.>.>.>.>.>.>.>.>.>.>.>.>.>.>.>.>.>.>.>.>.>.>.>.>.:.^ E d d j k ",
"h D E E W ^ *.>.>.>.>.>.>.>.>.>.>.>.>.>.>.>.>.>.>.>.>.>.>.>.>.>.>.>.>.>.>.>.>.>.>.>.>.>.>.>.>.>.>.>.>.>.>.>.>.>.>.>.>.>.>.>.>.>.>.>.>.>.>.>.>.>.>.>.>.>.>.>.>.>.>.>.>.>.>.>.:.*.~ P E D x ",
"s D *.*.*.*.;.>.>.>.>.>.>.>.>.>.>.>.>.>.>.>.>.>.>.>.>.>.>.>.>.>.>.>.>.>.>.>.>.>.>.>.>.>.>.>.>.>.>.>.>.>.>.>.>.>.>.>.>.>.>.>.>.>.>.>.>.>.>.>.>.>.>.>.>.>.>.>.>.>.>.>.>.>.>.>.:.*.*.*.*.E j ",
"> P ^ *.:.:.:.>.>.>.>.>.>.>.>.>.>.>.>.>.>.>.>.>.>.>.>.>.>.>.>.>.>.>.>.>.>.>.>.>.>.>.>.>.>.>.>.>.>.>.>.>.>.>.>.>.>.>.>.>.>.>.>.>.>.>.>.>.>.>.>.>.>.>.>.>.>.>.>.>.>.>.>.>.>.>.>.:.;.:.*.W d ",
"> P *.=.>.>.>.>.>.>.>.>.>.>.>.>.>.>.>.>.>.>.>.>.>.>.>.>.>.>.>.>.>.>.>.>.>.>.>.>.>.>.>.>.>.>.>.>.>.>.>.>.>.>.>.>.>.>.>.>.>.>.>.>.>.>.>.>.>.>.>.>.>.>.>.>.>.>.>.>.>.>.>.>.>.>.>.>.:.:.*.W d ",
"> E ^ ;.>.>.>.>.>.>.>.>.>.>.>.>.>.>.>.>.>.>.>.>.>.>.>.>.>.>.>.>.>.>.>.>.>.>.>.>.>.>.>.>.>.>.>.>.>.>.>.>.>.>.>.>.>.>.>.>.>.>.>.>.>.>.>.>.>.>.>.>.>.>.>.>.>.>.>.>.>.>.>.>.>.>.>.>.>.:.*.W d ",
"> P ^ ;.>.>.>.>.>.>.>.>.>.>.>.>.>.>.>.>.>.>.>.>.>.>.>.>.>.>.>.>.>.>.>.>.>.>.>.>.>.>.>.>.>.>.>.>.>.>.>.>.>.>.>.>.>.>.>.>.>.>.>.>.>.>.>.>.>.>.>.>.>.>.>.>.>.>.>.>.>.>.>.>.>.>.>.>.>.:.*.E d ",
"> E ^ ;.>.>.>.>.>.>.>.>.>.>.>.>.>.>.>.>.>.>.>.>.>.>.>.>.>.>.>.>.>.>.>.>.>.>.>.>.>.>.>.>.>.>.>.>.>.>.>.>.>.>.>.>.>.>.>.>.>.>.>.>.>.>.>.>.>.>.>.>.>.>.>.>.>.>.>.>.>.>.>.>.>.>.>.>.>.:.*.W d ",
"> P ^ ;.>.:.>.>.>.:.>.:.:.>.>.>.>.>.>.>.>.>.>.:.>.>.>.:.:.>.>.>.>.>.>.>.>.>.>.>.>.>.>.>.>.>.>.>.>.>.>.>.>.>.>.>.>.>.>.>.>.>.>.>.>.>.>.>.>.>.>.>.>.>.>.>.>.>.>.>.>.>.>.>.>.>.>.>.>.:.*.E d ",
"> P ^ *.=.>.>.>.>.;.*.*.;.>.>.>.>.>.>.>.>.>.>.:.>.>.;.*.*.;.>.>.>.>.>.>.>.>.>.>.>.>.>.>.>.>.>.>.>.>.>.;.*.*.;.>.>.>.>.>.>.>.>.>.>.>.>.>.>.>.>.>.>.>.>.>.>.>.>.>.>.>.>.>.>.>.>.>.;.*.^ E d ",
"> P ^ ^ *.;.;.;.>.=.^ ^ =.>.>.>.>.>.:.:.;.:.;.:.;.;.=.^ ^ *.;.:.;.:.;.:.>.:.;.;.>.>.>.>.>.;.;.;.;.;.;.*.^ ^ *.:.;.;.:.;.;.>.:.;.=.:.>.>.>.>.:.:.;.=.:.>.>.>.>.>.>.>.>.>.>.:.;.;.*.^ ^ W d ",
"> E ^ ^ ^ ^ ^ *.:.=.^ ^ =.:.>.:.>.>.;.^ ^ ^ ^ ^ ^ ^ ^ ^ ^ ^ ^ ^ ^ ^ ^ *.>.=.^ ^ ;.:.>.>.:.*.^ ^ ^ ^ ^ ^ ^ ^ ^ ^ ^ ^ ^ ^ =.>.*.^ ^ ;.>.>.>.:.^ ^ ^ ^ =.>.>.>.>.>.>.>.>.>.>.=.^ *.*.^ ^ W d ",
"x W P P W ^ ^ *.:.:.;.;.:.:.=.=.=.*.*.^ ^ ^ ^ ^ ^ ^ W E P W ^ ^ Q P Q ^ =.^ ^ ^ ^ =.=.;.:.W W ^ ^ ^ ^ W P E W ^ ^ W E ~ *.*.^ ^ ^ *.*.=.:.=.E W ^ ^ *.*.*.*.*.>.>.>.>.>.>.*.^ ^ Q D E E W ",
"W W D D E W ~ *.;.-.-.-.-.-.^ ^ ^ ~ Q Q W Q W W Q Q P A D W ^ Q E A W ^ ^ ^ ^ ^ ~ Q ^ *.;.P P W Q W W D S D W ^ Q P D Q ^ ^ ^ ^ ^ Q Q ^ =.*.P D Q W W Q ^ ^ ^ *.*.*.-.-.;.=.~ Q E P P E ^ ",
"Q ^ ^ ^ W S W ^ ^ W L L L P ~ ^ ^ D d x S A S S S S A S W ^ ^ D A A W ^ ^ ^ ^ ^ E D ~ ^ ~ P F S S S S A S Q ^ ~ D A S Q ^ ^ ^ ^ ^ E P ^ ^ ~ S A S S S L Q ^ ^ E D D L P ^ ^ ~ D E ^ ~ ^ ^ ",
"D W ^ ^ W A D E E L j - > S W ^ ^ D s = + + + + + + > S Q ^ ^ D A A D E E E E E D d D E P S g + + + + g D ^ ^ Q S S A D E E E E E S S P E P S > + + : S W ^ ^ D s = g x P E P A E ^ ^ Q P ",
"j L Q Q W A s g g g : o ; A W Q Q D :       . .     = S W Q Q D d > s h J J J J J J j j g g - . . .   : S W Q W S d g > G J J J J J G g g g g +     + A W Q Q P : . - > g s g d D Q ~ E g ",
"7 = L D S A - o o o o 4 < A S S x A :   . . 4 4 X . - A S S S A >   o 1 O.+.+.+.+...*   o o X X 4 X . - A S S S A - o o w +.+.+.+.+. .%     O       + A S S S d , & # o o   @ s x L L f o ",
"8 % - = - - q y y y t 6 q c c c c ) ` y & . 5 5 4   O - - - - - 1 y y B X.o.o.o.o.V 5 X X # 4 5 5 X   @ - - - - - 1 y y V Z o.o.o.o.a & X X X   . r m [ b c c c e 5 0 y y y r < - - - @ $ ",
"9 5 . # X . B &.&.&.o.8 9 i i i B o.&.&.0 X 8 8 6 $ $ X . . .   r &.&.o.i i i i u t 6 6 8 9 8 8 8 6 $ X X .   . . y &.&.o.i i i p u t 5 6 8 9 $ $ X.&.&.Z i i V t 5 a &.&.&.o.7 . . . $ 6 "
};
