/* XPM */
static char *sable_r[] = {
/* columns rows colors chars-per-pixel */
"70 71 33 1 ",
"  c #A25341",
". c #A25441",
"X c #A35441",
"o c #A45543",
"O c #A55743",
"+ c #A55744",
"@ c #A65744",
"# c #A65844",
"$ c #A75A45",
"% c #A85A46",
"& c #A85B46",
"* c #A95B47",
"= c #AA5D47",
"- c #AB5E48",
"; c #AB5E49",
": c #AC5F49",
"> c #AE614B",
", c #AF634C",
"< c #B0634C",
"1 c #B0644C",
"2 c #B1654D",
"3 c #B3674F",
"4 c #B3684F",
"5 c #B4684F",
"6 c #B46850",
"7 c #B46950",
"8 c #B66B51",
"9 c #B76C52",
"0 c #B86E53",
"q c #BA6F54",
"w c #BA7054",
"e c #BA7055",
"r c #BD7357",
/* pixels */
"rrrrrrrrrrrrrrrrrrrrrrrrrrrrrrrrrrrrrrrrrrrrrrrrrrrrrrrrrrrrrrrrrrrrrr",
"rrrrrrrrrrrrrrrrrrrrrrrrrrrrrrrrrrrrrrrrrrrrrrrrrrrrrrrrrrrrrrrrrrrrrr",
"rrrrrrrrrrrrrrrrrrrrrrrrrrrrrrrrrrrrrrrrrrrrrrrrrrrrrrrrrrrrrrrrrrrrrr",
"rrrrrrrrrrrrrrrrrrrrrrrrrrrrrrrrrrrrrrrrrrrrrrrrrrrrrrrrrrrrrrrrrrrrrr",
"rrrrrrrrrrrrrrrrrrrrrrrrrrrrrrrrrrrrrrrrrrrrrrrrrrrrrrrrrrrrrrrrrrrrrr",
"rrrrrrr0644454444rrrrrrrrrrrrrrrrrrrrrrrrrrrrrrrrrrrrrrrrrrrrrrrrrrrrr",
"rrrrrrr6:$$$$$$$;3rrrrrrrrrrrrrrrrrrrrrrrrrrrrrrrrrrrrrrrrrrrrrrrrrrrr",
"rrrrr09>O       $39qrrrrrrrrrrrrrrrrrrrrrrrrrrrrrrrrrrrrrrrrrrrrrrrrrr",
"rrrrq3:$X       X%>5rrrrrrrrrrrrrrrrrrrrrrrrrrrrrrrrrrrrrrrrrrrrrrrrrr",
"rrreq:            O<eqrrrrrrrrrrrrrrrrrrrrrrrrrrrrrrrrrrrrrrrrrrrrrrrr",
"rre5>$            O%<6qrrrrrrrrrrrrrrrrrrrrrrrrrrrrrrrrrrrrrrrrrrrrrrr",
"rr6;               OO:qrrrrrrrrrrrrrrrrrrrrrrrrrrrrrrrrrrrrrrrrrrrrrrr",
"rr6=                 :0rrrrrrrrrrrrrrrrrrrrrrrrrrrrq64369rrrrrrrrrrrrr",
"rr9=                 >0rrrrrrrrrrrrrrrrrrrrrrrrrrrr6:$$$3errrrrrrrrrrr",
"rr6;                 >0rrrrrrrrrrrrrrrrrrrrrrrrrrrr6=  X>9rrrrrrrrrrrr",
"rr5=                 :wrrrrrrrrrrrrrrrrrrrrrrrrrrrr6$  X>wrrrrrrrrrrrr",
"rr6:X                >0rrrrrrrrrrrrrrrrrrrrrrrrrrrr6=O O>wrrrrrrrrrrrr",
"rr3=X                ;0rrrrrrrrrrrrrrrrrrrrrrrrrrrr033>15rrrrrrrrrrrrr",
"rr0= X             X >0rrrrrrrrrrrrrrrrrrrrrrrrrrrrreerererrrrrrrrrrrr",
"rr03=O             O;50rrrrrrrrrrrrrrrrrrr04335550errrrrrrrrrrrrrrrrrr",
"rre04;           XO>9wrrrrrrrrrrrrrrrrrrrr5%+$%+%3errrrrrrrrrrrrrrrrrr",
"rrrrq3$O        XO=4r90596errrrrrrrrrrrq05:O    X%60errrrrrrrrrrrrrrrr",
"rrrrq95:O     XX$>39r3>==:6rrrrrrrrrrrr03:%X    XO=,0rrrrrrrrrrrrrrrrr",
"rrrrrrr3$O OXOXO;5rr03OX O3e9rrrrrrrrrr0;       X  =6rrrrrrrrrrrrrrrrr",
"rrrrrrr65>3>,,,>3906<%X  X;>3rrrrrrrrrrq>XX        =5rrrrrrrrrrrrrrrrr",
"rrrrrrrrrereewerrre>  X   XX,0rrrrrrrrrq:          =5rrrrrrrrrrrrrrrrr",
"rrrrrrrrrrrrrrrrrr0<        >9rrrrrrrrr0:         X=6rrrrrrrrrrrrrrrrr",
"rrrrrrrrrrrrrrrrrr0>        ,qrrrrrrrrr0:         X:9rrrrrrrrrrrrrrrrr",
"rrrrrrrrrrrrrrrrrrq3$O    $$30rrrrrrrrrq3%O      O%>0rrrrrrrrrrrrrrrrr",
"rrrrrrrrrrrrrrrrrrr55:O XX;77qrrrrrrrrrr54;O     $36errrrrrrrrrrrrrrrr",
"rrrrrrrrrrrrrrrrrrrrr3%Oo$,rrrrrrrrrrrrrrr3OOXOOX3rrrrrrrrrrrrrrrrrrrr",
"rrrrrrrrrrrrrrrrrrrrr63<,39rrrrrrrrrrrrrrr53<<>3>50rrrrrrrrrrrrrrrrrrr",
"rrrrrrrrrrrrrrrrrrrrrrereerrrrrrrrrrrrrrrqrqqreerrerrrrrrrrrrrrrrrrrrr",
"rrrrrrrrrrrrrrrrrrrrrrrrrrrrrrrrrrrrrrrrrrrrrrrrrrrrrrrrrrrrrrrrrrrrrr",
"rrrrrrrrrrrrrrrrrrrrrrrrrrrrrrrrrrrrrrrrrrrrrrrrrrrrrrrrrrrrrrrrrrrrrr",
"rrrrrrrrrrrrrrrrrrrrrrrrrrrrrrrrrrrrrrrrrrrrrrrrrrrrrrrrrrrrrrrrrrrrrr",
"rrrrrrrrrrrrrrrrrrrrrrrrrrrrrrrrrrrrrrrrrrrrrrrrrrrrrrrrrrrrrrrrrrrrrr",
"rrrrrrrrrrrrrrrrrrrrrrrrrrrrrrrrrrrrrrrrrrrrrrrrrrrrrrrrrrrrrrrrrrrrrr",
"rrrrrrrrrrrrrrrrrrrrrrrrrrrrrrrrrrrrrrrrrrrrrrrrrrrrrrrrrrrrrrrrrrrrrr",
"rrrrrrrrrrrrrrrrrrrrrrrrrrrrrrrrrrrrrrrrrrrrrrrrrrrrrrrrrrrrrrrrrrrrrr",
"rrrrrrrrrrrrrrrrrrrrrrrrrrrrrrrrrrrrrrrrrrrrrrrrrrrrrrrrrrrrrrrrrrrrrr",
"rrrrrrrrrrrrrrrrrrrrrrrrrrrrrrrrrrrrrrrrrrrrrrrrrrrrrrrrrrrrrrrrrrrrrr",
"rrrrrrrrrrrrrrrrrrrrrrrrrrrrrrrrrrrrrrrrrrrrrrrrrrrrrrrrrrrrrrrrrrrrrr",
"rrrrrrrrrrrrrrrrrrrrrrrrrrrrrrrrrrrrrrrrrrrrrrrrrrrrrrrrrrrrrrrrrrrrrr",
"rrrrrrrrrre00werrrrrrrrrrrrrrrrrrrrrrrrrrrrrrrrrrrrrrrrrrrrrrrrrrrrrrr",
"rrrrrrrrr04>>>5errrrrrrrrrrrrrrrrrrrrrrrrrrrrrrrrrrrrrrrrrrrrrrrrrrrrr",
"rrrrrrrrr6;XXX>9rrrrrrrrrrrrrrrrrrrrrrrrrrrrrrrrrrrrrrrrrrrrrrrrrrrrrr",
"rrrrrrr04>O XX$>4errrrrrrrrrrrrrrrrrrrrrrrrrrrrrrrrrrrrrrrrrrrrrrrrrrr",
"rrrrrrr5%OO    O:6rrrrrrrrrrrrrrrrrrrrrrrrrrrrrrrrrrrrrrrrrrrrrrrrrrrr",
"rrrrrrr4O       =5rrrrrrrrrrrrrrrrrrrrrrrrrrrrrrrrrrrrrrrrrrrrrrrrrrrr",
"rrrrrre3$       =5rrrrrrrrrrrrrrrrrrrrrrrrrrrrrrrrrrrrrrrrrrrrrrrrrrrr",
"rrrrrrr3%O     O-5r0qqqqe0qqerrrrrrrrrrrrrrrrrrrrrrrrrrrrrrrrrrrrrrrrr",
"rrrrrrr05:O   %>50r5>>>>,>>>3qrrrrrrrrrrrrrrrrrrrrrrrrrrrrrrrrrrrrrrrr",
"rrrrrrrrr5=   :0rr0<        ,9rrrrrrrrrrrrrrrrrrrrrrrrrrrrrrrrrrrrrrrr",
"rrrrrrrrr63=>:3005>=        =,7errrrrrrrrrrrrrrrrrrrrrrrrrrrrrrrrrrrrr",
"rrrrrrrrrr00000r5<OX        XX>4rrrrrrrrrrrrrrrrrrrrrrrrrrrrrrrrrrrrrr",
"rrrrrrrrrrrrrrw6<O            +<00rrrrrrrrrrrrrrrrrrrrrrrrrrrrrrrrrrrr",
"rrrrrrrrrrrrrr6>%             OO>5rrrrrrrrrrrrrrrrrrrrrrrrrrrrrrrrrrrr",
"rrrrrrrrrrrrrr3%                +<rrrrrrrrrrrrrrrrrrrrrrrrrrrrrrrrrrrr",
"rrrrrrrrrrrrrr3O                O3rrrrrrrrrrrrrrrrrrrrrrrrrrrrrrrrrrrr",
"rrrrrrrrrrrrrr1O                O<rrrrrrrrrrrrrrrrrrrrrrrrrrrrrrrrrrrr",
"rrrrrrrrrrrrrr3%                O3rrrrrrrrrrrrrrrrrrrrrrrrrrrrrrrrrrrr",
"rrrrrrrrrrrrrr<O                O3rrrrrrrrrrrrrrrrrrrrrrrrrrrrrrrrrrrr",
"rrrrrrrrrrrrrr5=%O            O$>3rrrrrrrrrrrrrrrrrrrrrrrrrrrrrrrrrrrr",
"rrrrrrrrrrrrrr063%            +<60rrrrrrrrrrrrrrrrrrrrrrrrrrrrrrrrrrrr",
"rrrrrrrrrrrrrrrr5>OX        OO>6rrrrrrrrrrrrrrrrrrrrrrrrrrrrrrrrrrrrrr",
"rrrrrrrrrrrrrrrr05>%        %>50rrrrrrrrrrrrrrrrrrrrrrrrrrrrrrrrrrrrrr",
"rrrrrrrrrrrrrrrrrr0>        >0rrrrrrrrrrrrrrrrrrrrrrrrrrrrrrrrrrrrrrrr",
"rrrrrrrrrrrrrrrrrrq5>:>::>:>5errrrrrrrrrrrrrrrrrrrrrrrrrrrrrrrrrrrrrrr",
"rrrrrrrrrrrrrrrrrrr0000000000rrrrrrrrrrrrrrrrrrrrrrrrrrrrrrrrrrrrrrrrr",
"rrrrrrrrrrrrrrrrrrrrrrrrrrrrrrrrrrrrrrrrrrrrrrrrrrrrrrrrrrrrrrrrrrrrrr"
};
