/* XPM */
static char *terre_r[] = {
/* columns rows colors chars-per-pixel */
"69 62 76 1 ",
"  c #205261",
". c #275C70",
"X c #614141",
"o c #614241",
"O c #634443",
"+ c #644544",
"@ c #654846",
"# c #664947",
"$ c #674B49",
"% c #684C4A",
"& c #6A4F4C",
"* c #6A504D",
"= c #6C524F",
"- c #70475E",
"; c #685050",
": c #6B5453",
"> c #6D5450",
", c #6F5B59",
"< c #715F5C",
"1 c #534961",
"2 c #554C63",
"3 c #544B64",
"4 c #595369",
"5 c #58506C",
"6 c #5C576C",
"7 c #5A5370",
"8 c #5C5673",
"9 c #724B61",
"0 c #775266",
"q c #795669",
"w c #605D78",
"e c #65597F",
"r c #63617B",
"t c #7A7373",
"y c #7B7574",
"u c #7E757A",
"i c #826E6C",
"p c #84726F",
"a c #336A83",
"s c #3E6F84",
"d c #38728F",
"f c #2F6794",
"g c #265CA1",
"h c #3759A1",
"j c #375AA1",
"k c #395DA3",
"l c #3A5EA4",
"z c #2C64AC",
"x c #3066AC",
"c c #3C61AC",
"v c #3B7ACF",
"b c #3D7CCF",
"n c #3E7DCF",
"m c #3D7EDB",
"M c #4670C3",
"N c #4479C4",
"B c #4C77CF",
"V c #427FCF",
"C c #4C78D0",
"Z c #4E7BD2",
"A c #4F7CD3",
"S c #8D7382",
"D c #579BC9",
"F c #599ECD",
"G c #4A82D0",
"H c #4E83D0",
"J c #7AA9CB",
"K c #6AB4EC",
"L c #75B9ED",
"P c #808080",
"I c #B2AAAA",
"U c #B3ABAB",
"Y c #B5AFAE",
"T c #8DC2EE",
"R c #98C6EF",
"E c gray80",
/* pixels */
"EY<>>*#OXXX+*=>>>>>>>>>&+oo+&>>>>>>>>&$+oooO%>==>=>>==>&OOoo&>>>>rAmf",
"EY<=*$OXXOO#*=>=**&&>>>&+oo+&>>>>>>>&$OXooX#=>===&====>=OoOO&=>>>rAv.",
"EY<*#OXXXO$*==>*$OO+&>>&+oX+&>>>>>>&+OXXoO%&==>&$OO$===&OOoO&=>>>rAv.",
"EY<*#OXXXO*=>=*%Oooo%&=&+oo+$&>>>>>&$OXXOO=====%OXXO$==&$Ooo%==>>rAv.",
"EY<=*$OXO+*=>*#+oooo+#&=*%+o+$&>>>>>&$+XoO&==*$OooXoX#==&&OoO$==>rAv.",
"EY<>>*#OXO%**%OXooXXo+&>>&+oXo$&&&=>>&$OoO%&*$OXooXXOO&>>&+oOo%%*wAb.",
"Pyp>>=*$OXO++OXXoooooo&>>&+oXo++O$&>>&&$OoOOOOXXooXXoO&>>&oooooOO7Cv.",
"Pyp>>>>*#O+++++Oooooo+&>>&%ooXXXXX>>>>>&$OO$OOOOooXXoo&=>&%oooooX7Cv.",
"Pyp>>>>=*%=**=*%+oooo+&>==*$+oo+X+&>>>>=&&&&=%*$ooXXO+==>>&%OXXXX5Cv.",
"Pyp>>>>>==>>===*@Oooo+*>==*$ooo+X+&>>>>>>>>>>>==%oOXXO&=>&&%OXOOX4Mnd",
"Pyp>>>>>=>>>====$$Ooo+&===$+o+#$++&>>>>>>>>>=>==%%OOXO==>&%Ooo%%o2cvF",
"Pyp>>>>>>>>>==*==$Oooo@==#oo++**++&>>>>>>>>>===&*%XXXX$&&%ooO%&%o1hGL",
"Pyp=*==>>>==>*$OOOooooo+++o+#*=*++&>>>>>>>>>>=$OooooOXOOOXO+%>=%+2jGT",
"Pyp***=>>====%OOooO+++++ooo+&>>*#$%&&&=>>>>=&%OXooo#++OOXXo+%>==@2jHR",
"EI=++$==>>=*$OoooO@====@+oo+&>>*&%#O+#&>>>>&#OXXoO%*=&%%OOXO&>>=&4kHR",
"EI*ooO$**===#OOO+@======++++**==>&OXOO$&&&=&#O++O$*=>>=&#OO$%&=>=4cHR",
"EI;ooooOO$&>&&&&&&>>>>>==***+#&=>&ooooO+#O*===%=*&=>>>>&&&&$+$&>:4cHR",
"EI;ooooooO$&>>>>>>&&>>>>>>=*##&&&$+oXooooO$=====>>&&>>>>>>>&$+%&*4kHR",
"EI=oXXooooo$&>>>>*##&>>>>>>=**+++oooXXooooOO*===>*$#&>>>>>>>&$$O+2jHR",
"EI>#OOOXoooo$*>&&$++&>>>>>>>=*+oo#+++o+OoooO$*==&$OO&>>>>>>>>&+X+2jNJ",
"EY,=*=*%OoooO$**$OoO&>>>>>>>=*++$&&&>>$$OoooO#*=$Oo+&>>>>>>>>&++%4kzs",
"EY<>=>=*$OoooO%=OXXO$&=>==>>==++&>>>>>*>$OooOO**+ooo$&>>>>>>>&++*6lg.",
"uyp>>>==*$oooO*%+XoXO$&=======O+&>>>>>>**$OooO=$+oXX++>>>>>>>&++*6kg ",
"Pyp>>>>==*OoO+**$OoooO$&**=*=$O#&>>>>>>>>%OoOO$=$OXXo+$&&&&&&%+$*7lf ",
"Pyp=>>>>>*OooO*=&$OXOXX+++++O+=*>>>>>>>>==OooO*=*%+XXX++++O++#$&=6kg ",
"Pyp>>>>>>=OoOO*=>&$O++++++XXO#*=>>>>>>>>=%OOOO===*+++++++OXX+#&>=6kf ",
"Pyp>>>>==*OooO=>>&&&=&%==#+X%==>>>>>>>>>==OooO*=====%=**&%OX%&>>=6xx ",
"Pyp>>>>=*$OOO$=>>>>>>>=>==#$=>>>>>>>>>>>*$OOo#==>=====>>>&$$&>>>=6cx.",
"Pyp>>>>=#OOO$==>>>>>>>=>===*==>>>>>>>>>&O+OO%==>>>>>>>>>>=&==>>>>6cxF",
"Pyp>>>=*OoXO%=>>>>>>>>==%=%===>>>>>>>>>&OooO*>>>>>>>>>>=*%&%=>>>>6jnK",
"EY<>>>>*OooO====>>>>>>>=#O+$====>>>>>>>&OOO+*=>>>>>>>>>*#+O$&>>>=6cnK",
"EY<>>>=%OooO*===>>>>>>>&OXOO*===>>>>>>&$OXXO==>>>>>>>>>*+XO+&>>>*6cnK",
"EY<>&&#OXXX+&>>>==>*>>>&OoO+=>>>>>>>>&%oXXX+*=>>>==>==>*Oooo*>>>>6cGK",
"EY<=&$OXXX+#&>>>=&=&=>>&OooO=>>>>>>=&$ooXX+$=====***==>=OoO+&=>>=6cxD",
"EY<&%OoXX+%&>>>&+++$===&+OoO$==>>>>&#+ooXX%&==>*#++#===*OooO*=>>=6kza",
"EY<%%OoXX+$>>>&%+ooo$===$OoO$===>>>&#+ooX+*>===$+XX+$==*$OoO$==>=6kg ",
"EY<=&$OXX+&>>&%+ooooo$&==#OoOO>=>>>>&%+XX+&=>%%OXXXoX+==&$+oO$*=*6cg ",
"EY<>>&$OXO$&%%oXooooo+&>=&OooO$&&&>>>&%oX+%&&%XXXOooXO*=>&+o+o$$%4kg ",
"Syp>>>&$OXO+++XXXXoXoO=>=$OoooOO+#&>>&&%XXO++OXXXoooXO*=>=Oooo++O2jg ",
"Pyp>>>>&$+++++++oXXXoO&>>=$OooooX+&>>>>&%+++++OOOoooOX*=>$$oooooo1jg ",
"Pyp>>>>>&&&&&&&%ooXXX#&>>=&$OoooX+&>>>>=&&&&&&&%ooXXO+==>>&$+oooO1jg ",
"Pyp>>>>>>>>>>>>&#oooXo&>>=*$OoOOX+&>>>>>>>>>>>>&#oOXXO==>=&$+o+oX1jza",
"Pyp>>>>>>>>>>>>>>#+oX#&>>&$ooO$$++&>>>>>>>>>>>>==%OXXO%=>=#XXO%#O2xxD",
"Pyp>>>>>>>>>>>&&&#+XXo#&&$OoO$&*++&>>>>>>>>>>>&&*#oooO$==#OoO$&&O1knK",
"Ptp=>>>>>>>>>&#+++ooXoo#Ooo+$&=&++&>>>>>>>>>>&%OOoooOXO+OXOO$&>&O1jnK",
"Ptt&**=>>>>&&%oXXoo++++oooo+&>>&$+%&&&>>>>>>&%OXooo#+OO+XoOO%>>&#2jGL",
"EI=@@@*>>>>&%ooXXo$&&&&$Ooo+&=>=&%#++$&>>>>&%+XXoo%*=%&%OOOO&>>=*4kGT",
"EI;ooo$*&&>&##+++%&>>>>&$++O&*>>>&+XX+$&&&&&+++++$*=>==%#OO$%&=>=6cHR",
"EI*oooOOO#******&&==>>>====$$#&*=*ooooO+OO*===*=**=>>>>&&&&$#$&>=6kHR",
"EI*oooooXO#*====>>&&=>>>===&$O&&*#OoooooOO%====>>=&*>>>>>>>&$+$&*4kHR",
"EI;XooXOOoo#====>&##&>>>>>==**OO$oOoooooooOO*===>*##&>>>>>>>&&++O2kHR",
"EU:O#OO+oooO%===&$++&=>>>>===>+OOO+OOo+OoooO%*==*%OO&>>>>>>>>&+XX2jHR",
"EY,****#ooooO#**#+X+&>>>>>====OO$***==%%OOooO#=%#+o+&>>>>>>>>&+O$4kHR",
"EY<>>*>*#oooOO**+XX+$&=>>>====#O*=>=>>==#OooOO%*+ooo$&>>>>>>>&++*6kGT",
"Syy>>>>==#OOo#%=+XXXo$=>>====*OO*>>>>>===#OoXO**+ooX++>>>>>>&&++*6kGL",
"Pyp=>>>>=*OooO%*#+Xooo$&=====$O%*>>>=====*OoXO**#+oXo+$&&&&&&&+$*4knK",
"pyp>>>>>=*+oo+*=&%+oooo+o#+++#%&>>>>>>>>>*+XX+*=&$+XXX+++++++#%&*6cnK",
"Pyp>>>>>=*ooo+*=>&++++++#oooo#&>>>>>>>>>=*+XX+==>&$+++++++XX+#&=>6knK",
"Ppp>>>>>=*OooO*>>>&&=&&&&%o+%&=>>>>>>>>>>*+XO+*====&&&&&&%OO%&>=>6knK",
"Pup>>>>==$Ooo$*>>>>>>>>>>&##=>>>>>>>>>>>*$+XO#*=>=>>>;>>>&##&>>>:6kbK",
"Pup,>>>*%oo#$*>>>>>>>>>>>=&&=>>>>>>>>>>*$+X+$==>>>>>>>>>>>&&>>>>:6cbK",
"PpSqqqqq----0qqqqqqqqqqqqqqqqqqqqqqqqqq0----0qqqqqqqqqqqqqqqqqqqqecbK"
};
