/* XPM */
static char *spr_chest[] = {
/* columns rows colors chars-per-pixel */
"32 32 11 1 ",
"  c #181425",
". c #2F2C3E",
"X c #412431",
"o c #6C3333",
"O c #575970",
"+ c #874A41",
"@ c #BD7152",
"# c #DC845F",
"$ c #A2A5AE",
"% c #B8BDCD",
"& c None",
/* pixels */
"&&&&&&&&&&&&&&&&&&&&&&&&&&&&&&&&",
"&&&&&&&&&&&&&&&&&&&&&&&&&&&&&&&&",
"&&&&&&&&&&&&&&&&&&&&&&&&&&&&&&&&",
"&&&&&&&&&&&&&&&&&&&&&&&&&&&&&&&&",
"&&&&&&&&&&&&&&&&&&&&&&&&&&&&&&&&",
"&&&&&&&&&&&&&&&&&&&&&&&&&&&&&&&&",
"&&&&&&&&&&&&&&&&&&&&&&&&&&&&&&&&",
"&&&&&&&&&&&&&&&&&&&&&&&&&&&&&&&&",
"&&&&&&&&&&&&&&&&&&&&&&&&&&&&&&&&",
"&&&&$$XX++++++++++++++++XX$$&&&&",
"&&&$$X@@@@@@@@@@@@@@@@@@@@X$$&&&",
"&&&$$@####################@$$&&&",
"&&&%%X++++++++++++++++++++X%%&&&",
"&&%%@######################@%%&&",
"&&%%@######################@%%&&",
"&&%%@######################@%%&&",
"&&O%%X++++++++++++++++++++X%%O&&",
"&&O$$+@@@@@@@@@@@@@@@@@@@@+$$O&&",
"&&O$$+@@@@@@@@@@@@@@@@@@@@+$$O&&",
"&& O$$o++++++++++++++++++o$$O &&",
"&& O$$o+++++++$%%$+++++++o$$O &&",
"&& OOOooooooo%OOOO%oooooooOOO &&",
"&& .OOOOOOOO.OO..OO.OOOOOOOO. &&",
"&& ..XXooooooO....OooooooXX.. &&",
"&&& .ooo+++++oOOOOo+++++ooo. &&&",
"&&& ..o++++++oooooo++++++o.. &&&",
"&&&& ...................... &&&&",
"&&&&                        &&&&",
"&&&&&                      &&&&&",
"&&&&&&                    &&&&&&",
"&&&&&&&&&&&&&&&&&&&&&&&&&&&&&&&&",
"&&&&&&&&&&&&&&&&&&&&&&&&&&&&&&&&"
};
