/* XPM */
static char *spr_back_front_fence_ending[] = {
/* columns rows colors chars-per-pixel */
"16 16 6 1 ",
"  c #181425",
". c #412431",
"X c #6C3333",
"o c #874A41",
"O c #BD7152",
"+ c None",
/* pixels */
"+++++++OO+++++++",
"+++++++oo+++++++",
"++++++OOOO++++++",
"+++++OOOOOO+++++",
"+++++OOOOOO+++++",
"+++++oOOOOo+++++",
"+++++XooooX+++++",
"+++++oXXXXo+++++",
"+++++oooooo+++++",
"+++++oooooo+++++",
"+++++XooooX+++++",
"+++++XXXXXX+++++",
"+++++.XXXX.+++++",
"+++++ .... +++++",
"+++++      +++++",
"++++++    ++++++"
};
