/* XPM */
static char *spr_fence_Four_intersection[] = {
/* columns rows colors chars-per-pixel */
"16 16 6 1 ",
"  c #181425",
". c #412431",
"X c #6C3333",
"o c #874A41",
"O c #BD7152",
"+ c None",
/* pixels */
"+++++++oo+++++++",
"+++++++OO+++++++",
"++++++OOOO++++++",
"++++++OOOO++++++",
"++++++OOOO++++++",
"++++++oOOo++++++",
"OOOOOoXooXoOOOOO",
"OOOOOooXXooOOOOO",
"ooooo.oOOo.ooooo",
"XXXXX.oOOo.XXXXX",
"++++++XOOX++++++",
"++++++XOOX++++++",
"      .OO.      ",
"       OO       ",
"++++++ OO ++++++",
"+++++++OO+++++++"
};
