/* XPM */
static char *spr_front_fence_back_three_intersection[] = {
/* columns rows colors chars-per-pixel */
"16 16 6 1 ",
"  c #181425",
". c #412431",
"X c #6C3333",
"o c #874A41",
"O c #BD7152",
"+ c None",
/* pixels */
"+++++++oo+++++++",
"+++++++OO+++++++",
"++++++OOOO++++++",
"++++++OOOO++++++",
"++++++OOOO++++++",
"++++++oOOo++++++",
"OOOOOoXooXoOOOOO",
"OOOOOooXXooOOOOO",
"ooooo.oooo.ooooo",
"XXXXX.oooo.XXXXX",
"++++++XooX++++++",
"++++++XXXX++++++",
"      .XX.      ",
"       ..       ",
"++++++    ++++++",
"+++++++  +++++++"
};
