/* XPM */
static char *spr_front_fence_left_corner[] = {
/* columns rows colors chars-per-pixel */
"16 16 6 1 ",
"  c #181425",
". c #412431",
"X c #6C3333",
"o c #874A41",
"O c #BD7152",
"+ c None",
/* pixels */
"++++++++++++++++",
"++++++++++++++++",
"++++++OOOO++++++",
"+++++OOOOOO+++++",
"+++++OOOOOO+++++",
"+++++oOOOOo+++++",
"+++++XooooXoOOOO",
"+++++oXXXXooOOOO",
"+++++ooOOoo.oooo",
"+++++ooOOoo.XXXX",
"+++++XoOOoX+++++",
"+++++XXOOXX+++++",
"+++++.XOOX.     ",
"+++++ .OO.      ",
"+++++  OO  +++++",
"++++++ OO ++++++"
};
