/* XPM */
static char *spr_boulder3[] = {
/* columns rows colors chars-per-pixel */
"32 32 7 1 ",
"  c #181425",
". c #524F5D",
"X c #505059",
"o c #73757C",
"O c #A4A5AA",
"+ c #ADAEB2",
"@ c None",
/* pixels */
"@@@@@@@@@@@@@@@@@@@@@@@@@@@@@@@@",
"@@@@@@@@@@@@@@@@@@@@@@@@@@@@@@@@",
"@@@@@@@@@@@@@ooooooo@@@@@@@@@@@@",
"@@@@@@@@ooooo++++++oooooo@@@@@@@",
"@@@@@@@oo++++++++ooooooooo@@@@@@",
"@@@@@@ooo+++++++ooooooooooo@@@@@",
"@@@@oo+++++++++oooooOOooooo@@@@@",
"@@@o+++oo++++++oo++oOOooo+.@@@@@",
"@@@o+++oo++++++++++oooo+++.@@@@@",
"@@ooo++++++o+++++++++++++..o@@@@",
"@@..oo+o+++++oo+++++++++...o++@@",
"@@oo.oooo++++oo++++++++...o+++@@",
"@@+o.oo.o++ooooo++ooo....o+++oo@",
"@+++oXo.ooooooooooo...ooo+++oo.@",
" ++++o...oo..oo...o.oo+++o++... ",
" .++++o......ooo....++oooooo.++ ",
" ..++o+o..o++++oo....ooooooo.++ ",
" ..ooooo..o+++++++++..+++o...oo ",
"  ..oo++++.+++++++++++++.o...oX ",
"   ..o.+++.++++++++++++o.ooo..  ",
"@   ...ooo.++oo++o++oooo..oX    ",
"@@   ..oo...ooooooooooooo.     @",
"@@@    oo  ..oo..oooo.oo      @@",
"@@@@        .....oo....o     @@@",
"@@@@@        ..oo...oo     @@@@@",
"@@@@@@@@@      oo...o     @@@@@@",
"@@@@@@@@@@@              @@@@@@@",
"@@@@@@@@@@@@          @@@@@@@@@@",
"@@@@@@@@@@@@@@@@@@@@@@@@@@@@@@@@",
"@@@@@@@@@@@@@@@@@@@@@@@@@@@@@@@@",
"@@@@@@@@@@@@@@@@@@@@@@@@@@@@@@@@",
"@@@@@@@@@@@@@@@@@@@@@@@@@@@@@@@@"
};
