/* XPM */
static char *spr_small_chest[] = {
/* columns rows colors chars-per-pixel */
"16 19 11 1 ",
"  c #181425",
". c #2F2C3E",
"X c #412431",
"o c #6C3333",
"O c #575970",
"+ c #874A41",
"@ c #BD7152",
"# c #DC845F",
"$ c #A2A5AE",
"% c #B8BDCD",
"& c None",
/* pixels */
"&&&&&&&&&&&&&&&&",
"&$$oo+X++X+oo$$&",
"$$+@@@o@@o@@@+$$",
"%%@###@##@###@%%",
"%%@###@##@###@%%",
"%%@###@##@###@%%",
"$$+@@@+@@+@@@+$$",
"$$+@@@+@@+@@@+$$",
"O$$o++o++o++o$$O",
"O$$o++o++o++o$$O",
"OOOXoo$$$$ooXOOO",
".OOOOOO..OOOOOO.",
"..XXooOOOOooXX..",
" .oo++XooX++oo. ",
" ..o++o++o++o.. ",
"& ............ &",
"&              &",
"&&            &&",
"&&&          &&&"
};
