/* XPM */
static char *spr_boulder1[] = {
/* columns rows colors chars-per-pixel */
"32 32 5 1 ",
"  c #181425",
". c #56565D",
"X c gray52",
"o c #B4B4B4",
"O c None",
/* pixels */
"OOOOOOOOOOOOOOOOOOOOOOOOOOOOOOOO",
"OOOOOOOOOOOOOOOOOOOOOOOOOOOOOOOO",
"OOOOOOOOOOOOOOOOOOOOOOOOOOOOOOOO",
"OOOOOOOOOOOOOOOOOOOOOOOOOOOOOOOO",
"OOOOOOOOOOOOOOOOOOOOOOOOOOOOOOOO",
"OOOOOOOOOOOOOXXXXXXXXOOOOOOOOOOO",
"OOOOOOOOOOOOXoooooooX.OOOOOOOOOO",
"OOOOOOOOOOOooooooooo..OOOOOOOOOO",
"OOOOOOOOOOOoooooooooX.OOOOOOOOOO",
"OOOOOOOOOOoooooooooXX.oOOOOOOOOO",
"OOOOOOOOOXXXXoooo..XXooOOOOOOOOO",
"OOOOOOOOXXXXX......Xooo  OOOOOOO",
"OOOOOOOoXXXX......XXXooo  OOOOOO",
"OOOOOO ooXXX....XXXXXXXoo OOOOOO",
"OOOOOO oooo...XXXXXXXXoooo  OOOO",
"OOOOOO ..XooXXXXXXXoooooooooOOOO",
"OOOOOO ..XXXXXXXoooooooooooo OOO",
"OOOOOO  ....XXXXXXoooooooo.. OOO",
"OOOOOO   X.XXoooo..XXXXXXX.. OOO",
"OOOOOOO  ..XXXXooo.XXXXX.XX  OOO",
"OOOOOOO     XXXX..XXXXX..X  OOOO",
"OOOOOOOO        .XXXXXX..   OOOO",
"OOOOOOOOO                  OOOOO",
"OOOOOOOOOOO               OOOOOO",
"OOOOOOOOOOOOOO        OOOOOOOOOO",
"OOOOOOOOOOOOOOOOOOOOOOOOOOOOOOOO",
"OOOOOOOOOOOOOOOOOOOOOOOOOOOOOOOO",
"OOOOOOOOOOOOOOOOOOOOOOOOOOOOOOOO",
"OOOOOOOOOOOOOOOOOOOOOOOOOOOOOOOO",
"OOOOOOOOOOOOOOOOOOOOOOOOOOOOOOOO",
"OOOOOOOOOOOOOOOOOOOOOOOOOOOOOOOO",
"OOOOOOOOOOOOOOOOOOOOOOOOOOOOOOOO"
};
