/* XPM */
static char *terre_100x100[] = {
/* columns rows colors chars-per-pixel */
"100 100 69 1 ",
"  c #624342",
". c #664947",
"X c #664748",
"o c #674A48",
"O c #694E4B",
"+ c #6B524E",
"@ c #6C4F50",
"# c #6D5450",
"$ c #705655",
"% c #715955",
"& c #745B5A",
"* c #77605E",
"= c #79615F",
"- c #744A65",
"; c #764A69",
": c #784E6C",
"> c #7A516E",
", c #7A596F",
"< c #7C5572",
"1 c #7E5A75",
"2 c #7F5A78",
"3 c #766462",
"4 c #7C6564",
"5 c #796866",
"6 c #766D6D",
"7 c #7D6B6A",
"8 c #7A7372",
"9 c #7F7E7E",
"0 c #825E7C",
"q c #826D6D",
"w c #826577",
"e c #846974",
"r c #82617D",
"t c #857372",
"y c #887477",
"u c #897977",
"i c #807F7F",
"p c #8A7A79",
"a c #855785",
"s c #855B83",
"d c #875688",
"f c #89538D",
"g c #875A88",
"h c #895A8C",
"j c #8B5690",
"k c #8C5992",
"l c #866482",
"z c #827D80",
"x c #8C6D91",
"c c #9566A0",
"v c #966AA5",
"b c #858484",
"n c #8D8D8D",
"m c #938B8A",
"M c #9D9594",
"N c #A19594",
"B c #A49D9C",
"V c #A68BA9",
"C c #A5A5A5",
"Z c #ADA6A5",
"A c #AFA8A7",
"S c #B5A5B6",
"D c #B2B1B1",
"F c #BCBCBC",
"G c #C0BDBC",
"H c #BAA2C2",
"J c #C6C6C6",
"K c #C9C7C9",
"L c #CBCACA",
/* pixels */
"vcckkkkkkkjjffffdfkkfkjffjffdsfffffrfffffffjadjfffaajgsfffff0fff0fffff:f0fffff0fff0fff0fffd00fff00ff",
"HVl1<<<<0<<:;;;;-,12><rrrr00rrrrrrr2r:;-;-<0r000000r00we0000:0;-@q-000000000we000000000;@q-000-00000",
"KZ5$#$###$@O    .o###+$#$$+X+###+X$@X    Xo+$O#$$O&&&4#%###4      oOqq q q-qOO.qqq  XX     oXXo XX X",
"LZ5####+OOXX     o+#####+$++####+@@OX    .O+++O+#OOO.O++#oXX      .O X XOO. +oo#.Oq.        Xqq0Xq e",
"LZ5#####X        o++####+########o oX     o++#%+#O&4++++           oO###q o+++##O qqX       +###qX+.",
"LZ5####OX        o++########+####@7@X     O+%++##OXO+++&-         .O####O. q####q  qq       O###qO+o",
"LZ5##OOo        oO+##+#+@OOOO+O###7X      +++####+.o++++.         OO####OOOoOOOO .XX@X     o+### q O",
"LZ5##ooX        O++###+OXX...O+##o       .o+#####@&&+++o         qOO####OOo.oooOOO Xq      o++##oOoo",
"LZ5#Oo         X+#####+o     .  #@OO.     .++++###%##+o.        Oq######        qOo.        +######q",
"n9u%OO .      XO###+++O.        @O#Oo     .++++#######O.        .o###O#O           qq.      oOO+##+o",
"98p%++Oo      o@###+Oo.         oO#OOo.    ..O++#####+OOo       oO###OOo        oo O+Oo.    .ooO##+o",
"98p#+++OX    XoO+##Oo.          XO##+++.     O+++##++#+#+oo     o=#+#Oo           oo +q+.      o##OO",
"98p%#+#+o.    Xo  oo            Xo+###+.      oOO+OO+###+Oo      +OO              .OO#%+o       +oOo",
"98p%+###+o..   X  ..            .O####O.        ..OO+####+Oo      o.               .##++o       o.oo",
"98p%###+++o.                    .o#+##O.          .OO+####++                        oO++O.          ",
"98p%####+++o.                   Xo#+##+o           O+####+++o                     oqq ++O.          ",
"98p%###+##++OoOoooOOoOo.        .O####++o.          O+###+##+O.o..OO.OO...        o#%+#++O..        ",
"DM8########++++++++#+++.         O###++##o.        .+########+++++#+++++..        o+####++O.        ",
"LZ5##########+###+###++O.       .O+##++++o         OO+##################+.        o+####++O.        ",
"LZ5#############+####+++o..     .++###+o..    ..   O++##################+O..      .+####O.     . .  ",
"LZ5%#############+##++#++Oo.     O+#+#+.     .oOO  OO#####+##########+##+++O.     .+++#+O      oOo  ",
"LZ5###############+++++++oo.    ..+O++oo    .O++O  .+#################O++++O.     .O+++O..   ..++o  ",
"LZ5###############+++o.o         ...Oo    ..o++O   O+################+O..oO        .OO..   ...O++O  ",
"LZ7################+O  .                 .oO++++O  .O################O.                    .o++++O  ",
"LA5+O++O+##+#####+++.                     o+#+#+o...o+O ++#+######+++o.      ..            .o####Oo ",
"Cm7+  oo+++#####++oo        o.oo....      o#+##+Oo.o... oO++######+oo .     ..... ....      O####+O.",
"95to    O###+#+++o.        .O+O+#+Oo      o+####++Oo.   ..O+######+..       .oO+++++O.     .O###+O+q",
"96q.    oo+#+++++o.       oO#######+     .O++++###+.     .O+#O+###o.       .o+####+##o     .O++#+o q",
"96q.    .oXX.o+++Ooooooo..OO#####+#+....o.ooo++###+o      . O.o+##Oo........+#######+O..ooo.ooO++#+.",
"96q.     X   Xo++++++O+#+++########++++++o. .o+###+o           .O##++O++oOO++########++OO+Oo..oO##+O",
"96q.          .O+++++++###+++#+######+#+#+o  o+++++o           ..++++###+###+++++##########O. .o+++O",
"96qo           oO+++######+oOO++########+++oooooooo             .OO+#######++oO++#########+Oo..oOOO.",
"i87o            .O+#+###+#+..oO###########++O. .                   O#######+o .o+#########++OOo.  . ",
"Np5O             oO++###+O.. .O#############+o                     oO###+#+O.  .+#####+#######O     ",
"LZ%+ ..o         .oOO##OOo.  .O#############+o   ....... ...        oo##+oo.   .+#########+###o.   .",
"LZ3#Oo+OOO         .O+Oo.     o############+O.  .O++Oo++O+O+        ..O#+...    +##+##########o.    ",
"LZ3##+##++Oo.       oO#o.     .++###########+o  .++##+#++#++..       .o+Oo      +++###########O. .O#",
"LZ5#######++o       oO++       ooO##########+o  .O##########O. .     .o#O.      .O++##########O   O#",
"LA5#######+++o..    o++o        .+#######+#++.  o+##########++oo      o#O.      ..o+##########O. .o#",
"LA5#######++#+o     oOO         ..##O####++++. .O+##########+++o      o#+.        .O##+###+##O.. oO#",
"LA5%#########Oo       oo..      ..oooooooooOo...O+############+O      o##o..       oooo+ooooOO....+#",
"FB5##########+o       +O++..     .... .......o+O++############++      .+++oo       .. ... ......OO##",
"u8u%#########+.     o+##++..                 o+#++############+O      o####+                   O####",
"i8p%#########+.     oO##++++ .. . ....     ..+###############++O      o####Oo... .. . ..    ...O####",
"i8p%#######+++o     .O##+++++o++oo+Oo+o.  .o+++################O.     O####OO+oOOO+oOO+o   ..o+#####",
"i8u%#######++Oo     oO+#####+++##++++++.  ++++################+O     .O################+o  .o#######",
"i8u%#######+Oo    .oO++#####+######+##+o..o+################+OOo    ..O################+O...+#######",
"i8u%#####++oo     o+++################++oo+###############++O..   .oOOO#######+########++OO+########",
"i8p%#####++.    ..o############+###+#++++++################+O.     o##+################+##++########",
"b8p%######+.     oO++##############+++Ooo++######+##########O.     o################+OOOOOO++#######",
"JZ5%######+o     o++###########+##++o.  .o+################+.      O################+O....oOO#######",
"LA5###++##+.     o+###############+o.    .o+##############++o     .o######+#########+o     .O#######",
"LZ5###++.       .o++###############o.     o+####+#+#####++o ..     OO###############OO      O#######",
"LZ5###++o        oO+#####+#########+.     o+++##########++o        O####+ +#######+#+O      +#######",
"LZ5####+.        o++##+#+#++++#####O      o+###########++o        .O####Oq#####+####OO      O#######",
"LZ5###+..       oo+###+++++o+++####O     .o+#########+++o.       ..O####+#OOO+O++###O.     .o#######",
"LZ5#+...        +++###++... oo++##+o.     O+########++O...      .OOO####O.   . .+###+O     .oq######",
"LZ5#O.        ..+#+###+o     .O++##O.     o+++#######+O.        OOO##qO.O.      +#+#+O     .o ######",
"niu%OO.       .+##+++++.     . o++#+..      ++++#####+..        O#####O..       ++O++o .     O++####",
"98i#O+O.      .+##++Oo.         .+#+o..     oO++#####+++o.     .O+###OO.        ..O++OO.     OoO####",
"i8u%##+O.     .+#+++            .O+##+o.     O++#++##++++o      O+###O            .+#+#+o     .O####",
"i8u%+##++     .OOo+o            .++##+Oo     .o+++++++##++.     .OO+O             o+###+o     .oOOO+",
"i8u%###++..    .                .o+##++.     .....o+++##++O.    .....             .+###+.      ....o",
"i8u%###+++O                     .O+##++.          .o++###+++o                     .+###+.           ",
"i8u%######Oo.   .. .  .         .O+##OOo.          .++#+##++o.   ..  .              ###+O..         ",
"98u%######++OoO..oooOO.         .O####OOoo          ++######OOOOoOOOoOoo..        ..####OO..        ",
"DM8%#######++++++++++++O        .O+######O.         ++######+#+O+#+O+#O#O.        .O+###+++O        ",
"LZ5###############++##+O.       .O+####+Oo.    .    o##############+##+#+.        o++##+++O.        ",
"LZ5%###########+#+####++        .o####+oo.    oo.  .++#################++O..      .+##++Oo.     o.  ",
"LZ5###################+++       .OO##+O..    ooO.  o++###################++O      .O++++O..     #Oo ",
"LZ5################+++O+OO       oO++O.     o.q#.. o+################+O++++o      .O++++.    ..OOO. ",
"LZ5######+#########++O.o..       ..ooo.     ooo+.  oO+###############+oo.oo.       .....    .OOO#O  ",
"LZ5#################.                     .O+OOOO  o++++#+###########Oo                    .o++##o. ",
"LA5#+O+++##+####+++O.            .       .O+##++O. oO++++++#######++#o.                    .O####Oo ",
"Cm5+oo  ++######+O..       ... ..o..      O####++o.ooo  .O+#######o+oo      ...oo.....      O+###O#o",
"95to    o++##+##+O.        .+O++++#o.     .+#+##++Oo.    o+####+##+o        oOOO++O+O.      O+####OO",
"96t.    o+++++##+o. .  . ..++#####+Oo    ..+O+##+++.     ..+++++##oo       .O#######+O.   ..O+++####",
"967o     oooooO#+Oo.......+++#####+O+o...o..OO##+++O     ...ooOOo##oo.ooo ooO#######++o.oo...OO+#O##",
"i68         . O#++++++++++++#######++++O++...O+++#+O           OO#Oo##ooO#oO#########++++OOo...+####",
"i6to          .O++##+#+#+++++++######+##++. ..OO+++o            o+###########O#+########+++o. .o#O#O",
"968.            o++#######+O.+++#####+###+oo...ooO..            ..OO######++OooO+###+####++Oo...ooOo",
"965.            .o+##+#++#O...+++##########O+. ...               ..O#####+#+o..O##########++#+O.  . ",
"Mp6O   .         .o+++##++O.  O++###########+.                    .o++##+++O.  .+############+O.    ",
"LA%.  ..         ..O++#++..  .+++##########++.    ... .o           .OOO#+Oo..  .+###########++O. . o",
"LZ3#OO+O.O..        .o+O     .O+##########+O+o ..oOO+OOOoOOo.X       .O#+...    +#############O.  oO",
"LA5##+##++O.        .O+O     .O+++###########o  X+####+#++#+O.       .O+O.      +++##########+o. .O#",
"LZ5#######+OO.      .O+.      ..O+##########Oo  .+$+##+####+oOoo      OOo.      .o+######+###+o.  o#",
"LZ5#######++OO.     .++.       .oO+########OOo  o+#+########+++o     .O#+        .o+######+##+O. .o#",
"LZ5#######++##O     oO+O.       .O++O++O++##+. .o+###########++o       o+.        .O+#O#++++++O. oO#",
"LZ5##########+..    o+++..       .OOOOOOOOOOO..OO+##########+++o      .O+o..      ..oOOoOOOoO...ooOO",
"FB5%####+####+.     .O+++...      .  ..  .  ...O+#############++      .#+++o        ... ..   ..OOO@O",
"98p%#########+.    .oO##++O                 .O+##########+###++O     .o++#+O.          .     ..+O#@o",
"98u%########++      oO+###+O ..  O  .      ..O#################O      O###++O... .......   ....+#@#.",
"98p%########+O.     oO###+++ OOO O++OOO.   OO+####+############O      O+##++++oooOOoOooo.  ..OO+#@$q",
"98u%######++++      .O#####++++++#+##+O. .O+#++#########+#####Oo     ..+####+##++#++##+O....+##+@$@X",
"98u%######+OOo      O+##+#####+######++O..O+#################OoX    .OO############+###+o...+###@@@-",
"98p%#######X .    XO@$#################@OO################@#OXXX     X@o@@X@@o@@@@@O@@@@@@@@@@qO@##O",
"b8p%$$$$$#OXX   XX@$#@#$$#@$$###$#$####$######$$###$$###$$@@@X    .. qq .q qqX.q@Xq.q#@@@@##@@X@#@q@",
"bpi8rr000:0:;-;;0::00<>002:s000;00s;2r<2s<122><s<<2<21<sd1>1;2;;;;qq0;0000;000w00000w;:00000;0000;0w",
"KDzpkkffffff0afffffffffjd0ffffffj0ff0fffjffjkfjjsgkjjdsfjjjjfffff00effff0ff0fj00ffjf00fffjjd0f0fff00"
};
