/* XPM */
static char *spr_smallrock2[] = {
/* columns rows colors chars-per-pixel */
"16 16 6 1 ",
"  c #1E4D41",
". c gray35",
"X c #6AAE62",
"o c gray60",
"O c #B6B6B6",
"+ c None",
/* pixels */
"++++++++++++++++",
"++++++++++++++++",
"++++++++++++++++",
"++++++++++++++++",
"++++++++++++++++",
"++++++++++++++++",
"++++++++++++++++",
"++++++++++++++++",
"++++++++++++++++",
"++XXX+++++++++++",
"++XXXXX+++++++++",
"++  XOOOOo++++++",
"+++  ooOoOoXXXX+",
"++++oOOo..XXXX +",
"++++ .o.oXXX   +",
"+++++   XXX   ++"
};
