/* XPM */
static char *spr_wooden_bridge_vertical[] = {
/* columns rows colors chars-per-pixel */
"48 96 12 1 ",
"  c #462734",
". c #422832",
"X c #703535",
"o c #1E4D41",
"O c #294941",
"+ c gray35",
"@ c #874A41",
"# c #3B8360",
"$ c #6AAE62",
"% c gray60",
"& c #B6B6B6",
"* c None",
/* pixels */
"###########################################*****",
"################################################",
"################################################",
"################################################",
"################################################",
"################################################",
"###########@@########################@@#########",
"##########@@@@######################@@@@########",
"##########X@@X######################X@@X#####$$o",
"########## XX ###################### XX ####$$$o",
"##########    ######################    ###$$$oo",
"##########O  O######################O  O##$$$$oo",
"###########XX#########o###o##########  ###$$$$o#",
"#######oooo  oooooooooo###ooooooooo##$$#########",
"#########oXXXXXXXXXXXXo###oXXXXXXXo##$$$$$######",
"#########oX@@@@@@@@@@XoooooX@@@@@@o#ooo$$$$#####",
"#########oX@@@@@@@@@@XXXXXXX@@@@@@o#oooooo######",
"#####oooooX@@@@@@@@@@@@@@@@@@@@@@@o#oo##########",
"#####oXXXXX@@@@@@@@@@@@@@@@@@@@@@@o#############",
"#####oXX@@@@@@@@@@@@@@@@@@@@@@@@@@ooooooooooooo#",
"#####oXXXX@@@@@@@@@@@@@@@@@@@@@@@@@@@@@@@@@@XXo#",
"oooo#ooooX@@@@@@@@@@@@@@@@@@@@@@@@@@@@@@@@XXXo##",
"***o##oo XXXXXXX@@@@@@XXXXXXXXXXX@@@@@XXX oooooo",
"***oooo*                                  ******",
"*********                                *******",
"***********   **********************   *********",
"*********XXXXX@@@@@@@@@XXXXXXXXXXXXXXXXXX*******",
"********X@@@@@@@@@@@@@@@@@@@@@@@@@@@@@@@@X******",
"********@@@@@@@@@@@@@@@@@@@@@@@@@@@@@@@@@@******",
"********@@@@@@@@@@@@@@@@@@@@@@@@@@@@@@@@@@******",
"********@@@@@@@@@@@@@@@@@@@@@@@@@@@@@@@@@@******",
"********X@@@@@@@@@@@@@@@@@@@@@@@@@@@@@@@@X******",
"******** XXXXXXXXXXXXXX@@@@@@@@@XXXXXXXXX ******",
"*********                                *******",
"***********   **********************   *********",
"*********XXX@@@@@@@XXXXXXXXXXXXXXXXXXXXXX*******",
"********X@@@@@@@@@@@@@@@@@@@@@@@@@@@@@@@@X******",
"********@@@@@@@@@@@@@@@@@@@@@@@@@@@@@@@@@@******",
"********@@@@@@@@@@@@@@@@@@@@@@@@@@@@@@@@@@******",
"********@@@@@@@@@@@@@@@@@@@@@@@@@@@@@@@@@@******",
"********X@@@@@@@@@@@@@@@@@@@@@@@@@@@@@@@@X******",
"******** XXXXXXXXXXXXXX@@@@@@@@XXXXXXXXXX ******",
"*********                                *******",
"***********   **********************   *********",
"*********XXXXXXXX@@@@@@@XXXXXXXXXX@@@XXXX*******",
"********X@@@@@@@@@@@@@@@@@@@@@@@@@@@@@@@@X******",
"********@@@@@@@@@@@@@@@@@@@@@@@@@@@@@@@@@@******",
"********@@@@@@@@@@@@@@@@@@@@@@@@@@@@@@@@@@******",
"********@@@@@@@@@@@@@@@@@@@@@@@@@@@@@@@@@@******",
"********@@@@@@@@@@@@@@@@@@@@@@@@@@@@@@@@@@******",
"********X@@@@@@@@@@@@@@@@@@@@@@@@@@@@@@@@X******",
"*********XX@@@XXXXXXXXXXXXXX@@@@@XXXXXXXX*******",
"***********   **********************   *********",
"*********XXXX@@@@@@@@XXXXXXXXXXX@@@@@XXXX*******",
"********X@@@@@@@@@@@@@@@@@@@@@@@@@@@@@@@@X******",
"********@@@@@@@@@@@@@@@@@@@@@@@@@@@@@@@@@@******",
"********@@@@@@@@@@@@@@@@@@@@@@@@@@@@@@@@@@******",
"********@@@@@@@@@@@@@@@@@@@@@@@@@@@@@@@@@@******",
"********@@@@@@@@@@@@@@@@@@@@@@@@@@@@@@@@@@******",
"********X@@@@@@@@@@@@@@@@@@@@@@@@@@@@@@@@X******",
"*********XXXXXXXXXXXXXXXXX@@@@@@XXXXXXXXX*******",
"***********   **********************   *********",
"*********XXXX@@@@@@@@XXXXXXXXX@@@@@@@@XXX*******",
"********X@@@@@@@@@@@@@@@@@@@@@@@@@@@@@@@@X******",
"********@@@@@@@@@@@@@@@@@@@@@@@@@@@@@@@@@@******",
"********@@@@@@@@@@@@@@@@@@@@@@@@@@@@@@@@@@******",
"********@@@@@@@@@@@@@@@@@@@@@@@@@@@@@@@@@@******",
"********X@@@@@@@@@@@@@@@@@@@@@@@@@@@@@@@@X******",
"******** XXXXXXXXXXX@@@@@@@@@XXXXXXXXXXXX ******",
"*********                                *******",
"***********   **********************   *********",
"*********XXXXXXXX@@@@@@@@XXXXXXXXXXXXXXXX*******",
"********X@@@@@@@@@@@@@@@@@@@@@@@@@@@@@@@@X******",
"********@@@@@@@@@@@@@@@@@@@@@@@@@@@@@@@@@@******",
"********@@@@@@@@@@@@@@@@@@@@@@@@@@@@@@@@@@******",
"********@@@@@@@@@@@@@@@@@@@@@@@@@@@@@@@@@@******",
"********X@@@@@@@@@@@@@@@@@@@@@@@@@@@@@@@@X******",
"******** XXXX@@@@@@@@XXXXXX@@@@@@@@XXXXXX ******",
"********                                  ******",
"*********                                *******",
"**... *****   **********************   *********",
".....   XXXXXXXXX@@@@@@@XXXXXXXXX@@@@@@XXXXXX...",
"$$$oo @@@@@@@@@@@@@@@@@@@@@@@@@@@@@@@@@@@@@@@X..",
"$$$$$ @@@@@@@@@@@@@@@@@@@@@@@@@@@@@@@@@@@@@@@Xoo",
"oo$&&&&%@@@@@@@@@@@@@@@@@@@@@@@@@@@@@@@@XXXXXXo#",
"#oo%%&%&%$$$$@@@@@@@XXXXXXXX@@@@@@@@@@@XXoooooo#",
"##%&&%++$$$$o@@@@@@@@XoooooX@@@@@@@@@@@Xoo######",
"##o+%+%$$$oooXXXXXXXXXo###oXXXXXXXXXXXXXo#######",
"###ooo$$$oo  oooooooooo###ooooooooooo  oo#######",
"###########@@########################@@#########",
"##########@@@@######################@@@@########",
"##########X@@X######################X@@X########",
"########## XX ###################### XX ########",
"##########    ######################    ########",
"##########o  o######################o  o########",
"###########oo########################oo#########"
};
