/* XPM */
static char *spr_front_fence[] = {
/* columns rows colors chars-per-pixel */
"16 16 6 1 ",
"  c #181425",
". c #412431",
"X c #6C3333",
"o c #874A41",
"O c #BD7152",
"+ c None",
/* pixels */
"++++++++++++++++",
"++++++++++++++++",
"++++++OOO+++++++",
"+++++OOOOO++++++",
"+++++OOOOO++++++",
"+++++oOOOo++++++",
"OOOOoXoooXoOOOOO",
"OOOOooXXXooOOOOO",
"oooo.ooooo.ooooo",
"XXXX.ooooo.XXXXX",
"+++++XoooX++++++",
"+++++XXXXX++++++",
"     .XXX.      ",
"      ...       ",
"+++++     ++++++",
"++++++   +++++++"
};
