/* XPM */
static char *spr_wooden_bridge_horizontal[] = {
/* columns rows colors chars-per-pixel */
"96 48 9 1 ",
"  c #181425",
". c #462734",
"X c #703535",
"o c #1E4D41",
"O c #294941",
"+ c #874A41",
"@ c #3B8360",
"# c #6AAE62",
"$ c None",
/* pixels */
"@@@@@@@@@@@@o$$$$$$$$$$$$$$$$$$$$$$$$$$$$$$$$$$$$$$$$$$$$$$$$$$$$$$$$$$$$$$$$$$$$$$o@@@@@@@@@@@@",
"@@@@@@@@@@@@o$$$$$$$$$$$$$$$$$$$$$$$$$$$$$$$$$$$$$$$$$$$$$$$$$$$$$$$$$$$$$$$$$$$$$$ooo@@@@@@@@@@",
"@@@@@@@@@@@@oX$$$$$$$$$$$$$$$$$$$$$$$$$$$$$$$$$$$$$$$$$$$$$$$$$$$$$$$$$$$$$$$$$$$XXXXo@@@@@@@@@@",
"@@@@@@@@@@@@oXX$$$$$$$$$$$$$$$$$$$$$$$$$$$$$$$$$$$$$$$$$$$$$$$$$$$$$$$$$$$$$$$$$X+++X###@@@@###@",
"@@@@@@oooooooXX$$$$$$$$$$$$$$$$$$$$$$$$$$$$$$$$$$$$$$$$$$$$$$$$$$$$$$$$$$$$$$$$$X+++Xo###@@###oo",
"@@@++@@oXXXXXXX$$$$$$$$$$$$$$$$$$$$$$$$$$$$$$$$$$$$$$$$$$$$$$$$$$$$$$$$$$$$$$$$$X+++Xo###@@++@oo",
"@@++++@oX+++++X$$X+++X$$$$$$$$$$$$$$$$$$$$$$$$$$$$$$$$$$$$$$$$$$$$$$$$$$$X+++X$$X+++Xoo##@++++o@",
"@@X++X@oX+++++X$X+++++X$$X+++X$$$$$$$$$$$$$$$$$$$$$$$$$$$$$$$$$$$X+++X$$X+++++X$X+++++ooo@X++X@@",
"@@.XXX.oX+++++X$X+++++X$X+++++X$$X+++X$$$$$$$$$$$$$$$$$$$X+++X$$X+++++X$X+++++X$X++++++Xo.XXX.@@",
"@@...X.oX+++++X.X+++++X$X+++++X$X+++++X$$X+++X$$$X+++X$$X+++++X$X+++++X$X+++++X$+++++++Xo#X...@@",
"@@O..O@oX++++++.X+++++X.X+++++X$X+++++X$X+++++X$X+++++X$X+++++X$X+++++X$X+++++X.+++++++Xo###.O@@",
"@@@OO@@oX++++++.X+++++X.X+++++X.X+++++X$X+++++X$X+++++X$X+++++X$X+++++X.X+++++X.+++++++Xo@##O@@@",
"@@@@@@@oX++++++$X+++++X.X+++++X.X+++++X.X+++++X$X+++++X$X+++++X.X+++++X.++++++X.+++++++Xo@@@@@@@",
"@@@@@@@oX++++++ X+++++X$X+++++X.X+++++X.X+++++X.X+++++X.X+++++X.++++++X.++++++X$+++++++Xo@@@@@@@",
"@@@@@@@oX++++++ X+++++X X+++++X$X+++++X.X+++++X.X+++++X.++++++X.++++++X$++++++X +++++++Xo@@@@@@@",
"@@@@@@@oX++++++$X+++++X X+++++X X+++++X$++++++X.++++++X.++++++X$++++++X ++++++X X++++++Xo@@@@@@@",
"@@@@@@@oX++++++$X+++++X$X+++++X X+++++X +++++++$+++++++$+++++++ X++++++ X++++++$X++++++Xo@@@@@@@",
"@@@@@@@oX++++++$X+++++X$X+++++X$X+++++X +++++++ +++++++ X++++++ X++++++$X++++++$X++++++Xo@@@@@@@",
"@@@@@@@oX+++++X$X+++++X$X+++++X$X+++++X$X++++++ X++++++ X++++++$X++++++$X++++++$X++++++Xo@@@@@@@",
"@@@@@@@oX+++++X$X+++++X$X+++++X$X+++++X$X++++++$X++++++$X++++++$X++++++$X++++++$X++++++Xo@@@@@@@",
"@@@@@@@oXXX+++X$X+++++X$X+++++X$X+++++X$X++++++$X++++++$X++++++$X++++++$X++++++$X++++XXXo@@@@@@@",
"@@@@@@ooooX+++X$X+++++X$X+++++X$X+++++X$X++++++$X++++++$X++++++$X++++++$X++++++$X++++Xooo@@@@@@@",
"@@@@@@@@@oX+++X$X+++++X$X+++++X$X+++++X$X++++++$X++++++$X++++++$X++++++$X++++++$X++++Xo@@@@@@@@@",
"@@@@@@@@@oX+++X$X+++++X$X+++++X$X+++++X$X++++++$X++++++$X++++++$X++++++$+++++++$X++++Xo@@@@@@@@@",
"@@@@@@@@@oX+++X$X+++++X$X+++++X$X+++++X$X++++++$X++++++$X++++++$+++++++$++++++X$+++++Xo@@@@@@@@@",
"@@@@@@ooooX+++X$X+++++X$X+++++X$X+++++X$X++++++$X++++++$+++++++$++++++X$++++++X$+++++Xooo@@@@@@@",
"@@@@@@@oXXX+++X$X+++++X$X+++++X$X+++++X$+++++++$+++++++$++++++X$++++++X$++++++X$+++++XXXo@@@@@@@",
"@@@@@@@oX+++++X$X+++++X$X+++++X$X+++++X$++++++X$++++++X$++++++X$++++++X$++++++X$+++++X+Xo@@@@@@@",
"@@@@@@@oX++++++$X+++++X$X+++++X$X+++++X$++++++X$++++++X$++++++X$++++++X$++++++X$+++++++Xo@@@@@@@",
"@@@@@@@oX++++++$X+++++X$X+++++X$X+++++X$++++++X$++++++X$++++++X$++++++X$++++++X$+++++++Xo@@@@@@@",
"@@@@@@@oX++++++$X+++++X$X+++++X$X+++++X$++++++X$++++++X$++++++X$++++++X$+++++++$+++++++Xo@@@@@@@",
"@@@@@@@oX++++++$X+++++X$X+++++X$X+++++X$++++++X$++++++X$++++++X$+++++++$+++++++$X++++++Xo@@@@@@@",
"@@@++@@oX++++++$X+++++X$X+++++X$X+++++X$+++++++$+++++++$X++++++$X++++++$X++++++$X++++++Xo@@++@@@",
"@@++++@oX++++++$X+++++X$X+++++X$X+++++X$X++++++$X++++++$X++++++$X++++++$X+++++X$X++++++Xo@++++@@",
"@@X++X.oX++++++.X+++++X$X+++++X$X+++++X$X++++++$X++++++$X++++++$X+++++X$X+++++X.X++++++Xo@X++X@@",
"@@.XXX.oX+++++X.X+++++X.X+++++X$X+++++X$X++++++$X++++++$X+++++X$X+++++X.X+++++X.X++++++XO.XXX.@@",
"@@...X.oX+++++X.X+++++X.X+++++X.X+++++X$X+++++X$X+++++X$X+++++X.X+++++X.X+++++X.X++++++XO.X...@@",
"@@O..O@oXXXXX+X$X+++++X.X+++++X.X+++++X.X+++++X$X+++++X.X+++++X.X+++++X.X+++++X$X++++++Xo@O..O@@",
"o#@OO@@oooooX+X .X+++X.$X+++++X.X+++++X.X+++++X.X+++++X.X+++++X.X+++++X$.X+++X. X++++++Xo@@OO@@@",
"o###@@@o@@@oX+X ....... .X+++X.$X+++++X.X+++++X.X+++++X.X+++++X$.X+++X. ....... X++++XXXo@@@@@@@",
"oo###@@o@@@oXX.$ .....  ....... .X+++X.$X+++++X.X+++++X$.X+++X. .......  ..... $.++++Xooooo@@@@@",
"oo####@@@@@o...$       $ .....  ....... .X+++X.$.X+++X. .......  ..... $       $......o@@@o@@@@@",
"@o####@@@@@o..$$       $       $ .....  ....... .......  ..... $       $       $ .ooooo@@@o@@@@@",
"@@@@@@@@@@@##$$$       $       $       $ .....   ..... $       $       $       $ $o@@@o@@@o@@@@@",
"@@@@@@@@#####o$$$     $$       $       $       $       $       $       $$     $$ $o@@@@@@@@@@@@@",
"@@@@@@@####ooo$$$$$$$$$$$     $$$     $$$     $$$     $$$     $$$     $$$$$$$$$$$$o@@@@@@@@@@@@@",
"@@@@@@@@oooooo$$$$$$$$$$$$$$$$$$$$$$$$$$$$$$$$$$$$$$$$$$$$$$$$$$$$$$$$$$$$$$$$$$$$o@@@@@@@@@@@@@",
"@@@@@@@@@@@@oo$$$$$$$$$$$$$$$$$$$$$$$$$$$$$$$$$$$$$$$$$$$$$$$$$$$$$$$$$$$$$$$$$$$$o@@@@@@@@@@@@@"
};
