/* XPM */
static char *wall[] = {
/* columns rows colors chars-per-pixel */
"69 62 151 2 ",
"   c #2E1820",
".  c #341C22",
"X  c #3B1D25",
"o  c #292528",
"O  c #272E2D",
"+  c #3C2126",
"@  c #382629",
"#  c #253331",
"$  c #243A35",
"%  c #223E38",
"&  c #402027",
"*  c #452229",
"=  c #48242A",
"-  c #45292C",
";  c #4D2B2C",
":  c #552F30",
">  c #433330",
",  c #553533",
"<  c #5D3735",
"1  c #653C36",
"2  c #693E37",
"3  c #6A3F38",
"4  c #1F463D",
"5  c #1F493E",
"6  c #21433B",
"7  c #204A3F",
"8  c #6A4139",
"9  c #1E4D42",
"0  c #1E4E4B",
"q  c #1F5043",
"w  c #1F4F51",
"e  c #254D41",
"r  c #264F49",
"t  c #215344",
"y  c #2B5D47",
"u  c #22534A",
"i  c #255B49",
"p  c #265C49",
"a  c #245653",
"s  c #275952",
"d  c #2B5D57",
"f  c #23555C",
"g  c #2A5D58",
"h  c #2E6147",
"j  c #2A634E",
"k  c #326749",
"l  c #336D4F",
"z  c #3C734E",
"x  c #2C6750",
"c  c #2E6B52",
"v  c #2D615D",
"b  c #316E53",
"n  c #316658",
"m  c #327356",
"M  c #3D7852",
"N  c #347659",
"B  c #367A5A",
"V  c #387E5D",
"C  c #225469",
"Z  c #22567A",
"A  c #265A7A",
"S  c #366D6E",
"D  c #2A607F",
"F  c #3A737F",
"G  c #485B55",
"H  c #764A42",
"J  c #7B4F45",
"K  c #635551",
"L  c #725350",
"P  c #40784F",
"I  c #437D52",
"U  c #417A5F",
"Y  c #845649",
"T  c #89594C",
"R  c #3A815F",
"E  c #3B8360",
"W  c #498453",
"Q  c #4E8B56",
"!  c #41855D",
"~  c #4A8C5B",
"^  c #51945D",
"/  c #58975A",
"(  c #5C9C5C",
")  c #62A45E",
"_  c #65A85F",
"`  c #408760",
"'  c #498563",
"]  c #448B60",
"[  c #488F60",
"{  c #4C9360",
"}  c #519760",
"|  c #549A61",
" . c #599E61",
".. c #59996A",
"X. c #5CA161",
"o. c #62A761",
"O. c #65A961",
"+. c #6AAE62",
"@. c #61A46D",
"#. c #245984",
"$. c #275D9D",
"%. c #2D658F",
"&. c #336D9A",
"*. c #326CA4",
"=. c #3E7AAD",
"-. c #705F8C",
";. c #477A85",
":. c #79698D",
">. c #766B93",
",. c #2A63C2",
"<. c #3977C6",
"1. c #3774CA",
"2. c #3B76CB",
"3. c #316DD3",
"4. c #3471D7",
"5. c #3471D9",
"6. c #3D7FEE",
"7. c #4279CB",
"8. c #9E5CB6",
"9. c #4E8D9C",
"0. c #528E9C",
"q. c #5A929D",
"w. c #76979D",
"e. c #4C8BA0",
"r. c #4888C0",
"t. c #579DDD",
"y. c #76B9DF",
"u. c #599FE1",
"i. c #458AFF",
"p. c #63A3E2",
"a. c #74A9E2",
"s. c #7BACE3",
"d. c #77B9E0",
"f. c #7DBDE2",
"g. c #7FC0E4",
"h. c #79C6F4",
"j. c #79C7F6",
"k. c #83909A",
"l. c #929199",
"z. c #83BEE1",
"x. c #81C1E5",
"c. c #8EC5E4",
"v. c #99C9E4",
"b. c #85CCF7",
"n. c #8FD0F7",
"m. c #A4CCE5",
"M. c #AECFE4",
"N. c #ACD0E5",
"B. c #B3D2E6",
"V. c #A6D8F9",
"C. c #B2DDFA",
/* pixels */
"8.8.8.8.8.8.8.8.8.8.8.8.8.8.8.8.8.8.8.8.8.8.8.8.8.8.8.8.8.8.8.8.8.8.8.8.8.8.8.8.8.8.8.8.8.8.8.8.8.8.8.8.8.8.8.8.8.8.8.8.8.8.8.8.8.8.8.8.8.",
">.>.>.>.>.>.>.>.>.>.>.>.>.>.>.>.>.>.>.>.>.>.>.>.>.>.>.-.:.>.>.>.>.>.>.>.>.>.>.>.>.>.>.>.>.>.>.>.>.>.>.>.>.>.>.>.>.>.>.>.>.>.>.>.>.>.>.>.>.",
"E E E E E E E E E E E E E E E E E E E E E E E E E E E j I X.] E E E E E E E E E E E E E E E E E E E E E E E E E E E E E E E E E E E E E E ",
"E E E E E E E E E E E E E E E E E E E E E E E E E E E b M ( X.E E E E E E { { E E E E E E E E E E E E E E E E E E E E E E E E E E ] ] E E ",
"E E E E E E B N B E E E E E E E R E E E E E E E E E E E c M { E E R E E { +.X.E ] E E R E E E E E E E E E E E E E E E R E N N V ]  .] E E ",
"E E E E E E c t j E E E R N N E R B R E E E E E E V V E E R N B E R B { +.O.E E O.{ B R E E B N V E V V E E E E E E R N E q y R o.] E E E ",
"E E E E E E E x j B B B c q i E N 9 E E E E V R E j x B B x q j R c h +.+.X.R B O.+.y b B B i t b V j j E E E V B E B q B q ) +.O.] E E E ",
"E E E E E V V j 5 4 4 4 9 t E V 9 9 B B V B t b V i 4 4 4 5 j E m q h ) ( V B q / ) y 5 4 5 5 n E c 9 i V B V m t V B 9 4 5 / ) R B R E E ",
"E E E E R x 7 4 #       o u V B 9 5 5 7 e e e 7 5 9 O     O s B b 9 5 5 e e e e 7 5 5 o     $ c R x 5 7 7 e e e e 5 5 4   4 5 q 9 q N E E ",
"E E E E R X.P #   . = X o e 5 9 7   . Y T T T -     X * . O 9 9 9 % . + T T T T X     & * . $ 9 5 5 #   : T T T J           4 N E E E E E ",
"E E E E X.+.P # X * * X         . T T 2 2 2 2 ; * * * * X         - Y Y 2 2 2 2 = * * * * .         , T J 2 2 2 1 * * * *   4 B E E E E E ",
"E E E ( +.+.P # . 1 Y Y J H * * = 3 2 2 2 2 + . 8 Y Y Y Y Y H * * ; 8 8 2 2 1 .   J Y Y Y Y Y < * * : 8 2 2 1 < . + Y Y =   4 B E E E E E ",
"E E E X.} b t 4 ;.f.g.f.c.B.B.N.M.y.y.z.M.B.z.y.f.x.x.x.f.v.B.N.M.m.f.f.z.B.B.y.y.z.x.x.x.x.m.B.N.N.v.f.f.c.B.m.y.d.f.z.y.r 9 t B E E E E ",
"E E E E R V B j #.1.4.4.2.7.7.7.2.1.2.1.7.7.1.1.1.1.1.1.1.1.7.7.7.2.3.3.1.7.7.1.1.1.3.3.1.1.2.7.7.7.2.1.3.4.7.7.1.1.1.1.<.u m N V E E E E ",
"E E E E R c m x A ,.,.*.,.,.,.,.,.,.,.,.,.,.,.,.,.,.,.,.,.,.,.*.*.,.,.,.,.,.,.,.,.*.,.,.,.,.,.,.,.,.*.,.,.,.,.*.,.,.,.,.,.0 B j N E E E E ",
"E E E E R j t t Z 3.6.6.6.6.6.6.6.6.6.6.6.6.6.6.6.6.6.6.6.6.6.i.6.6.6.6.6.6.6.6.6.6.6.6.6.6.6.6.6.6.6.6.6.6.6.6.6.6.6.6.,.0 i 9 N E E E E ",
"E E E E E N j F r.5.i.i.i.i.i.i.i.i.i.i.i.i.i.i.i.i.i.i.i.i.i.i.i.i.i.i.i.i.i.i.i.i.i.i.i.i.i.i.i.i.i.i.i.i.i.i.i.i.i.i.,.q.f b V E E E E ",
"E E E E E E x 9.u.4.i.i.i.i.i.i.i.i.i.i.i.i.i.i.i.i.i.i.i.i.i.i.i.i.i.i.i.i.i.i.i.i.i.i.i.i.i.i.i.i.i.i.i.i.i.i.i.i.i.i.,.h.C B E E E E E ",
"E E E E E E j 9.u.4.i.i.i.i.i.i.i.i.i.i.i.i.i.i.i.i.i.i.i.i.i.i.i.i.i.i.i.i.i.i.i.i.i.i.i.i.i.i.i.i.i.i.i.i.i.i.i.i.i.i.*.h.v B E E E E E ",
"E E E E E E x 9.u.4.i.i.i.i.i.i.i.i.i.i.i.i.i.i.i.i.i.i.i.i.i.i.i.i.i.i.i.i.i.i.i.i.i.i.i.i.i.i.i.i.i.i.i.i.i.i.i.i.i.i.,.h.v B E E E E E ",
"E E E E E E j S =.5.i.i.i.i.i.i.i.i.i.i.i.i.i.i.i.i.i.i.i.i.i.i.i.i.i.i.i.i.i.i.i.i.i.i.i.i.i.i.i.i.i.i.i.i.i.i.i.i.i.i.,.e.w ] | } ] E E ",
"E E E E E E m i Z 4.i.i.i.i.i.i.i.i.i.i.i.i.i.i.i.i.i.i.i.i.i.i.i.i.i.i.i.i.i.i.i.i.i.i.i.i.i.i.i.i.i.i.i.i.i.i.i.i.i.i.,.w z X.+. .] E E ",
"E E E [ E E E x Z 4.i.i.i.i.i.i.i.i.i.i.i.i.i.i.i.i.i.i.i.i.i.i.i.i.i.i.i.i.i.i.i.i.i.i.i.i.i.i.i.i.i.i.i.i.i.i.i.i.i.i.,.0 ( X. .] E E E ",
"E E E X.X.R N j Z 4.i.i.i.i.i.i.i.i.i.i.i.i.i.i.i.i.i.i.i.i.i.i.i.i.i.i.i.i.i.i.i.i.i.i.i.i.i.i.i.i.i.i.i.i.i.i.i.i.i.i.,.0 Q R E E E E E ",
"E E E } _ X.c v &.4.i.i.i.i.i.i.i.i.i.i.i.i.i.i.i.i.i.i.i.i.i.i.i.i.i.i.i.i.i.i.i.i.i.i.i.i.i.i.i.i.i.i.i.i.i.i.i.i.i.i.,.F 9 N E E E E E ",
"E E E E  .+.M 9.t.4.i.i.i.i.i.i.i.i.i.i.i.i.i.i.i.i.i.i.i.i.i.i.i.i.i.i.i.i.i.i.i.i.i.i.i.i.i.i.i.i.i.i.i.i.i.i.i.i.i.i.,.h.d B E R E E E ",
"E E E B ~ ( z 0.p.4.i.i.i.i.i.i.i.i.i.i.i.i.i.i.i.i.i.i.i.i.i.i.i.i.i.i.i.i.i.i.i.i.i.i.i.i.i.i.i.i.i.i.i.i.i.i.i.i.i.i.,.b.d b B N V E ] ",
"E E E j 7 4 7 w.s.4.i.i.i.i.i.i.i.i.i.i.i.i.i.i.i.i.i.i.i.i.i.i.i.i.i.i.i.i.i.i.i.i.i.i.i.i.i.i.i.i.i.i.i.i.i.i.i.i.i.i.,.C.n 6 5 t N E { ",
"E E E E j O ; l.s.4.i.i.i.i.i.i.i.i.i.i.i.i.i.i.i.i.i.i.i.i.i.i.i.i.i.i.i.i.i.i.i.i.i.i.i.i.i.i.i.i.i.i.i.i.i.i.i.i.i.i.,.C.L X % m E E E ",
"E E E E j O ; l.s.5.i.i.i.i.i.i.i.i.i.i.i.i.i.i.i.i.i.i.i.i.i.i.i.i.i.i.i.i.i.i.i.i.i.i.i.i.i.i.i.i.i.i.i.i.i.i.i.i.i.i.,.C.L X 6 m E E E ",
"E E E E i O - l.s.5.i.i.i.i.i.i.i.i.i.i.i.i.i.i.i.i.i.i.i.i.i.i.i.i.i.i.i.i.i.i.i.i.i.i.i.i.i.i.i.i.i.i.i.i.i.i.i.i.i.i.*.C.L . 6 m E E E ",
"E E E E j 5 9 9.u.5.i.i.i.i.i.i.i.i.i.i.i.i.i.i.i.i.i.i.i.i.i.i.i.i.i.i.i.i.i.i.i.i.i.i.i.i.i.i.i.i.i.i.i.i.i.i.i.i.i.i.,.h.d 5 9 m E E E ",
"E E E E R R j 9.u.5.i.i.i.i.i.i.i.i.i.i.i.i.i.i.i.i.i.i.i.i.i.i.i.i.i.i.i.i.i.i.i.i.i.i.i.i.i.i.i.i.i.i.i.i.i.i.i.i.i.i.*.j.C B V E E E E ",
"E E E E R E j 9.u.5.i.i.i.i.i.i.i.i.i.i.i.i.i.i.i.i.i.i.i.i.i.i.i.i.i.i.i.i.i.i.i.i.i.i.i.i.i.i.i.i.i.i.i.i.i.i.i.i.i.i.,.j.v B E E E E E ",
"E E E E E E j 9.u.5.i.i.i.i.i.i.i.i.i.i.i.i.i.i.i.i.i.i.i.i.i.i.i.i.i.i.i.i.i.i.i.i.i.i.i.i.i.i.i.i.i.i.i.i.i.i.i.i.i.i.,.h.d B E E E E E ",
"E E E E E E c 9.u.5.i.i.i.i.i.i.i.i.i.i.i.i.i.i.i.i.i.i.i.i.i.i.i.i.i.i.i.i.i.i.i.i.i.i.i.i.i.i.i.i.i.i.i.i.i.i.i.i.i.i.,.h.d B E E E E E ",
"E E E E E E x 9.u.5.i.i.i.i.i.i.i.i.i.i.i.i.i.i.i.i.i.i.i.i.i.i.i.i.i.i.i.i.i.i.i.i.i.i.i.i.i.i.i.i.i.i.i.i.i.i.i.i.i.i.,.h.v N E E E E E ",
"E E E E E E j v &.5.i.i.i.i.i.i.i.i.i.i.i.i.i.i.i.i.i.i.i.i.i.i.i.i.i.i.i.i.i.i.i.i.i.i.i.i.i.i.i.i.i.i.i.i.i.i.i.i.i.i.,.F q ^  .X.] E E ",
"E E E E E E B i Z 5.i.i.i.i.i.i.i.i.i.i.i.i.i.i.i.i.i.i.i.i.i.i.i.i.i.i.i.i.i.i.i.i.i.i.i.i.i.i.i.i.i.i.i.i.i.i.i.i.i.i.,.0 W _ +.| ] E E ",
"E E E { ] E R c Z 5.i.i.i.i.i.i.i.i.i.i.i.i.i.i.i.i.i.i.i.i.i.i.i.i.i.i.i.i.i.i.i.i.i.i.i.i.i.i.i.i.i.i.i.i.i.i.i.i.i.i.,.0 ( } } E E E E ",
"E E E X.X.] m i Z 5.i.i.i.i.i.i.i.i.i.i.i.i.i.i.i.i.i.i.i.i.i.i.i.i.i.i.i.i.i.i.i.i.i.i.i.i.i.i.i.i.i.i.i.i.i.i.i.i.i.i.*.w b V E E E E E ",
"E E E { o.X.l S =.5.i.i.i.i.i.i.i.i.i.i.i.i.i.i.i.i.i.i.i.i.i.i.i.i.i.i.i.i.i.i.i.i.i.i.i.i.i.i.i.i.i.i.i.i.i.i.i.i.i.i.,.e.u B E E E E E ",
"E E E R  .+.P 9.p.5.i.i.i.i.i.i.i.i.i.i.i.i.i.i.i.i.i.i.i.i.i.i.i.i.i.i.i.i.i.i.i.i.i.i.i.i.i.i.i.i.i.i.i.i.i.i.i.i.i.i.,.h.g B E E E E E ",
"E E E N I W k q.p.5.i.i.i.i.i.i.i.i.i.i.i.i.i.i.i.i.i.i.i.i.i.i.i.i.i.i.i.i.i.i.i.i.i.i.i.i.i.i.i.i.i.i.i.i.i.i.i.i.i.i.,.n.d c c b B E ] ",
"E E E c t 6 $ w.s.5.i.i.i.i.i.i.i.i.i.i.i.i.i.i.i.i.i.i.i.i.i.i.i.i.i.i.i.i.i.i.i.i.i.i.i.i.i.i.i.i.i.i.i.i.i.i.i.i.i.i.,.C.G % 4 i N E { ",
"E E E E j O : l.s.5.i.i.i.i.i.i.i.i.i.i.i.i.i.i.i.i.i.i.i.i.i.i.i.i.i.i.i.i.i.i.i.i.i.i.i.i.i.i.i.i.i.i.i.i.i.i.i.i.i.i.,.C.L X 4 N R R E ",
"E E E E j O ; l.s.5.i.i.i.i.i.i.i.i.i.i.i.i.i.i.i.i.i.i.i.i.i.i.i.i.i.i.i.i.i.i.i.i.i.i.i.i.i.i.i.i.i.i.i.i.i.i.i.i.i.i.,.C.L . % m E E E ",
"E E E E y # > k.a.5.i.i.i.i.i.i.i.i.i.i.i.i.i.i.i.i.i.i.i.i.i.i.i.i.i.i.i.i.i.i.i.i.i.i.i.i.i.i.i.i.i.i.i.i.i.i.i.i.i.i.,.V.K @ 4 N E E E ",
"E E E E j t t 9.u.5.i.i.i.i.i.i.i.i.i.i.i.i.i.i.i.i.i.i.i.i.i.i.i.i.i.i.i.i.i.i.i.i.i.i.i.i.i.i.i.i.i.i.i.i.i.i.i.i.i.i.*.h.C q t N E E E ",
"E E E E E E x 9.u.5.i.i.i.i.i.i.i.i.i.i.i.i.i.i.i.i.i.i.i.i.i.i.i.i.i.i.i.i.i.i.i.i.i.i.i.i.i.i.i.i.i.i.i.i.i.i.i.i.i.6.,.h.g B E E E E E ",
"E E E E E E j 9.u.5.i.i.i.i.i.i.i.i.i.i.i.i.i.i.i.i.i.i.i.i.i.i.i.i.i.i.i.i.i.i.i.i.i.i.i.i.i.i.i.i.i.i.i.i.i.i.i.i.i.i.,.j.g B E E E E E ",
"E E E E R R j 9.t.4.i.i.i.i.i.i.i.i.i.i.i.i.i.i.i.i.i.i.i.i.i.i.i.i.i.i.i.i.i.i.i.i.i.i.i.i.i.i.i.i.i.i.i.i.i.i.i.i.i.i.,.h.g N R E R E E ",
"E E E i q 9 9 q 9 %.i.<.5 9 q f i.i.i.i.i.i.i.i.i.i.i.i.*.r 9 0 D i.i.i.i.i.i.i.i.i.i.i.i.i.i.i.i.i.i.i.i.<.9 0 9 f i.i.0 q 9 9 e 9 m E E ",
"E E E V R ^ o.) I Z ,.$.t R N 0 ,.,.,.,.,.,.,.,.,.,.,.,.#.j V c C ,.1.,.,.,.,.,.,.,.,.,.,.,.,.,.,.,.,.,.,.$.i V N 0 ,.,.9 ( O.o.! V E E E ",
"E E E E | O.+.+.W 9 w 0 i E B 9 w w w w ..@.@.n a w w w u j R m r w u w s @.@.@.a w a a w w ' @.@.U w w a 0 i E B 9 w w e _ +.+.O.] E E E ",
"E E E | +.+.| ] m i B c i E E B B B B V O.+.+.k b B B B j j R R N B B N R +.+.+.t m B B B i Q +.+.{ V B B B B E B t B N 9 E ] o.+.O.[ E E ",
"E E E ] [ ] E E V B E V B E E E E E E E o.+.{ V V E E E V B E E E E E E E +.+.[ B E E E E B R X.+.| E E E E E E R N E E N E E ] ] ] E E E ",
"E E E E E E E E E E E E E E E E E E E E O.{ E E E E E E E E E E E E E E ` O.[ E E E E E E E E ] X.{ E E E E E E E E E E E E E E E E E E E ",
"E E E E E E E E E E E E E E E E E E E E [ E E E E E E E E E E E E E E E E [ E E E E E E E E E E ] E E E E E E E E E E E E E E E E E E E E ",
"E E E E E E E E E E E E E E E E E E E E E E E E E E E E E E E E E E E E E E E E E E E E E E E E E E E E E E E E E E E E E E E E E E E E E ",
"E E E E E E E E E E E E E E E E E E E E E E E E E E E E E E E E E E E E E E E E E E E E E E E E E E E E E E E E E E E E E E E E E E E E E ",
"E E E E E E E E E E E E E E E E E E E E E E E E E E E E E E E E E E E E E E E E E E E E E E E E E E E E E E E E E E E E E E E E E E E E E "
};
