/* XPM */
static char *char_jpg[] = {
/* columns rows colors chars-per-pixel */
"63 59 242 2 ",
"   c #0B0719",
".  c #150C1D",
"X  c #1B0D1C",
"o  c #190A16",
"O  c #1B121D",
"+  c #19141D",
"@  c #100A0E",
"#  c #23121C",
"$  c #27151C",
"%  c #200C15",
"&  c #040D25",
"*  c #140D23",
"=  c #1A0E23",
"-  c #140F2A",
";  c #0E1125",
":  c #141224",
">  c #1A1324",
",  c #15132B",
"<  c #1B152B",
"1  c #1B1A2D",
"2  c #161A2A",
"3  c #181A34",
"4  c #0D1836",
"5  c #221525",
"6  c #2C1A26",
"7  c #24152B",
"8  c #231A2B",
"9  c #2C1C2B",
"0  c #291727",
"q  c #331A26",
"w  c #341E2B",
"e  c #3A1D2C",
"r  c #341626",
"t  c #231D32",
"y  c #2B1D36",
"u  c #381E33",
"i  c #200F22",
"p  c #1E223B",
"a  c #1E2037",
"s  c #2B262B",
"d  c #34222D",
"f  c #3B232E",
"g  c #382326",
"h  c #242234",
"j  c #2C2233",
"k  c #23243C",
"l  c #282A39",
"z  c #342432",
"x  c #3D2533",
"c  c #3D2934",
"v  c #342639",
"b  c #3C253A",
"n  c #362A3B",
"m  c #3C2A3B",
"M  c #352A36",
"N  c #3A343B",
"B  c #43262E",
"V  c #43292E",
"C  c #422734",
"Z  c #422835",
"A  c #422639",
"S  c #432B39",
"D  c #492D3B",
"F  c #492C35",
"G  c #552A36",
"H  c #45323D",
"J  c #4B323D",
"K  c #4E3C3C",
"L  c #52333D",
"P  c #56363A",
"I  c #56252B",
"U  c #69383C",
"Y  c #753A3E",
"T  c #52423C",
"R  c #1D2542",
"E  c #123550",
"W  c #2B2C43",
"Q  c #272A48",
"!  c #342B41",
"~  c #3C2A43",
"^  c #2E334C",
"/  c #283448",
"(  c #3B3543",
")  c #33334D",
"_  c #39374A",
"`  c #2E3454",
"'  c #323452",
"]  c #343B54",
"[  c #353B5C",
"{  c #3A3E5C",
"}  c #383958",
"|  c #262C50",
" . c #3A3E61",
".. c #363C60",
"X. c #472E42",
"o. c #443242",
"O. c #4C3442",
"+. c #473C48",
"@. c #513642",
"#. c #573A46",
"$. c #423D55",
"%. c #433C57",
"&. c #553E50",
"*. c #653B4A",
"=. c #723C44",
"-. c #3B415E",
";. c #37415E",
":. c #3C4261",
">. c #366B7C",
",. c #49434A",
"<. c #534443",
"1. c #57454A",
"2. c #494556",
"3. c #574755",
"4. c #595258",
"5. c #67454B",
"6. c #7A4748",
"7. c #674954",
"8. c #784A54",
"9. c #695759",
"0. c #7D555C",
"q. c #6B524B",
"w. c #7B635F",
"e. c #464762",
"r. c #5B5569",
"t. c #585369",
"y. c #665866",
"u. c #7B5A65",
"i. c #685E72",
"p. c #755D73",
"a. c #546878",
"s. c #776669",
"d. c #7B6B76",
"f. c #7C757D",
"g. c #6E6370",
"h. c #843F44",
"j. c #87484E",
"k. c #844C55",
"l. c #875559",
"z. c #975759",
"x. c #914E55",
"c. c #97655D",
"v. c #90665D",
"b. c #8C5C61",
"n. c #876768",
"m. c #976464",
"M. c #9D776A",
"N. c #846A75",
"B. c #857579",
"V. c #957A77",
"C. c #84716D",
"Z. c #A76969",
"A. c #A67568",
"S. c #B6756B",
"D. c #A57773",
"F. c #B77A73",
"G. c #B86D6A",
"H. c #B5755C",
"J. c #C37867",
"K. c #C97B73",
"L. c #D27E74",
"P. c #9F847B",
"I. c #A9877B",
"U. c #BC847A",
"Y. c #C4857A",
"T. c #CD937E",
"R. c #D48F7C",
"E. c #E79B7E",
"W. c #326F84",
"Q. c #577289",
"!. c #7A7786",
"~. c #697A8D",
"^. c #887C89",
"/. c #977A8C",
"(. c #A87B86",
"). c #B67F82",
"_. c #6E8797",
"`. c #5797AA",
"'. c #7AA1AF",
"]. c #5D9DA9",
"[. c #99858B",
"{. c #A88A86",
"}. c #A89185",
"|. c #B79789",
" X c #B79996",
".X c #AD8F8E",
"XX c #BCA39E",
"oX c #AB9AAB",
"OX c #9CAFBC",
"+X c #B7A4AD",
"@X c #9E96A5",
"#X c #C69687",
"$X c #D89787",
"%X c #D0948E",
"&X c #E39B86",
"*X c #E79A90",
"=X c #C8A698",
"-X c #D5A998",
";X c #D9B19B",
":X c #D5AA8D",
">X c #E5AA97",
",X c #F7AF9B",
"<X c #FBB79C",
"1X c #EBAB91",
"2X c #C29FA6",
"3X c #C7A6A4",
"4X c #D6ADA5",
"5X c #D8B4A8",
"6X c #D8B6B6",
"7X c #CCB3AC",
"8X c #E6BAA6",
"9X c #F7BBA5",
"0X c #E5BCB3",
"qX c #FFC59E",
"wX c #E7C3AC",
"eX c #FBC5AA",
"rX c #FCCCAB",
"tX c #F9C7A7",
"yX c #FED4AC",
"uX c #FEC3B3",
"iX c #FCCCB3",
"pX c #F6CAB7",
"aX c #FED2B4",
"sX c #FED5B7",
"dX c #EECBB7",
"fX c #85B7C2",
"gX c #BDB9CA",
"hX c #D4BBC9",
"jX c #C0B4C2",
"kX c #86C2C8",
"lX c #B0D3DB",
"zX c #B3DEE4",
"xX c #D7C6D2",
"cX c #DCC7C6",
"vX c #FFD6C1",
"bX c #E3D1D6",
"nX c #F1D1CF",
"mX c #D6DEEB",
"MX c #EAD9E7",
"NX c #DEF2FA",
"BX c #F3F7FE",
"VX c #F2E9F3",
/* pixels */
"w S S f c S f S c c x x c S c q q c Z c C C B F F C Z C V C c q e C F Z c c c c Z C B F Z x x w S S x f C x Z Z Z Z Z Z Z Z Z ",
"x c w q d w q w q q d w q d x S c c g q q q q e r r e q q w V V x x q r d q g q q q q r q f b x Z C C C C C Z Z x Z Z Z C Z Z ",
"S S f d f f d f q q q w f Z C q V c g d x z x x q r 6 w f m c w D A x z d z z M r r e e f C x w x C S Z Z Z Z Z Z Z Z Z Z Z C ",
"x Z c x c x x D x x x f f z S x S S Z Z c f d m x c c M z M m c x m m M M z z S x x B C f Z S C S C Z Z Z Z Z C Z C Z Z Z Z Z ",
"x Z Z Z Z f x Z Z C S C C Z D S f Z x S m c m o.n m ! n M m n ~ ~ ! m ! N N n m x x c Z x C Z C Z Z Z Z Z C Z C Z Z Z Z Z Z C ",
"S Z C Z S Z C Z Z C C C S D C f Z Z x c m s > = > : = = < 1 > . > = = > : : > 0 z b S D Z Z Z C C Z Z C Z S Z Z C Z Z C Z Z Z ",
"C C C C Z C Z Z Z Z D C e f Z S c S c m m n h 2 1 3 3 1 * - 1 3 - 1 1 1 1 , < t n v m x z Z F C Z Z Z C Z Z Z Z Z Z C Z Z Z Z ",
"x C S Z C Z Z Z Z x Z D S Z Z C V S c z j j h h k p p k k k k k k Q h 3 k k h h h j c m Z C C B Z Z C S Z Z C Z Z Z Z Z Z Z Z ",
"C C C C C C C A F C C C Z C C C x m v 9 1 h W W ] ^ / / ` ^ ^ ^ ) ^ ^ ^ ^ ] ^ l k 8 8 M c S Z Z C Z Z Z Z Z Z Z Z C Z Z Z Z Z ",
"C C C Z C C C C A C C C Z C A Z o.b z 8 < k ) -.-.;.;.;.;.;.} } } -.-.{ -.{ { ) h 1 8 j c c V C Z Z Z C Z C C Z Z Z Z Z Z Z Z ",
"Z C Z Z Z Z Z Z C Z A F Z Z Z x b j j t h W ] :.:.:.:.:.:.:.e.:.:.:.:.:.-.e.-.} Q h t j j c c Z Z Z Z Z Z Z S C C S C Z Z Z Z ",
"Z Z Z Z Z Z C Z S Z Z C Z C Z x 9 t h W ) ] { { :.:.:.:.:.:.-.-.-.-.-.-.:.:. .{ ] ^ W j t s x x Z Z C Z Z C C c C C c Z C Z Z ",
"Z Z Z Z C S Z Z C Z Z Z C Z Z z 8 1 h ^ }  .:. ..... .:.{ :.{ { :.-. .{ ..:...:.:.] ^ k < 0 d c x S C Z Z Z Z Z Z Z C Z Z Z Z ",
"Z C Z Z Z Z Z Z Z Z S Z C S x z 1 1 k ) 2. . .[ .. . . . .{ { { -. .{ :...[ [ ;.:.:.] l < < j S c C C S Z C C Z C Z Z Z C Z Z ",
"Z Z Z Z Z Z Z Z Z Z C Z Z Z Z d 1 3 Q ] e.....` .. . . . .{ { {  .{ {  .[ [ [ [ ;.;.] R 1 7 v o.Z C Z C Z Z C Z Z Z C Z Z Z Z ",
"C Z Z C Z Z Z Z Z Z Z C C Z Z w 1 3 p ^ {  .} } { .. . .2.{ { :.%. . .:...[ ] ;.;.;.] p , 7 n o.x S Z Z Z Z Z Z Z Z Z Z c Z Z ",
"A Z C C c C V Z F B Z C Z Z f d 1 2 p ' } e.i.r.t.e.[ [ } } ....[ ..[ [ e.t.y.t.t.{ ' p 3 t y v S D L F Z Z Z C A Z S x x S x ",
"C A A Z Z c Z C e C B C F @.D s 2 2 p ^ %.i./..X^.r.] | ) ' ` ` ' ^ | ` t.^.@X[.y.} | R 3 t 9 m J J D Z Z f x S c c x S S x A ",
"C A Z Z x S V Z D D Z V c J H M 1 2 p Q %.N.3X6X=Xu.( Q ) } ..} ;._ l -.g.XX6X=Xd.%.Q R 1 8 g J V x x Z Z Z C S Z x S x x A Z ",
"C C Z C S x Z Z e C f F S d c 8 2 ; 4 Q %.B.4XaX8XI.9.4.y.y.r.r.y.4.4.9.I.5XsX4XB.} R 3 : 5 V P J Z F F D Z C C x S A c x S Z ",
"C C C C x Z c c C F S J H S H z 1 & 4 Q } B.;XyXtX:X|.}.{.{.{.{.I.I.}.|.-XiXiX-XC.$.R 4 & 2 C F L J S f x Z Z C S Z Z Z A Z C ",
"C A Z C S c Z V Z Z x f z c H n > : , Q ] d.=XrXyXyXwXwX8X8X8X8X8XwXdXdXpXsXuX=XC.,.R 4 ; 1 b o.D H c x C S S C Z Z Z A C Z A ",
"C Z Z C c V c Z C C S S c m c m M N _ ) $.i.{.=X7X;X5X8XtXtXeXeXtXtX8X8X5X4X3X{.9.+.^ ) ] _ ~ b S J H J S Z Z C C C C C C A C ",
"Z Z C C Z c V x S C o.D z s z +.s.B.B.t.$.2.y.s.C.C.M.T.1XqXyXyXtX8XY.D.n.N.s.y.3.+.4.d.^.g.%.v z d z x C z C D A C C Z C A C ",
"C F Z C Z c V Z C C e b 9 > 5 4.|.5X2Xd.$.^ ! _ M M O.b.#XeXiXiXeX#Xn.K m n _ ( ) ,.d.XX6X X3.O 5 w H O.D S J J B F C C A C C ",
"C C Z Z Z Z F D O.O.A X.u # 5 9.-XuX6XN.$.) _ _ l 8 y 7.|.pXsXaX9X|.7.8 < v ] ) ^ _ C.5XpX:X9.s # d o.O.S S H F C C C C F C Z ",
"C Z Z Z S x c Z D D x X.z X 5 y.4XvX6Xs.+.,.s.N.y.v i &..XaXsXsXrX|.3.: v 9.B.g.-._ d.5XsX:X9.$ o u S S S x V C B C C C C Z Z ",
"Z C Z Z x C x x C C u A w . 5 9.=X0X7Xs.H y. X5X{.#.7 &.}.dXyXyXeX{.,.1 +.[.7X Xr.2.g.4XrX:X9.+ o w m c x C f C C C C C A C C ",
"Z Z A x S Z Z Z C A C C 9 # 0 1..X3X Xs.#.n.;XpX|.T + H I.<XqXqX<XA.K + <.|.pX;Xd.1.y. X-XI.4.2 5 c A x Z Z C C B B F F Z Z Z ",
"Z A c Z C C F Z C C D C z s z +.9.C.C.l.0.U.wXaX|.T @ g v.T.E.1XR.v.s @ T |.aXeXI.n.u.N.n.9.H s v m S c C C C C F B C C Z Z b ",
"A A Z Z C Z C C C x A Z x m m N d c #.l.Z.%XeXiX|.<.+ 6 6.G.L.L.S.6.g + <.|.eX<X%XZ.l.*.A C M ( S m c c C Z F F F B B C S Z x ",
"x x A A C C S D O.C D C x S M 8 + X e 8.Z.#X,X9X|.q.c P l.S.L.K.S.v.P g q.U.,X,XR.Z.8.u X i z +.O.m x S Z C J J D C C C Z Z x ",
"c x C C C A F S D o.Z x F C Z M 2   + m *.m.#X&X#XS.c.A.Y.$X$X&X$XY.A.c.A.T.&XY.c.=.b =   i u O.O.S x S Z C C e C C C C Z Z Z ",
"S c B C C C C Z d x C V C S S M 2 &     0 P c.F.$X&X>X,X9X9X<X<X<X9X,X:X:X$XY.z.P r :     5 A O.J O.@.D D D D @.C C C C Z C C ",
"Z Z F A F C C u H F K J D +.H N s s s s d D 8.c.|.>XeXiX9X9X<X,X9XuXiXpX>XY.m.6.@.y 9 l s l n ! N D H x D D @.S C C C C Z Z Z ",
"x Z C C A C C B @.F Z S d d 8 c q.s.B.B.f.s.u.0.z.U.*X$X&XE.E.&X&X*X$X%XU.c.k.0.N.d.!.f.s.4.N 9 c F H S o.@.D C C C A F Z Z C ",
"Z Z Z c S C C F J F V c s 5 + <.D.-XcXnXhXoXN.*.=.x.G.G.J.J.J.J.J.J.Z.Z.z.U *.n.+XxXbXcX7XP.T o $ d c c d f x f C C Z Z Z Z Z ",
"C Z c c c c C A B V c z q $ g q.%X0XnXVXMX+Xp.O.I =.h.z.Z.G.G.J.G.Z.z.x.Y I L p.+XMXVXnXdX|.q.g $ d z H c Z c S C S Z Z Z Z Z ",
"Z S c c c C C C C x d d N <.s.D.$X*X4X+X@X!.3.D G =.j.m.).%X2X3X2XF.m.6.U I H 4.!.@X=X;X>X$XF.l.1.H d d S H Z c C Z Z Z Z Z Z ",
"S x c V V V C F A y 0 s T V.=X:X$XY.m.9.%.' o.H G =.x.D.2XcXMXbXcX2XV.k.U U F ( ~ +.q.c.Y.R.:X=XV.4.$ o d d Z c S Z Z Z C Z C ",
"S c V V B B C A X.y * i 7.=XtXtX&XS.6.B O O z P *.=.l.(.6XMXBXBXMXhX(.l.Y U @.v 1 . g j.H.E.tXpXXX4.5 # s C S c x A Z Z Z Z C ",
"b S c V B B C A ~ y = i 9.=XiXeX,X%Xb.V @ o S 5.6.6.k.(.hXVXBXBXVXhX(.x.h.j.*.A =   V m.T.1XrXsX3Xy.$ O g c m x Z x Z Z Z Z C ",
"A S C V V V C A ~ y - 7 q.=XaXsXaX9X}.T % $ #.k.k.j.l.(.hXVXBXBXVXhX(.k.j.x.u.#.> > #.{.9XsXvXvX+X4.$ o 6 c S c Z Z C Z Z C Z ",
"b A C I V V Z c ~ y - i 5.}.8XrXaXwX}.T $ r #.0.l.8.k./.jXmXNXNXmXgX/.u.k.x.8.#.8 8 ,.{.0XvXpX0X{.4.$ o 6 x c S Z Z Z Z Z Z Z ",
"A A C C B V Z S ~ v r w L n.I.|. XI.s.N > 0 S #.*.7.p.^.OXlXzXzXlXOX!.i.7.&.#.m 1 1 ( s.{. X.X{.s.,.q 6 d x x Z Z Z Z Z Z Z C ",
"A A F B V c c c Z b u u c H T ,.<.,.( l > > 7 0 X.2.i.~.'.fXfXkXfX'.~.a.2.b z 5 : 2 l ( +.3.1.,.H c f c c S x A Z Z Z Z Z Z Z ",
"A F A C Z c c c C C B F u 8 : ; : . - 3 , < 7 7 ! e.Q.Q.`.`.].`.`._.Q.Q.e.! 7 = < , : : O O > O 0 s x c S S Z x Z Z Z Z Z C C ",
"A A A C Z c c c V B C A x 8 : ; , - - - 3 y b X.3.i.!.Q.W.W.W.>.>.a.Q.~.p.3.+.m 9 1 : ; : : = X 0 f m c c S x x Z Z Z Z Z Z Z ",
"C C Z Z Z Z x C Z C C C x z w 9 v j < = 7 S 7.l.A.D.D.n.2./ E E ^ 2.d.V.M.D.b.*.X.< - 3 y y d q B f x c S Z C C Z Z Z Z Z C Z ",
"C C Z Z Z Z Z Z Z Z Z C C C C S c b z 0 0 o.u.D.F.F.Z.8.F 1 & & 1 m 0.D.F.F.D.b.D 7 - W n c V B f C C S C Z Z C Z Z Z Z Z Z Z ",
"C Z Z Z Z Z Z Z Z Z Z Z Z Z S Z S S c 9 9 m 7.s.n.m.0.5.V > : * 5 x *.u.n.m.0.7.D w 9 b ! m S c C Z Z F S Z Z Z Z Z Z Z Z Z Z ",
"A C C S Z Z Z Z Z C Z Z C C C C V V z u b A X.D L K V V g d j z w x x D L J F F A u u S A x c c Z C Z Z C Z Z Z Z b C Z Z C Z ",
"Z Z C Z Z Z Z Z Z Z Z Z S Z Z C C V C A A b 7 i 5 5 5 6 d C D A A x r 5 0 5 5 q f x C B C Z m x Z Z C Z C Z Z Z Z Z Z Z Z Z Z ",
"Z Z Z Z Z Z Z Z Z Z Z C Z Z Z Z C Z Z Z b u 7 = = . . 5 w C C C C u 5 = : . . # d V F V V S S A c Z x C c C C S Z C C Z Z Z C ",
"C Z Z Z Z Z Z Z Z Z Z Z C C Z x c c x A C S A x N n n M m S Z C A S b ! ! ! n m M V V V V x C A Z Z Z Z C Z Z C Z Z C Z Z C Z ",
"Z Z C Z Z Z C Z C Z Z Z Z Z C Z m A Z C C C C A m m n m m m A Z x S A m m ~ n m c c f V C C C A Z Z Z Z Z Z Z Z Z Z Z Z Z Z Z ",
"Z Z Z Z Z Z Z Z Z C Z Z Z Z Z b m ~ A Z V V V V V Z x m b S x S Z x S x S c m c c c M c c C C C C Z Z Z Z Z Z Z Z C Z Z Z Z C ",
"C Z C Z Z Z C Z Z Z Z Z Z C Z A X.b A Z V V V V V C Z A A Z S x C C C Z F C C c c c c c Z Z B F C Z Z Z Z Z C Z Z Z Z Z Z Z Z ",
"Z x Z Z Z Z Z Z Z Z C Z Z Z Z A A C C C V c V C C A C F C C C C B B B B V C C Z c Z S m S Z Z V Z Z Z Z Z Z Z Z Z Z C Z Z C Z "
};
