/* XPM */
static char *conssomable_jpg[] = {
/* columns rows colors chars-per-pixel */
"30 30 136 2 ",
"   c #37161F",
".  c #37181E",
"X  c #361726",
"o  c #341826",
"O  c #3C1F24",
"+  c #361528",
"@  c #3D1D2E",
"#  c #3F1C31",
"$  c #3F2123",
"%  c #35212A",
"&  c #3D242D",
"*  c #372B2E",
"=  c #392A2D",
"-  c #362431",
";  c #3C2532",
":  c #332B36",
">  c #3D2933",
",  c #3F2639",
"<  c #3D2B3A",
"1  c #3C3032",
"2  c #451C1D",
"3  c #552406",
"4  c #4F2016",
"5  c #45241B",
"6  c #572D15",
"7  c #592A16",
"8  c #5C201F",
"9  c #682D0F",
"0  c #772D06",
"q  c #79250D",
"w  c #6C360A",
"e  c #602E15",
"r  c #7F2E1B",
"t  c #73301D",
"y  c #431F21",
"u  c #421C2E",
"i  c #411C33",
"p  c #442626",
"a  c #4C2C23",
"s  c #43242D",
"d  c #48222F",
"f  c #43292A",
"g  c #4C2B2A",
"h  c #542E26",
"j  c #5C242F",
"k  c #512E28",
"l  c #593424",
"z  c #53342C",
"x  c #5C352C",
"c  c #573A2C",
"v  c #412533",
"b  c #482733",
"n  c #442B35",
"m  c #4C2C35",
"M  c #452238",
"N  c #4C2238",
"B  c #452D3B",
"V  c #4B2E3B",
"C  c #592732",
"Z  c #512E34",
"A  c #512E3B",
"S  c #453335",
"D  c #4B3236",
"F  c #46333B",
"G  c #4B313C",
"H  c #48393C",
"J  c #523235",
"K  c #51323C",
"L  c #52393E",
"P  c #5C3A38",
"I  c #6E282A",
"U  c #722D29",
"Y  c #704322",
"T  c #784623",
"R  c #794925",
"E  c #75462A",
"W  c #7A4A2B",
"Q  c #6E4D34",
"!  c #774E30",
"~  c #7E573A",
"^  c #472F41",
"/  c #4C2D42",
"(  c #512E42",
")  c #443440",
"_  c #4D3241",
"`  c #4A3A42",
"'  c #523342",
"]  c #5A3046",
"[  c #966628",
"{  c #9D7128",
"}  c #9E6A31",
"|  c #9D7A36",
" . c #93743E",
".. c #A27228",
"X. c #BC7D2E",
"o. c #A47831",
"O. c #C6791D",
"+. c #CE7727",
"@. c #C37F2A",
"#. c #D16C3E",
"$. c #C87F3B",
"%. c #9E7740",
"&. c #BC7D45",
"*. c #C97E45",
"=. c #C9744B",
"-. c #DB7D4A",
";. c #D27563",
":. c #BD862A",
">. c #BB8333",
",. c #C68713",
"<. c #C48828",
"1. c #CC8B2D",
"2. c #C6833C",
"3. c #D08039",
"4. c #ECBD2F",
"5. c #F4BE37",
"6. c #F6C63E",
"7. c #FACA3D",
"8. c #BF8641",
"9. c #A78F6D",
"0. c #B48D62",
"q. c #B98E64",
"w. c #B18E6E",
"e. c #AB9065",
"r. c #B79065",
"t. c #C48041",
"y. c #C98345",
"u. c #C3814D",
"i. c #F8B54D",
"p. c #F6BF4B",
"a. c #FFBE4C",
"s. c #FFBF57",
"d. c #FFBB59",
"f. c #FFB668",
"g. c #F8C641",
"h. c #FEC456",
/* pixels */
", n d & - : < < B L b A N M F * S S ` # M ] ( i B F H S f p ",
"_ ^ g d B ) ) < $ d K v M / F H S H F ^ M @ u M ; n H H D f ",
"^ B m m K ' V ; m s O n B ) n G & # - < / V A m n < n S D d ",
"; , m V A A B v $ V ' ^ < O g 2 b / < F ` D J m > ; ; & s f ",
"- ; ; v u s ; & G ' B _ < O U U j A V ) F S D D n ^ ) ) K K ",
"` F G _ / K S S D V ` V D 4 q ;.I C _ F S S f O v B _ ) D m ",
"F F F V _ G n * > % V J x 9 -.=.r 8 P S 1 H V Z / / _ G V m ",
"S H ) / _ G H S F H G g e *.+.f.=.t h S H ` n ' ' V ) _ D F ",
"= n _ / ( V _ G F S D l w X.,.s.$.0 7 z D _ ^ ' ( ' ) F D D ",
"f B _ ( / / A V ` F g 6 8.1.6.5.O.*.3 5 B ` ( / ( ( G D D D ",
"g D _ ( _ _ _ D F S J W t.d.4.7.h.$.T c V ( / ( V V V S D D ",
"Z L _ ^ B ^ G G ) H 5 W y.d.6.6.i.2.R k ' / ( / V V V F D D ",
"m m B < - > n S F S z W &.@.h.p.<.t.Y k ' / ' m B D D V G K ",
"K V F B > f S F ` n a ! } >.:.<.>.[ ~ P B ^ G S S S F D V K ",
"K K F ) V m J K V J z Q  .| { ..o.%.Q g A V H D S F F V A A ",
"V V G ) K Z Z Z A V D c 9.e.q.q.0.w.z K V _ S S S D H G / A ",
"( V _ G G G G G V G A . p 2 u 2 2 p X K A G D D F D G G V V ",
"/ G V G D G D D G G / X # # i i i i + V / G G G D D H G G G ",
"G V G G D F G D G G _ X # # i i i i + ( / G B G D F F G G G ",
"G _ G G G G G F G G A X # # i i # i + V G G G G D F V D G _ ",
"G A ) V F D G F G _ A X i @ i # # i X ( G G V G G G D F V D ",
"G V G G G F G D G G / X @ @ # @ @ # X ' / G D G F D G F _ _ ",
"G G G G D G V G G G G X u @ # @ @ @ X V G G V G D G G G V B ",
"G V G G V G G D G G _ o @ @ @ @ @ @ X _ / / G G H G G n v & ",
"_ V V V D G G G G _ G G N V V ( v ; # n G _ V G V ' G D G K ",
"V D G _ ' G G G V G V _ B B M v v v v B _ _ V D B G _ G G G ",
"G G H V m n n B G G G ' V V n M ' _ _ _ G V v v v n G G G G ",
"L D V s & v n V G V V V _ ' V V F V V V H _ G V v v B G V V ",
"F D D G G D G G G n ; v V G G G v & v n n D _ G G n B _ G G ",
"B G G G G _ _ G G v s v V V V D V > v v & > V B _ ; n G ) V "
};
