/* XPM */
static char *exit[] = {
/* columns rows colors chars-per-pixel */
"49 32 7 1 ",
"  c #1C1117",
". c #35271F",
"X c #301D27",
"o c #422835",
"O c #664729",
"+ c #523A42",
"@ c None",
/* pixels */
"XXXXXXXXXXXXXXXXXXXXXXXXXXXXXXXXXXXXXXXXXXXXXXXX@",
"XXoXXXXXXXXXXoXXXXXXXXXXXXXXXoXXXXXXXXXXXXXoXoXX@",
"XXooXoXXoXooooXooXooXoXXoXooooXooXooXoXXoXoooooX@",
"XoooooooooooooXoooooooooooooooXoooooooooooooooXX@",
"XXoXoooooooooooooooXoooooooooooooooXooooooooooXX@",
"XXooooooooooooooooooooooooooooooooooooooooooooXX@",
"XXXooooooooooooooooooooooooooooooooooooooooooXXX@",
"XXooooooooooooooooooooooooooooooooooooooooooooXX@",
"XXXooooooooooooooooooooooooooooooooooooooooooXXX@",
"XXXooooooooooooooooooooooooooooooooooooooooooXXX@",
"XXooooooooooooooooooooooooooooooooooooooooooooXX@",
"XXXooooooooooooooooooooooooooooooooooooooooooXXX@",
"XXooXooooooooooooooooooooooooooooooooooooooXooXX@",
"XXooooooooooooooooooooooooooooooooooooooooooooXX@",
"XXXooooooooooooooooooooooooooooooooooooooooooXXX@",
"XXooooooooooooooooooooooooooooooooooooooooooooXX@",
"XXooooooooooooooooooooooooooooooooooooooooooooXX@",
"XXXXooooooooooooooooooooooooooooooooooooooooXXXX@",
"XooooooooooooooooooooooooooooooooooooooooooooooX@",
"XXooooooooooooooooooooooooooooooooooooooooooooXX@",
"XXooooooooooooooooooOXXXXXXOooooooooooooooooooXX@",
"XXooooooooooooooooXXO OOOOXOXXooooooooooooooooXX@",
"XXXooooooooooooooXX O      OX XooooooooooooooXXX@",
"XXooooooooooooooo X O OOOO OX  oooooooooooooooXX@",
"XXXoooooooooooooo   .      .X  ooooooooooooooXXX@",
"XXXoooooooooooooo   . .... .   ooooooooooooooXXX@",
"XXooooooooooooooo+  X      X  +oooooooooooooooXX@",
"XXXooooooooooooooo++X XXXX X++oooooooooooooooXXX@",
"XXooXooooooooooooooo++++++++oooooooooooooooXooXX@",
"XXooooooooooooooooooooooooooooooooooooooooooooXX@",
"XXXooooooooooooooooooooooooooooooooooooooooooXXX@",
"XXooooooooooooooooooooooooooooooooooooooooooooXX@"
};
