/* XPM */
static char *void[] = {
/* columns rows colors chars-per-pixel */
"50 50 173 2 ",
"   c #311B27",
".  c #321C28",
"X  c #331C28",
"o  c #331C29",
"O  c #341C29",
"+  c #341D29",
"@  c #341D2A",
"#  c #351D2A",
"$  c #351E2B",
"%  c #361E2B",
"&  c #371E2B",
"*  c #361F2B",
"=  c #361F2C",
"-  c #371F2C",
";  c #381F2C",
":  c #37202D",
">  c #38202D",
",  c #38212D",
"<  c #39212E",
"1  c #39222E",
"2  c #39222F",
"3  c #3B222E",
"4  c #3A222F",
"5  c #3B222F",
"6  c #3A232F",
"7  c #3C222F",
"8  c #3D232F",
"9  c #3E242F",
"0  c #3B2330",
"q  c #3D2331",
"w  c #3B2431",
"e  c #3B2531",
"r  c #3C2431",
"t  c #3D2431",
"y  c #3C2531",
"u  c #3F2530",
"i  c #3E2431",
"p  c #3F2431",
"a  c #3C2532",
"s  c #3D2532",
"d  c #3E2432",
"f  c #3F2432",
"g  c #3E2532",
"h  c #3F2532",
"j  c #3F2533",
"k  c #3C2632",
"l  c #3D2632",
"z  c #3D2633",
"x  c #3D2733",
"c  c #3F2632",
"v  c #3E2633",
"b  c #3F2633",
"n  c #3E2733",
"m  c #3F2733",
"M  c #3E2734",
"N  c #3F2734",
"B  c #3F2834",
"V  c #402531",
"C  c #402631",
"Z  c #402432",
"A  c #402532",
"S  c #402533",
"D  c #412533",
"F  c #402632",
"G  c #412632",
"H  c #412732",
"J  c #402633",
"K  c #412633",
"L  c #402733",
"P  c #412733",
"I  c #422633",
"U  c #422733",
"Y  c #412634",
"T  c #402734",
"R  c #412734",
"E  c #402735",
"W  c #412735",
"Q  c #422634",
"!  c #422734",
"~  c #432734",
"^  c #422735",
"/  c #432735",
"(  c #412833",
")  c #422833",
"_  c #402834",
"`  c #412834",
"'  c #402835",
"]  c #412835",
"[  c #412935",
"{  c #422834",
"}  c #432834",
"|  c #422934",
" . c #432934",
".. c #422835",
"X. c #432835",
"o. c #422935",
"O. c #432935",
"+. c #412836",
"@. c #412936",
"#. c #422836",
"$. c #432836",
"%. c #422936",
"&. c #432936",
"*. c #432937",
"=. c #422A36",
"-. c #432A36",
";. c #422A37",
":. c #432A37",
">. c #442935",
",. c #442A35",
"<. c #442836",
"1. c #442936",
"2. c #442937",
"3. c #442A36",
"4. c #452A36",
"5. c #442B36",
"6. c #452B36",
"7. c #442A37",
"8. c #452A37",
"9. c #442B37",
"0. c #452B37",
"q. c #462B37",
"w. c #452C37",
"e. c #462C37",
"r. c #442B38",
"t. c #452B38",
"y. c #462B38",
"u. c #452C38",
"i. c #452C39",
"p. c #462C38",
"a. c #472C38",
"s. c #462D38",
"d. c #472D38",
"f. c #462C39",
"g. c #462D39",
"h. c #472D39",
"j. c #462D3A",
"k. c #472D3A",
"l. c #472E3A",
"z. c #482D39",
"x. c #482E39",
"c. c #482F39",
"v. c #492F39",
"b. c #482D3A",
"n. c #482D3B",
"m. c #482E3A",
"M. c #492E3A",
"N. c #492F3A",
"B. c #482E3B",
"V. c #492F3B",
"C. c #482F3C",
"Z. c #492F3C",
"A. c #492F3D",
"S. c #4A303B",
"D. c #4B313B",
"F. c #49303D",
"G. c #4A303C",
"H. c #4A313C",
"J. c #4B313C",
"K. c #4A303D",
"L. c #4A313D",
"P. c #4B313D",
"I. c #4B313E",
"U. c #4B323E",
"Y. c #4C323C",
"T. c #4C323D",
"R. c #4C323E",
"E. c #4D333E",
"W. c #4C323F",
"Q. c #4D333F",
"!. c #4D3340",
"~. c #4E3440",
"^. c #4E3441",
/* pixels */
"> N s s s s s e e s N N = 0 Y s N s s s e s e B e = s s s s s s e s e s B > s ;.I s I Y ;.;.I I I ;.",
";.s # ; ; # #   o X > B s ;.> o = # # o o o o e s ;.;.# # # # :   o o # s s I ;.I I Y ;.Y ;.;.;.I >.",
"N Y s s > s > : : 0 N N 0 Y ;.p s 8 s : # > s N e p Y I s p 8 s = = > s ;.p s ;.;.I ;.;.I ) ;.I >.;.",
";.;.>.I s Y ;.Y s p p r.Y ;.;.;.s s ;.;.I s 0 I ;.;.;.;.Y I s ;.B N N p Y ;.;.I I ;.;.I ;.I I ;.Y Y ",
";.Y I ;.>.>.;.I ;.;.>.>.I ;.I ) >.;.;.;.s Y ;.>.;.;.I I ;.;.;.;.Y N ;.;.>.I ;.;.I ;.Y ;.>.Y Y ;.I ;.",
"Y ) ;.I ;.Y Y ;.>.>.I ~ Y I ;.;.Y Y Y Y ;.k.;.Y Y I ) ;.Y I ;.s ;.>.r.Y Y >.>.I Y >.>.;.;.;.I I I ;.",
"I ;.;.I ;.;.;.Y Y >.;.;.I ;.;.I I >.>.;.I Y ;.Y Y I I ;.I I >.;.;.Y ;.>.>.Y ;.I ;.;.I I I I >.;.I ;.",
";.) I ;.Y ;.Y ;.;.I I I ;.Y I ;.;.Y ;.>.Y ;.;.I ;.>.;.I ;.;.) >.;.Y Y ~ ;.>.Y ;.I ;.I ;.I ;.Y ;.;.;.",
";.;.I I ;.) Y Y ;.;.I ;.I Y ;.;.>.~ ;.>.;.;.;.>.;.~ Y ;.;.;.Y Y ;.;.~ I ;.>.I I ;.>.I I I ;.Y I I >.",
"I Y ;.;.;.Y ;.I ;.I ;.Y ;.Y Y I I Y ;.I Y Y Y >.Y I ;.>.I >.>.I I k.z.>.;.I ;.>.I ;.I ;.;.;.>.;.I ;.",
";.Y Y ;.I ;.Y I ;.I I ;.;.) I e.G.k.I ;.;.;.>.;.;.Y Y ;.r.A.A.z.>.z.S.e.>.;.Y I ;.I >.;.I ;.Y ;.;.I ",
";.Y I ;.;.Y >.;.I ;.) ;.I I ;.k.k.r.>.z.Q.z.>.;.I ;.>.>.r.z.Q.z.I ;.) I ) ;.;.;.;.I I ;.I I >.I I I ",
"~ >.I Y ;.) I ;.I ;.;.~ >.>.;.Y ;.;.>.z.Q.S.) >.e.x.S.x.;.;.I } e.z.z.e.k.Q.;.) ;.>.Y Y ;.>.I ;.I ;.",
"Y Y ) ;.>.;.;.) ~ I Y ;.k.Q.;.>.G.G.>.s >.;.) S.Y.S.} ) >.>.) I ;.z.Q.z.) >.>.k.>.;.I ;.I ;.;.Y ) ;.",
";.;.;.;.;.Y I I >.>.z.>.I ;.>.G.Q.k.I Y e.>.;.;.) ) V I x.Y.S.e.) ;.>.Y I s k.G.z.;.I ;.;.I ;.Y Y I ",
"Y >.I Y I I ;.;.I ;.z.G.) 8 I ;.9 I ;.z.S.S.>.I I e.z.Y.Y.Y.Y.z.e.z.k.z.S.S.I s Y Y I I ;.Y I ;.;.;.",
"Y >.Y ~ ;.Y >.;.;.>.s I >.S.z.S.z.x.e.z.T.T.S.} e.S.Y.S.S.S.} ) e.Q.S.S.Y.S.S.z.k.k.r.;.>.;.Y >.I ;.",
";.~ ;.Y Y ;.~ Y k.z.>.z.Q.S.Y.Y.Q.S.} I } S.T.S.T.T.Y.S.Y.T.S.S.Y.S.S.Y.S.Y.Y.S.I 9 I ;.Y I ;.Y ;.;.",
";.Y ;.;.;.Y ;.;.s p ;.S.x.z.Y.Y.S.Y.T.Y.S.S.T.S.Y.Y.Y.Y.S.S.S.Y.S.S.Y.Y.S.S.Y.z.r.>.>.>.>.;.;.Y I ;.",
";.Y Y ;.>.Y Y r.z.>.e.Q.z.} S.Q.S.Y.Y.Y.S.Y.S.T.Y.x.} e.v.S.Y.S.Y.S.Y.S.Y.Y.Q.>.>.>.>.;.;.I ;.Y ) I ",
">.;.Y I Y ;.Y Y ;.>.;.I >.z.S.Y.Y.Y.Y.S.T.Y.e.) V V V ) x.S.Y.Y.S.Y.S.Y.Q.G.z.;.k.k.Y z.A.r.Y ;.;.I ",
"I >.>.>.>.;.A.A.Y z.A.>.x.Q.Y.S.S.S.S.Y.Y.Y.x.) ) e.S.S.S.T.S.S.S.S.S.S.S.G.Q.G.~.G.k.z.k.Y I ;.I I ",
";.;.;.;.;.Y z.z.r.A.!.A.z.S.S.} V } S.Y.Y.T.Y.S.S.Y.Y.Y.Y.Y.Y.S.S.S.S.Y.S.S.k.r.k.;.s I ;.Y Y Y I ;.",
";.Y ~ Y Y Y I s I ;.k.r.x.Y.S.>.) e.Y.Y.S.S.Y.Y.S.Y.S.Y.S.S.Y.Y.S.Y.Y.S.S.Q.G.>.Y Y ;.Y Y r.;.Y I ;.",
"Y Y ;.;.;.>.;.;.I Y ;.;.>.Y.Y.Y.Y.Y.S.S.S.S.S.Y.Y.Y.Y.Y.S.Y.Y.S.Y.Y.S.S.Y.Y.!.z.>.;.;.>.Y ;.I I ;.I ",
";.>.I I I Y ;.I ;.;.>.Q.Q.Y.S.S.Y.Y.Y.S.Y.Y.Y.S.Y.S.S.S.Y.S.Y.Y.S.Y.Y.Y.S.S.z.;.>.Y ;.>.k.>.Y ;.I ;.",
";.I ;.I ;.>.z.>.;.;.I I >.Y.Y.Y.S.Y.Y.S.Y.Y.Y.Y.Y.Y.S.Y.Y.Y.S.S.S.Y.S.S.Q.G.G.;.Y ;.Y z.G.r.I ;.;.I ",
"Y ;.I I >.k.S.z.Y Y I ;.z.Y.Y.Y.S.Y.Y.S.Y.S.S.Y.Y.S.Y.T.Y.S.Y.S.S.S.Q.Y.S.S.G.k.r.Y ;.I s ;.I ;.;.I ",
"Y Y ;.Y ;.Y s ;.>.r.r.A.Q.Y.Y.S.Y.Y.S.Y.Y.S.S.S.S.S.S.Y.S.Y.Y.Y.Y.S.S.Y.Q.Q.!.A.G.Q.A.A.>.Y ;.Y ;.I ",
";.I ;.;.I I z.Q.A.>.A.G.Q.Y.S.Y.Y.S.S.Y.Y.S.Q.Y.S.Y.Y.Y.S.Y.S.Y.S.S.S.S.S.G.!.G.k.A.!.A.;.I ;.I ) ;.",
"I I ;.;.;.Y z.Q.;.s z.~.S.S.S.Y.Y.Y.Y.S.Y.S.Y.Y.Y.S.S.S.S.Y.Y.Y.Y.Q.S.S.z.Q.A.r.r.r.r.Y ;.;.Y I ;.I ",
";.;.Y Y Y ;.Y Y Y Y ;.k.S.S.Y.Y.S.S.Y.Y.Y.S.S.S.Y.Y.Y.Y.Y.Y.Y.S.S.Q.z.>.e.S.G.r.Y Y N Y >.I ;.;.;.I ",
";.;.;.I I I I I z.G.Y k.Q.G.Q.S.S.Y.Y.S.Y.S.S.S.v.) 9 ) e.Y.S.Y.Q.Y.S.x.S.Y.G.S.k.k.z.;.I I ;.;.I I ",
"I I ;.>.;.) I ;.k.k.;.A.A.G.Y.S.Y.S.S.S.Y.S.v.} 9 C ) e.S.Q.S.x.v.Y.S.Y.G.Y.S.B I ;.s I >.;.I I I ;.",
"I ;.Y ;.;.I ;.I s ;.;.I z.Q.Y.x.k.) e.S.S.Y.Q.S.} x.S.Y.Y.S.e.I ) x.S.Y.S.S.S.k.G.G.;.;.} ;.;.I ;.;.",
"Y I ;.I Y ;.I I r.G.Q.k.S.S.S.>.) >.S.S.e.e.S.S.Y.v.x.e.x.Q.G.S.,.,.S.S.S.S.c.G.G.S.;.Y Y I } ;.I I ",
">.Y ;.I ;.I ;.>.;.z.Q.S.z.Y.Y.S.S.Q.Q.k.V 9 x.Q.Q.x.) I I } z.Q.x.} z.Y.x.e.) ,.;.s Y ;.>.;.I Y ;.I ",
"Y ;.) ;.>.Y I ;.>.;.) ;.I ;.z.Q.k.) ) ) I ;.I ;.e.S.e.;.I ) >.Q.S.e.Y.z.;.>.k.c.>.I Y ) ;.I ;.I ;.>.",
";.;.I I >.Y >.>.I I e.z.x.;.I z.G.;.I I ) ;.;.I I I ) >.;.;.I s V k.Q.x.I >.G.>.;.;.;.I I ;.>.;.;.I ",
";.I ;.I ;.;.;.I ;.I I z.>.I ;.k.G.;.) I I >.Y Y I ;.;.) I ) I ;.) s s } ) ) I I I I I I ;.Y I ;.I I ",
"I ;.I ;.;.) ;.I ;.Y I I s ;.;.8 s I ;.;.I s I >.I ;.;.;.;.;.Y I I ;.I I ;.) I Y ) ;.;.;.I >.Y ;.I ;.",
"I ;.Y ;.Y I ;.I I ;.I ;.;.I >.I I ;.I ) >.Y ;.Y ;.I I ;.>.Y ;.;.;.;.I ;.I ;.;.I I ;.I ;.I >.I ;.;.;.",
";.;.I I I ;.Y ;.;.;.I I ;.Y ;.>.;.I Y I ;.Y >.;.I ;.} I ;.I Y >.) I >.;.I ;.;.I ;.;.I ;.;.I ;.I I ;.",
";.I ;.>.;.I I ;.I I ;.>.I ;.Y Y ;.Y ;.;.Y ;.;.I ;.I ;.Y I ;.Y I I ;.Y I ;.I I ;.I I >.Y I I ;.;.;.Y ",
") I Y ;.I I ;.>.) I ;.;.Y Y Y >.>.;.Y ;.I ;.>.I I I ;.I I ;.;.I Y ;.) Y ;.I I ;.Y I ;.>.I >.Y ;.Y ) ",
"I ;.>.Y ;.;.I ;.;.;.I I ;.>.;.;.I I >.>.I ;.Y I ;.;.Y ) ;.I I ;.;.I ;.;.;.>.;.I >.;.I ;.;.Y ) ;.;.I ",
"I ;.;.Y ;.Y I I Y ;.I I >.I Y Y ;.I ;.) ;.I ;.;.I ;.Y ;.;.I ;.Y I ;.Y ;.I Y ;.I Y ;.Y Y ;.;.;.I I ;.",
";.>.I ;.I ;.>.;.I ;.;.I ;.I ;.;.Y ;.I I ;.;.I I ;.I ;.>.I ;.>.I Y ;.I I ;.>.I ;.;.I >.;.I Y >.Y ;.Y ",
"Y ;.;.I ;.;.I I ) ;.I >.;.I ;.I I ;.;.Y >.;.I >.Y >.Y ;.I ;.Y ;.;.) ;.;.I Y ;.I >.;.I ;.;.I ;.I ;.>.",
"I I I ;.;.I ;.I I ;.;.Y ;.>.;.I I >.;.Y ;.I Y Y ;.;.Y ;.;.) I >.Y I >.;.I ;.;.I Y ;.I Y ;.I Y >.Y >."
};
