/* XPM */
static char *void[] = {
/* columns rows colors chars-per-pixel */
"63 59 5 1 ",
"  c #301D27",
". c #422835",
"X c #4A313C",
"o c #3B242F",
"O c white",
/* pixels */
" ..............  ..............  .............. .... ..........",
"..            ....            ....            .................",
"... .. .    ... ... .. .    ... ... .. .    ... ...............",
"..... ... .. ........ ... .. ........ ... .. ..................",
"...............................................................",
"...............................................................",
"...............................................................",
"...............................................................",
"...............................................................",
"...............................................................",
"...............................................................",
"..........................................XX...................",
"....................XX..............XXXX..XXX..................",
"...................XXX..XXXX........XXXX..ooo..................",
"...................ooo..XXXX....XXX.oXXo.XXX..XX...............",
"................XX..XXX.oXXo.XXXXXX..oo..XXXX.XX...............",
"................XX.XXXXo.oo..XXXooo.XXX..oXXX.oo.XXX...........",
"............XXXooo.XXXo..XXX.ooo...XXXXX..ooo...XXXo...........",
"............oXXXo..ooo..XXXXXo..XXXXXXXX.XXXXXXXooo............",
".............oooXXXXXXX.XXXXXoXXXXXXXXoo.XXXXXXXXX.XX..........",
"...........XX.XXXXXXXXX.ooXXXXXXXXXXXXXXXXXXXXXXXX.oo..........",
"...........oo.XXXXXXXXXXXXXXXXXXXXXXXXXXXXXXXXXXXX.............",
"..............XXoXXXXXXXXXXXXXXXXXXXXXXXXXXXXXXXXXX.XX.........",
"..........XX.XXXoXXXXXXXXXXXXXXXooo.XXXXXXXXXXXXXoo.oo.........",
"..........oo.oooXXXXXXXXXXXX.ooo...XXXXXXXXXXXXXX.XXX.XXX......",
".......XXX.XXX.XXXXXXXXXXXXXX...XXXXXXXXX.XXXXXXXXXXX.XXo......",
".......oXX.XXXXXXXXooo.XXXXXXXXXXXXXXXXXXXXXXXXX.XXXo.oo.......",
"........oo.oXXX.XXX...XXXXXXXXXXXXXXXXXXXXXXXXXXXooo...........",
"............ooo.XXXXXXXXXXXXXXXXXXXXXXXXXXXXXXXXXXX............",
".............XXXXXXXXXXXXXXXXXXXXXXXXXXXXXXXXXXXXXo............",
".............oXXXXXXXXXXXXXXXXXXXXXXXXXXXXXXXXXXX......XX......",
".......XX.....ooXXXXXXXXXXXXXXXXXXXXXXXXXXXXXXXXX.....XXX......",
".......XXX.....XXXXXXXXXXXXXXXXXXXXXXXXXXXXXXXXXXX....ooo......",
".......ooo....XXXXXXXXXXXXXXXXXXXXXXXXXXXXXXXXXXXXXXXXXX.......",
"........XXXXXXXXXXXXXXXXXXXXXXXXXXXXXXXXXXXXXXXXXXXoXXXX.......",
"........XXXooXXXXXXXXXXXXXXXXXXXXXXXXXXXXXXXXXXXXXX.XXXo.......",
"........XXo..XXXXXXXXXXXXXXXXXXXXXXXXXXXXXXXXXXXXo..ooo........",
"........oo....oXXXXXXXXXXXXXXXXXXXXXXXXXXXXXooXXXX.............",
"..........XX..XXXXXXXXXXXXXX.XXXooo.XXXXXXXXXXXXXXX.XX.........",
"..........XX.XXXXXXXXXXXXXXXX.oo...XXXXXXXXXXXXXXoo.oo.........",
"..........oo.ooXXXXXXXoXXXXXXX..XXXXXX.ooXXXXXXXX.XXX..........",
"...........XXX.XXXXooo.XXXXXXXXXXXXXXXXX.o.XXXXXXXXXX..........",
"...........XXXXXXXXXXXXXXoooXXXXo..oXXXXXXXXXXXX.XXXo..........",
"............XXX.XXXXXXXXX...XXXXX...ooXXXooXXX...ooo...........",
"............ooo.ooXXXoooo...ooXXX.....XXX.XXXo.XXXX............",
".............XXXX.oXXX........ooo.....ooo.XXX...XXo............",
".............oXXo..XXX....................ooo...oo.............",
"..............oo...ooo.........................................",
"...............................................................",
"...............................................................",
"...............................................................",
"...............................................................",
"...............................................................",
"...............................................................",
"...............................................................",
"...............................................................",
"...............................................................",
"...............................................................",
"..............................................................."
};
