/* XPM */
static char *Pasted_image_1[] = {
/* columns rows colors chars-per-pixel */
"93 87 12 1 ",
"  c #2E1820",
". c #46232A",
"X c #422832",
"o c #683E37",
"O c #1E4D41",
"+ c #8B5B4D",
"@ c #3B8360",
"# c #6AAE62",
"$ c #A69A3B",
"% c #808080",
"& c gray79",
"* c gray80",
/* pixels */
"*****%%%%%%%OOOOOOOO*%%%%%OOOOOO*****%%%%%%%%******OOOOOO%%%%********%%%%%%OOOOOOOO**%%%%%%%%",
"OOOOOOOOOOXXO#####OOXXXXXXO@@@OOXXXXXOOOOOOOXXXXXXXO@@@OOXXXXOOOOOOOOXXXXXXOO#####OXXOOOOOOOO",
"OOOOOOOOOOXXO#####OOXXXXXXO@@@OOXXXXXOOOOOOOXXXXXXXO@@@OOXXXXOOOOOOOOXXXXXXOO#####OXXOOOOOOOO",
"O#####@@@OOOO#####OOOOOOOOO@@@OOOOOOOO#####OOOOOOOOO@@@OOOOOOOO#####OOOOOOOOO#####OOOO@@@####",
"O#####@@@O@@@###@@@@@@@@@@O@@@@@@@@@@@#####O@@@@@@@O@@@@@@@@@@@#####O@@@@@@@@@####@@@O@@@####",
"O#####@@@O@@@###@@@@@@@@@@O@@@@@@@@@@@#####O@@@@@@@O@@@@@@@@@@@#####O@@@@@@@@@####@@@O@@@####",
"O@#####@@O@@@##@@@@@@@@@@@@@@@@@@@@@@@###@@@@@@@@@@@@@@@@@@@@@@###@@@@@@@@@@@@@@##@@@O@@####@",
"OOOO@@#@@@@@@@@@@@@@@@@@@@@@@@@@@@@@@@##@@@@@@@@@@@@@@@@@@@@@@@##@@@@@@@@@@@@@@@@@@@@@@@#@@OO",
"OOOO@@#@@@@@@@@@@@@@@@@@@@@@@@@@@@@@@@##@@@@@@@@@@@@@@@@@@@@@@@##@@@@@@@@@@@@@@@@@@@@@@@#@@OO",
" O@@@@@@@@@@@@@@@@@@@@@@@@@@@@@@@@@@@@@@@@@@@@@@@@@@@@@@@@@@@@@@@@@@@@@@@@@@@@@@@@@@@@@@@@@@O",
" O@@@@@@@@@@@@@@@@@@@@@@@@@@@@@@@@@@@@@@@@@@@@@@@@@@@@@@@@@@@@@@@@@@@@@@@@@@@@@@@@@@@@@@@@@@O",
" O@@@@@@@@@@@@@@@@@@@@@@@@@@@@@@@@@@@@@@@@@@@@@@@@@@@@@@@@@@@@@@@@@@@@@@@@@@@@@@@@@@@@@@@@@@O",
"+OOO@@@@@@@@@@@@@@@@@@@@@@@@@@@@@@@@@@@@@@@@@@@@@@@@@@@@@@@@@@@@@@@@@@@@@@@@@@@@@@@@@@@@@@@OO",
"+OOO@@@@@@@@@@@@@@@@@@@@@@@@@@@@@@@@@@@@@@@@@@@@@@@@@@@@@@@@@@@@@@@@@@@@@@@@@@@@@@@@@@@@@@@OO",
"+oOO@@@@@@@@@@@@@@@@@@@@@@@@@@@@@@@@@@@@@@@@@@@@@@@@@@@@@@@@@@@@@@@@@@@@@@@@@@@@@@@@@@@@@@@Oo",
"+oOO@@@@@@@@@@@@@@@@@@@@@@@@@@@@@@@@@@@@@@@@@@@@@@@@@@@@@@@@@@@@@@@@@@@@@@@@@@@@@@@@@@@@@@@Oo",
"+oOO@@@@@@@@@@@@@@@@@@@@@@@@@@@@@@@@@@@@@@@@@@@@@@@@@@@@@@@@@@@@@@@@@@@@@@@@@@@@@@@@@@@@@@@Oo",
"OOOOOO@@@@@@@@@@@@@@@@@@@@@@@@@@@@@@@@@@@@@@@@@@@@@@@@@@@@@@@@@@@@@@@@@@@@@@@@@@@@@@@@@@@OOOO",
"O@@@@@@@@@@@@@@@@@@@@@@@@@@@@@@@@@@@@@@@@@@@@@@@@@@@@@@@@@@@@@@@@@@@@@@@@@@@@@@@@@@@@@@@@@@@@",
"O@@@@@@@@@@@@@@@@@@@@@@@@@@@@@@@@@@@@@@@@@@@@@@@@@@@@@@@@@@@@@@@@@@@@@@@@@@@@@@@@@@@@@@@@@@@@",
"O@@@@@@@@@@@@@@@@@@@@@@@@@@@@@@@@@@@@@@@@@@@@@@@@@@@@@@@@@@@@@@@@@@@@@@@@@@@@@@@@@@@@@@@@@@@@",
"OO@@@@@@@@@@@@@@@@@@@@@@@@@@@@@@@@@@@@@@@@@@@@@@@@@@@@@@@@@@@@@@@@@@@@@@@@@@@@@@@@@@@@@@@@@@O",
"OO@@@@@@@@@@@@@@@@@@@@@@@@@@@@@@@@@@@@@@@@@@@@@@@@@@@@@@@@@@@@@@@@@@@@@@@@@@@@@@@@@@@@@@@@@@O",
".O@@@@@@@@@@@@@@@@@@@@@@@@@@@@@@@@@@@@@@@@@@@@@@@@@@@@@@@@@@@@@@@@@@@@@@@@@@@@@@@@@@@@@@@@@@O",
" O@@@@@@@@@@@@@@@@@@@@@@@@@@@@@@@@@@@@@@@@@@@@@@@@@@@@@@@@@@@@@@@@@@@@@@@@@@@@@@@@@@@@@@@@@@O",
" O@@@@@@@@@@@@@@@@@@@@@@@@@@@@@@@@@@@@@@@@@@@@@@@@@@@@@@@@@@@@@@@@@@@@@@@@@@@@@@@@@@@@@@@@@@O",
" O@@@@@@@@@@@@@@@@@@@@@@@@@@@@@@@@@@@@@@@@@@@@@@@@@@@@@@@@@@@@@@@@@@@@@@@@@@@@@@@@@@@@@@@@@@O",
" O@@@@@@@@@@@@@@@@@@@@@@@@@@@@@@@@@@@@@@@@@@@@@@@@@@@@@@@@@@@@@@@@@@@@@@@@@@@@@@@@@@@@@@@@@@O",
"OO#####@@@@@@@@@@@@@@@@@@@#@@@@@@@@&&&&&@@@@@@@@@@@@@@@@@@@@@@@@@@@@@@@@@@@@@@@@@@@@@@@@@@@@O",
"O#####@@@@@@@@@@@@@@@@@@OO###@@@@@&$$$$$&@@@@@@@@@@@@@@@@@@@@@@@@@@@@@@@@@@@@@@@@@@@@@@@@@@@@",
"O#####@@@@@@@@@@@@@@@@@@OO###@@@@@&$$$$$&@@@@@@@@@@@@@@@@@@@@@@@@@@@@@@@@@@@@@@@@@@@@@@@@@@@@",
"O#@@@@@@@@@@@@@@@@@@@@@@OO####@@@@&$$$$$&@@@@@@@@@@@@@@@@@@@@@@@@@@@@@@@@@@@@@@@@@@@@@@@#@@@@",
"OO@@@@@@@@@@@@@@@@@@@@@@OOO#####OOO&&&&&O@@@@@@@@@@@@@@##@@@@@@@@@@@@@@@@@@@@@@@@@@@@@@@###@O",
"OO@@@@@@@@@@@@@@@@@@@@@@OOO#####OOO&&&&&O@@@@@@@@@@@@@@##@@@@@@@@@@@@@@@@@@@@@@@@@@@@@@@###@O",
" O@@@@@@@@@@@@@@@@@@@@@@@@O###@@@@OOOOOO@@@@@@@@@@@@@@###@@@@@@@@@@@@@@@@@@@@@@@@@@@@@@@@###O",
" O@@@@@@@@@@@@@@@@@@@@@@@@@@@@@@@@@########@@@@@@@@@###@@@@@@@@@@@@@@@@@@@@@@@@@@@@@@@@@@###O",
" O@@@@@@@@@@@@@@@@@@@@@@@@@@@@@@@@@########@@@@@@@@@###@@@@@@@@@@@@@@@@@@@@@@@@@@@@@@@@@@###O",
"+OOOOOO@@@#####@@@@@@@@@@@@@@@@@@@#######OO@@@@@@@@@@@@@@@@@@@@@@@@@@@@@@@@@@@@@@@@@@@@@OOOOO",
"+o  OO@@@@@@####@@@@@@@@@@@@@@@@######OOOOO@@@@@@@@@@@@@@@@@@@@@@@@@@@@@@@@@@@@@@@@@@@@@@OO o",
"+o  OO@@@@@@####@@@@@@@@@@@@@@@@######OOOOO@@@@@@@@@@@@@@@@@@@@@@@@@@@@@@@@@@@@@@@@@@@@@@OO o",
"+o  OO@@@@@@@@@@@@@@@@@@@@@@@@@@@@@OOOOO@@@@@@@@@@@@@@@@@@@@@@@@@@@@@@@@@@@@@@@@@@@@@@@@@OO o",
"+o  OO@@@@@@@@@@@@@@@@@@@@@@@@@@@@@OOOOO@@@@@@@@@@@@@@@@@@@@@@@@@@@@@@@@@@@@@@@@@@@@@@@@@OO o",
"+o  OO@@@@@@@@@@@@@@@@@@@@@@@@@@@@@@@@@@@@@@@@@@@@@@@@@@@@@@@@@@@###@@@@@@@@@@@@@@@@@@@@@OO o",
"+OOOOO@@@@@@@@@@@@@@@@@@@@@@@@@@@@@@@@@@@@@@@@@@@@@@@@@@@@@@@@@@@###@@@@@@@@@@@@@@@@@@@@@OOOO",
"+OOOOO@@@@@@@@@@@@@@@@@@@@@@@@@@@@@@@@@@@@@@@@@@@@@@@@@@@@@@@@@@@###@@@@@@@@@@@@@@@@@@@@@OOOO",
" O@@@@@@@@@@@@@@@@@@@@@@@@@@@@@@@@@@@@@@@@@@@@@@@@@@@@@@@@@@@@@@@@###@@@@@@@@@@@@@@@@@@@@@@@O",
" O@@@@@@@@@@@@@@@@@@@@@@@@@@@@@@@@@@@@@@@@@@@@@@@@@@@@@@@@@@@@@@@@@@#@@@@@@@@@@@@@@@@@@@@@@@O",
" O@@@@@@@@@@@@@@@@@@@@@@@@@@@@@@@@@@@@@@@@@@@@@@@@@@@@@@@@@@@@@@@@@@#@@@@@@@@@@@@@@@@@@@@@@@O",
" O@@@@@@@@@@@@@@@@@@@@@@@@@@@@@@@@@@@@@@@@@@@@@@@@@@@@@@@@@@@@@@@@@@@@@@@@@@@@@@@@@@@@@@@@@@O",
" O@@@@@@@@@@@@@@@@@@@@@@@@@@@@@@@@@@@@@@@@@@@@@@@@@@@@@@@@@@@@@@@@@@@@@@@@@@@@@@@@@@@@@@@@@@O",
" O@@@@@@@@@@@@@@@@@@@@@@@@@@@@@@@@@@@@@@@@@@@@@@@@@@@@@@@@@@@@@@@@@@@@@@@@@@@@@@@@@@@@@@@@@@O",
" O@@@@@@@@@@@@@@@@@@@@@O###@@@@@@@@@@@@@@@@@@@@@@@@@@@@@@@@@@@@@@@@@@@@@@@@@@@@@@@@@@@@@@@@@O",
"OO#####@@@@@@@@@@@@@@@@O#####@@@@@@@@@@@@@@@@@@@@@@@@@@@@@@@@@@@@@@@@@@@@@@@@@@@@@@@@@@@@@@@O",
"OO#####@@@@@@@@@@@@@@@@O#####@@@@@@@@@@@@@@@@@@@@@@@@@@@@@@@@@@@@@@@@@@@@@@@@@@@@@@@@@@@@@@@O",
"O#####@@@@@@@@@@@@@@@@@OOO####@@@@@@@@@@@@@@@@@@@@@@@@@@@@@@@@@@@@@@@@@@@@@@@@@@@@@@@@@@@@@@@",
"O#@@@@@@@@@@@@@@@@@@@@@OOO######@@@@@@@@@@@@@@@@@@@@@@@@@@@@@@@@@@@@@@@@@@@@@@@@@@@@@@@@#@@@@",
"O#@@@@@@@@@@@@@@@@@@@@@OOO######@@@@@@@@@@@@@@@@@@@@@@@@@@@@@@@@@@@@@@@@@@@@@@@@@@@@@@@@#@@@@",
"OO@@@@@@@@@@@@@@@@@@@@@@OO######@@@@@@@@@@@@@@@@@@@####@@@@@@@@@@####@@@@@@@@@@@@@@@@@@@###@O",
"OO@@@@@@@@@@@@@@@@@@@@@@OO######@@@@@@@@@@@@@@@@@@@####@@@@@@@@@@####@@@@@@@@@@@@@@@@@@@###@O",
" O@@@@@@@@@@@@@@@@@@@@@@@@@@@@@@@@@@@@@@###@@@@@@OOO#####@@@@@@#####OOO@@@@@@@@@@@@@@@@@@###O",
" O@@@@@@@@@@@@@@@@@@@@@@@@@@@@@@@@@########@@@@@@OOO######@@@#####OOOOO@@@@@@@@@@@@@@@@@@###O",
" O@@@@@@@@@@@@@@@@@@@@@@@@@@@@@@@@@########@@@@@@OOO######@@@#####OOOOO@@@@@@@@@@@@@@@@@@###O",
"+OOOOOO@@@#####@@@@@@@@@@@@@@@@@@@######OOOO@@@@@@@OOO####@@@@@@@OOOO@@@@@@@@@@@@@@@@@@@OOOOO",
"+o  OO@@@@@@####@@@@@@@@@@@@@@@@@@@OOOOOOOOO@@@@@@@@@@@@@@@@###@@@@@@@@@@@@@@@@@@@@@@@@@@OO o",
"+o  OO@@@@@@####@@@@@@@@@@@@@@@@@@@OOOOOOOOO@@@@@@@@@@@@@@@@###@@@@@@@@@@@@@@@@@@@@@@@@@@OO o",
"+o  OO@@@@@@@@@@@@@@@@@@@@@@@@@@@@@@@@@@@OOO@@@@@@@@@@@@@@#######@@@@@@@@@@@@@@@@@@@@@@@@OO o",
"+o  OO@@@@@@@@@@@@@@@@@@@@@@@@@@@@@@@@@@@@@@@@@@@@@@@@@@@@#######@@@@@@@@@@@@@@@@@@@@@@@@OO o",
"+o  OO@@@@@@@@@@@@@@@@@@@@@@@@@@@@@@@@@@@@@@@@@@@@@@@@@@@@#######@@@@@@@@@@@@@@@@@@@@@@@@OO o",
"+OOOOO@@@@@@@@@@@@@@@@@@@@@@@@@@@@@@@@@@@@@@@@@@@@@@@@@@@@@@###@@@@@@@@@@@@@@@@@@@@@@@@@@OOOO",
" O@@@@@@@@@@@@@@@@@@@@@@@@@@@@@@@@@@@@@@@@@@@@@@@@@@@@@@@@@@@@@@@@@@@@@@@@@@@@@@@@@@@@@@@@@@O",
" O@@@@@@@@@@@@@@@@@@@@@@@@@@@@@@@@@@@@@@@@@@@@@@@@@@@@@@@@@@@@@@@@@@@@@@@@@@@@@@@@@@@@@@@@@@O",
" O@@@@@@@@@@@@@@@@@@@@@@@@@@@@@@@@@@@@@@@@@@@@@@@@@@@@@@@@@@@@@@@@@@@@@@@@@@@@@@@@@@@@@@@@@@O",
" O@@@@@@@@@@@@@@@@@@@@@@@@@@@@@@@@@@@@@@@@@@@@@@@@@@@@@@@@@@@@@@@@@@@@@@@@@@@@@@@@@@@@@@@@@@O",
" O@@@@@@@@@@@@@@@@@@@@@@@@@@@@@@@@@@@@@@@@@@@@@@@@@@@@@@@@@@@@@@@@@@@@@@@@@@@@@@@@@@@@@@@@@@O",
" O@@@@@@@@@@@@@@@@@@@@@@@@@@@@@@@@@@@@@@@@@@@@@@@OO#@@@@@@@@@@@@@@@@@@@@@@@@@@@@@@@@@@@@@@@@O",
" O@@@@@@@@@@@@@@@@@@@@@@@@@@@@@@@@@@@@@@@@@@@@@@@OO#@@@@@@@@@@@@@@@@@@@@@@@@@@@@@@@@@@@@@@@@O",
" O@@@@@@@@@@@@@@@@@@@@@@@@@@@@@@@@@@@@@@@@@@@@@@@OO###@@@@@@@@@@@@@@@@@@@@@@@@@@@@@@@@@@@@@@O",
" O@@##@@@@@@@@@@@@@@@@@@@@@@@@@@@@@@@@@@@@@@@@@@@@@O##@@@@@@@@@###@@@@@@@@@@@@@@@@@@@@##@@@@O",
" O@@##@@@@@@@@@@@@@@@@@@@@@@@@@@@@@@@@@@@@@@@@@@@@@O##@@@@@@@@@###@@@@@@@@@@@@@@@@@@@@##@@@@O",
" O@@#####@@@@##@@@@@@@@@@@@@@@@@@@@@@@@@@@@@@@@@@@@@@@@@@@@@@####@@@#@@@@@@@@@@@@@@@@@@@###@O",
"O#####@@@@@@@@@#@@@@@@@@@@@OOO@@@@O@@@@@@@@@@@O@@@@@OOO@@@OO#####@@@###O@@@@@@@@@@@@@@@@#####",
"O#####@@@@@@@@@#@@@@@@@@@@@OOO@@@@O@@@@@@@@@@@O@@@@@OOO@@@OO#####@@@###O@@@@@@@@@@@@@@@@#####",
"O#####O@@@OOOOO###OOOOOOOOOOO@@@OOO@@@@@@OO@@@OOOOOOOO@@@OOO###@@@OO###OOOOOO@@@OOOOO@@@O####",
"OO####OOOOOO OO###OO       OO@@@OOOOOOOOOOOOOOO     OO@@@OOOOOOOOOOOOOOO   OO@@@OO OOOOOO@@#O",
"OO####OOOOOO OO###OO       OO@@@OOOOOOOOOOOOOOO     OO@@@OOOOOOOOOOOOOOO   OO@@@OO OOOOOO@@#O",
"+ OOOOO     .OOOOOOO   ... OOOOOOO   ++++++    .... OOOOOO   +++++++       OOOOOOO.     OOOO ",
"+ OOOOO     .OOOOOOO   ... OOOOOOO   ++++++    .... OOOOOO   +++++++       OOOOOOO.     OOOO "
};
