/* XPM */
static char *char_jpg[] = {
/* columns rows colors chars-per-pixel */
"50 50 221 2 ",
"   c #1B0E1A",
".  c #140C1A",
"X  c #1F111C",
"o  c #24141D",
"O  c #28161F",
"+  c #0E0D21",
"@  c #190E24",
"#  c #141325",
"$  c #1D1324",
"%  c #16142A",
"&  c #1B162B",
"*  c #1C192C",
"=  c #181928",
"-  c #0F1732",
";  c #191C33",
":  c #111C37",
">  c #0E152E",
",  c #241523",
"<  c #2A1A26",
"1  c #221629",
"2  c #231B2C",
"3  c #2C1D2B",
"4  c #281727",
"5  c #331A26",
"6  c #341E2B",
"7  c #391E2B",
"8  c #211D33",
"9  c #2B1E33",
"0  c #311D31",
"q  c #1E233A",
"w  c #1E2037",
"e  c #2C202D",
"r  c #2F2225",
"t  c #33212C",
"y  c #3B232E",
"u  c #3B2A2B",
"i  c #242134",
"p  c #2C2233",
"a  c #24253C",
"s  c #2A273C",
"d  c #342333",
"f  c #3D2533",
"g  c #352935",
"h  c #3D2935",
"j  c #332539",
"k  c #3D2638",
"l  c #362A3B",
"z  c #3B2A3A",
"x  c #3B3038",
"c  c #43272E",
"v  c #43282E",
"b  c #422734",
"n  c #422835",
"m  c #4A2D36",
"M  c #412638",
"N  c #432B39",
"B  c #492D3A",
"V  c #5A2C35",
"C  c #43333D",
"Z  c #4B313C",
"A  c #4B3438",
"S  c #53343C",
"D  c #64333B",
"F  c #252A45",
"G  c #2D2E4C",
"H  c #272944",
"J  c #392E45",
"K  c #2D324B",
"L  c #32344C",
"P  c #3B3648",
"I  c #2F3552",
"U  c #273454",
"Y  c #323654",
"T  c #343856",
"R  c #353C5B",
"E  c #3A3E5D",
"W  c #3C3B54",
"Q  c #373D60",
"!  c #393E61",
"~  c #453443",
"^  c #4A3441",
"/  c #4C3B45",
"(  c #443948",
")  c #543D44",
"_  c #5B3E4A",
"`  c #583844",
"'  c #433D51",
"]  c #673D46",
"[  c #773F45",
"{  c #3C415E",
"}  c #36405D",
"|  c #3C4161",
" . c #325C74",
".. c #2D5B73",
"X. c #4E4049",
"o. c #544144",
"O. c #57454A",
"+. c #45445D",
"@. c #4A465C",
"#. c #474255",
"$. c #564A57",
"%. c #5F525B",
"&. c #67444D",
"*. c #79484D",
"=. c #684B56",
"-. c #764E55",
";. c #63535B",
":. c #645155",
">. c #75575A",
",. c #464761",
"<. c #524B60",
"1. c #595467",
"2. c #595F72",
"3. c #665664",
"4. c #675A67",
"5. c #765A62",
"6. c #645E71",
"7. c #486378",
"8. c #7E686B",
"9. c #7B6468",
"0. c #736573",
"q. c #7A6C74",
"w. c #736A78",
"e. c #83474D",
"r. c #844E53",
"t. c #885658",
"y. c #955959",
"u. c #96635F",
"i. c #865E63",
"p. c #876769",
"a. c #986866",
"s. c #9A756D",
"d. c #846C73",
"f. c #816C79",
"g. c #996871",
"h. c #877279",
"j. c #977A77",
"k. c #8C7067",
"l. c #A46C68",
"z. c #B46D68",
"x. c #BD736A",
"c. c #A97976",
"v. c #B47B75",
"b. c #A9756C",
"n. c #C57D73",
"m. c #9E837B",
"M. c #B88478",
"N. c #A78073",
"B. c #C58477",
"V. c #D28979",
"C. c #5E798D",
"Z. c #677384",
"A. c #7B7A89",
"S. c #8A7682",
"D. c #967581",
"F. c #AE7D82",
"G. c #548B9C",
"H. c #5493A3",
"J. c #77A5B1",
"K. c #9C8385",
"L. c #938895",
"P. c #A08482",
"I. c #AD8C83",
"U. c #A88A88",
"Y. c #AC908A",
"T. c #B2938C",
"R. c #B8958A",
"E. c #A89296",
"W. c #B79794",
"Q. c #B8A09F",
"!. c #9C98A8",
"~. c #A799A1",
"^. c #B7A3A7",
"/. c #BAADB4",
"(. c #94ADB8",
"). c #C69589",
"_. c #D69686",
"`. c #C29A97",
"'. c #CA978A",
"]. c #E39985",
"[. c #D8A38C",
"{. c #CCA494",
"}. c #C6A599",
"|. c #D8A795",
" X c #D5B09F",
".X c #E7A893",
"XX c #F2AC95",
"oX c #E7B29A",
"OX c #F4B49D",
"+X c #F7B999",
"@X c #E1A88E",
"#X c #CAAAA6",
"$X c #D2ADA7",
"%X c #D7B3A6",
"&X c #C5AEB8",
"*X c #D4B4B3",
"=X c #EEBFA8",
"-X c #E7B9A3",
";X c #F4BCA3",
":X c #F4BFA6",
">X c #E5BEB1",
",X c #EDC3AC",
"<X c #EBC5AC",
"1X c #FBCAAC",
"2X c #F7C6A8",
"3X c #FED2AC",
"4X c #EBC3B2",
"5X c #F4C9B4",
"6X c #FCD3B9",
"7X c #85BEC7",
"8X c #A8B2C1",
"9X c #CCBCCA",
"0X c #D6BCC8",
"qX c #BAD7E1",
"wX c #D9C6D0",
"eX c #EBCFCD",
"rX c #EDDFE7",
"tX c #D2E1EA",
"yX c #EDE4ED",
"uX c #EBF5FB",
"iX c #EFEBF2",
/* pixels */
"d n f f f f f y f y f h 7 f h f y c b m b b b b y 7 b b f f d b b b b b b 7 N b b y b b n b n n b n ",
"b f 6 6 6 6 6 5 7 6 y f f f y 6 6 6 7 5 5 5 5 y b b b 7 6 6 7 5 5 5 5 7 d y b b b b b m n n b n n n ",
"n h y f y f y t 6 t f y y b b u d f f 7 6 d d g f h M g g d d f 7 7 y b b b b b n b b b n b n b n n ",
"f b h b f h n n n f b N f b h n h h z k l k k k h l k l l g l h f b b b M M b b b b b b n n b b b b ",
"b b b n b b b b b n N N f b h h h 9 2 2 1 & 1 8 2 & 2 2 * 2 2 3 d h N b n n n b b n n n n n n n n b ",
"n b b n b b b n n b f b n b b h h p * ; * * % % & % & * = % = 3 j z h f N b n b n n n n b n n n n n ",
"b N N b b b n b n N n N b n f d i p a a a a H H a H H s a a a i i d h b v c b n n n b n n b n n h b ",
"b n b n b b N b n b b b M z g 2 * H Y T I I I I K Y L Y Y W Y H i 2 d g m b b n n n b n n n b n b b ",
"b n n b n n n n n n n n N z p 8 8 L E | Q | | | } } | ,.{ E E L i * p j c h n n n n n n n n n n b N ",
"n n b n b n n n n n n n d 3 9 s G T ! | | | | | { | | | | ,.| T L a s e y b n b b n b n b n n n n n ",
"n b n n n b b b n n n h d 2 i K W | ! Q | | ! | } E ! ! Q ! ! } E Y a * 3 f n n n b n b h b b b b b ",
"n n b n b n n b n n n f 3 & a Y | ! R Q Q | ,.E E | | ! Q E E } | T a & 3 l h b n n n b b b n n n b ",
"n b n b n b b b n b n h e ; a T | ! T Q Q Q ' ! E } E R E R R R R T H & 9 h b m n b b b n b n n b n ",
"n b b n h n b b N b h f 3 = ; K W ,.,.,.! Q ! ! { R E | | | ,.,.,.Y w * p z b N N N N b b M M n n n ",
"n b n b n b b b b b n n e = w K ,.w.S.0.,.Y Y T Y Y T U } 0.S.w.,.Y H * 8 j B B m b y M b k b b h N ",
"b M n n n h b m m c A Z p & ; I <.K.$XE.%.G T W Y E L G $.L.$XE.1.G F & 3 m N m b b b m b b h b M M ",
"b n n b v b y b n N f h 2 # - U <.T.=X-Xj.%.;.4.1.4.%.%.p.}.5X}.4.K : # e A B N b N N M b N b b M N ",
"n b n b b b b N N A n x p # > F <.T.2X2X|.R.T.T.T.T.T.W.}.<X3XW.;.K - + 9 N ^ N b b b m b M b b M b ",
"n n b b b u b k h f h z p 2 i F @.K.-X<X<X<X=X=X=X=X=X5X4X5X4XY.%.L w ; s z Z A N n b n b N N M b b ",
"n n b b b b b N B h u g C %.%.@.#.0.K.E.I.{.OX2X1X1X;X[.W.I.K.8.O.{ %.1.' z h h n n f b b N b M m N ",
"n N N b b b b b h d 4 0 >.W.W.0.' L #.X.o.p.).:X3X1X[.k.&./ ' ' X.4.Y.^.9.t 4 y C B n N B N b b b m ",
"b n m b N N B ^ b h , 3 d.%X*Xf.W P ( g 3 ` M.5X6X3XR.$.2 p ( L L 4.#X<Xm.g , j ~ N B B b m b b M b ",
"b b b b b b N B M b , 4 d.4X*Xq.( 4.d.:.p z K.6X6X3XW.X.2 $.S.6.{ 6. X2XN.g   d N h n b b b m b b b ",
"b b b b b b b b h d $ < 8.%X$X9.O.j.%XK.x h m.,X3X1XM.C e d.#XY.$.;.}.-Xs.p   k h b n b v b f n b f ",
"b b M M b b b N N d < t ;.m.U.i.t.W.3Xm.u 5 k.@X+XXXb.u r s.<X X9.5.D.P.>.j 3 h b b b b B c c N M b ",
"M b M b b N b b N y y h ~ ) :.r.s.%X1XY.x o *.n.V.B.t.r r m.,X-Xc.i.5._ C l z h h b m M B c m N b f ",
"h b b b N m B N N b h g e $ t -.v.@X2XM.o.v r.x.B.x.u.m m s..XXXB.i.B , 3 ~ ~ h h b m m m M f b b b ",
"f b b b m B N N b m N n p + X x -.v.[.B.l.l.v._.].].B.s.u.M._.B.t.B , . 4 Z ^ N N N N b b b b b b b ",
"n n n n b b k b n n A N e # .   y -.b._.].;X;X;XOX;X;XOX|.'.M.t.b $ + . 6 ^ C Z B B m B M b m b b m ",
"h n n n b b B B B B z z x C ( / / &.i.M..X+XOXXXXXXX;X;XoXB.a.*.X.P P P z l C B m N B ^ N b b b b b ",
"h b n n b b Z m h g r < O.s.W.^.E.h.-.r.x.n.n.n.n.V.V.B.v.y.*.p.E.^.E.K.:.e e h n n B N b b n n b b ",
"N b f h n f m m u e < e t.`.eXrXwXL._ D e.y.x.z.n.n.z.y.e.D ` S.wXyXeX%Xk.u o y h h h f h n n b n n ",
"N n h n b b c c 6 h A >.N.|.%X&X!.0.^ V [ y.z.`.`.`.F.a.[ V S 3.L./.%XoXM.t.o.u t x C f n N n n b n ",
"h f b h b b M d 2 N d.W.[.V.s.;.' z B V *.a.`.eXwXwX#XD.[ ] V ~ ~ &.a.B.[.{.j./ o r u h n n n n b n ",
"h v v v c M ~ 9 @ z I.2X;XV.y.y   < S ] [ g.0XrXiXyX0XF.e.] ` 9 $ 5 *.B.XX3XQ.X.X e n h b b b n n b ",
"N b v c c M J 9 $ N Y.1X1XoXN.A   7 &.r.e.g.&XrXuXyX0XF.e.r.[ k . h s.@X1X6X^.X.X < h h f b f b n n ",
"M b v v c M k 9 @ h N.,X6X5XR.o.X m *.r.-.g.&XtXuXyX9XD.r.y.r.^ & C I.4X6X5XT.X.  O y h n h n b n n ",
"M M c c m b ~ 0 3 b 9.R.{.}.m.C $ k _ &.-.h.(.qXtXqX8XA.6.] _ J * x d.W.#XW.d.Z < < b h n n n n n n ",
"M M B b b f h f d f A o.$.O.x s & 1 9 ~ 1.Z.J.7X7X7XJ.Z.1.~ 0 1 % i P $.%.$.C g y b b b b b b b b b ",
"M M M b b f b b b f 3 = = % = = % 1 9 J 1.C.G.H.H.H.C.C.2.' 9 1 & = # % $ X 3 t k n N h b n n n n n ",
"M b b b h h b c b f 9 1 & * % % 8 k ` =.q.Z.7. ... .7.Z.h.5.&.N 9 % % % , o 3 f f n b h b n b b b n ",
"b n b b M b b b b b h d y d 9 $ 9 ] a.c.c.a.X.w : q ( p.c.c.a.=.j % 8 j d y b f n n n n n b N b n b ",
"b N b b b b b b b b N N b b k 3 6 _ d.l.a.r.m $ + % h =.k.a.a.=.k 4 j z n n b b n n n b n n n b b n ",
"b b b b b m m b b b h b N m d 7 k ~ ^ o.` B b 6 3 0 t B ` ] S B f 7 k M h h b b n B n b n b n b n n ",
"b b b b n b b b N b b M b c b b k 0 1 , , , 6 h k M d < 4 4 , 6 f b c M h h N b n n b n n b n n n n ",
"b N b m b b N b b b b b b b b M M 6 1 1 , 4 d b b M g 4 & & $ < f M v b n M b b b b b n b n n n b n ",
"n b b b b N N b b b M b b h f b N b N z z l z M b M N k l J z n g c v c h b n b b b b n n b b b b n ",
"n b b b b b b n n n b M N N h b v b b h h h h M N M M b N h z g h c c b h n n b b n n b n n b b n n ",
"n b n n n n n b n N b b N N h b b c c b b b b b M M M M m b b h h b g b b m f b n n b n n n n n n n ",
"n n n n n n b b b n b M M M N b b c c b f N h N b b c c b b b f h n h b b m n b b n n n b n b b b n "
};
