/* XPM */
static char *conssomable_jpg[] = {
/* columns rows colors chars-per-pixel */
"50 50 194 2 ",
"   c #3C1A26",
".  c #39172A",
"X  c #371828",
"o  c #3D1B2C",
"O  c #3F1C30",
"+  c #35232E",
"@  c #3E232E",
"#  c #3C2C2C",
"$  c #3D302F",
"%  c #372430",
"&  c #3E2432",
"*  c #3D2B34",
"=  c #3E2C39",
"-  c #3F3236",
";  c #4A1F1A",
":  c #4F2512",
">  c #50281F",
",  c #5B2E1A",
"<  c #5A2715",
"1  c #682E0B",
"2  c #7D3D0D",
"3  c #67291C",
"4  c #732E17",
"5  c #623011",
"6  c #6C3312",
"7  c #693A1F",
"8  c #783F16",
"9  c #7C311D",
"0  c #411D2D",
"q  c #411C32",
"w  c #4E1E39",
"e  c #442625",
"r  c #4D2B26",
"t  c #43242C",
"y  c #49242B",
"u  c #43292D",
"i  c #4B2B2D",
"p  c #532E20",
"a  c #542429",
"s  c #512F2E",
"d  c #5B2A2C",
"f  c #5A2825",
"g  c #4D312E",
"h  c #5A3222",
"j  c #54322C",
"k  c #59332D",
"l  c #422533",
"z  c #482434",
"x  c #442A35",
"c  c #4B2D34",
"v  c #472238",
"b  c #4A243A",
"n  c #452D3A",
"m  c #4A2E3B",
"M  c #522D35",
"N  c #512E3C",
"B  c #542435",
"V  c #453236",
"C  c #4A3236",
"Z  c #46333C",
"A  c #4B323C",
"S  c #49393D",
"D  c #533235",
"F  c #5C3B32",
"G  c #51323B",
"H  c #5B3838",
"J  c #5B3335",
"K  c #6D2D2C",
"L  c #632828",
"P  c #732E27",
"I  c #683C25",
"U  c #673C2A",
"Y  c #683C28",
"T  c #673A24",
"R  c #7B3324",
"E  c #703D20",
"W  c #78431E",
"Q  c #5B4D3F",
"!  c #66412E",
"~  c #68412D",
"^  c #684737",
"/  c #694537",
"(  c #7C5735",
")  c #75543C",
"_  c #795639",
"`  c #7B4926",
"'  c #4D2E41",
"]  c #512E41",
"[  c #453540",
"{  c #4C3241",
"}  c #463942",
"|  c #513242",
" . c #5C324C",
".. c #70584A",
"X. c #7A5649",
"o. c #7F634B",
"O. c #8A4E1D",
"+. c #964C1E",
"@. c #9A591D",
"#. c #A1581C",
"$. c #844C28",
"%. c #93492B",
"&. c #84522B",
"*. c #855127",
"=. c #9D502C",
"-. c #974937",
";. c #8C5633",
":. c #AF5A31",
">. c #A15E31",
",. c #986732",
"<. c #946830",
"1. c #946A3B",
"2. c #AC742B",
"3. c #AE792A",
"4. c #A77326",
"5. c #BD7A2B",
"6. c #A06230",
"7. c #A36F37",
"8. c #A86F38",
"9. c #AB7A35",
"0. c #A87639",
"q. c #A97A3A",
"w. c #A67536",
"e. c #B37737",
"r. c #BC7636",
"t. c #B57A35",
"y. c #BA7B34",
"u. c #B2753E",
"i. c #B37838",
"p. c #BA6839",
"a. c #C87D2E",
"s. c #C8783F",
"d. c #C87936",
"f. c #A14F41",
"g. c #AA5942",
"h. c #83654F",
"j. c #8A634C",
"k. c #98704B",
"l. c #95734C",
"z. c #8A6550",
"x. c #9F7958",
"c. c #927C5C",
"v. c #A77F4B",
"b. c #B57740",
"n. c #B87141",
"m. c #C36B47",
"M. c #CC7540",
"N. c #C2704B",
"B. c #D97F48",
"V. c #B5802E",
"C. c #BE852C",
"Z. c #B2843A",
"A. c #C3842B",
"S. c #C28929",
"D. c #CB892B",
"F. c #DB9D2C",
"G. c #C7893D",
"H. c #D58C30",
"J. c #CF9332",
"K. c #D79938",
"L. c #DFA03E",
"P. c #E6AC3E",
"I. c #E1A635",
"U. c #EDB53C",
"Y. c #F1B93E",
"T. c #F1BF35",
"R. c #F5C23B",
"E. c #F5C838",
"W. c #A88042",
"Q. c #AA8248",
"!. c #AB8E57",
"~. c #B48B5B",
"^. c #B48C56",
"/. c #AA8F61",
"(. c #D18D44",
"). c #DA8440",
"_. c #D79749",
"`. c #DC9B4B",
"'. c #D59542",
"]. c #E28C4A",
"[. c #E99B5C",
"{. c #E9AB44",
"}. c #EEB046",
"|. c #F5BD42",
" X c #F1B14D",
".X c #F9BE4B",
"XX c #ECA651",
"oX c #F6B751",
"OX c #F9B655",
"+X c #FBBD56",
"@X c #F5A65A",
"#X c #FAC545",
"$X c #FAC249",
"%X c #FFC551",
/* pixels */
"l l x l t t @ + % = = = = n m { A x n n w w b m Z $ * V V V Z - & w w  . .] z t n n Z Z Z V - # e e ",
"n n c x y t @ % * = = = = * l m m x x x b w b [ Z - V V V V Z Z x v b ] ] b q t l n Z Z S S V $ e e ",
"{ ' ' m c y x x n Z [ [ = & t z c V x l v m m Z Z Z Z Z C Z Z C n b w l q 0 z v & x n n Z S C Z C i ",
"{ ' m m c c c A { [ Z V & l y t 0 t l x b m [ V - Z Z n n * * * n = n v v z l c = & * n C A A c i i ",
"b m n c c c c | | { [ x & l c y y 0 x n n n x * x i l & & & % * = Z Z A m m c n x = & x V V m c u i ",
"l l l c c c m m m m n x u e t i M N A n = = @ y i y t z n n = = Z Z [ Z D D D c x & & * & & t t t u ",
"o % & x c x c x x x x * @ u x M | | { Z = % X y f a B B b ' n = } S S A A D D c n n = = x * x c c i ",
"% % * & & l l l x l & @ @ x A { | ' { [ = @ 0 f K P K d B m n [ A S S V V C c x x n Z [ Z A Z A G D ",
"= = Z n n n c c b c x x x V Z A { { { A t e ; 3 R f.-.L B M M { Z Z Z V V $ t t & n n [ } A A A G G ",
"[ Z [ Z A A A N ] N m c V n Z x [ { { D i > < 4 %.N.g.P L L J G Z - - V V u t 0 & x n [ { A A A C A ",
"Z Z Z Z Z A { ' ' ' Z x # # * % = Z A D k , 6 =.m.M.:.9 3 f J G Z - V S V c c m ' ' ' n Z Z c c c c ",
"n Z Z Z Z A ' ' ' m Z V - u x * = Z C j h 7 %.p.B.].M.=.R 3 k G Z - Z S C V M ] ' ' ' Z Z Z Z A C A ",
"Z Z Z Z [ A { ] ' ' Z V - V C S Z S V r , $.p.s.).@X[.m.%.4 d g V } } S C x m | ' { ' { } A A D A A ",
"l * n A } { { ' ' ' { A S Z Z Z Z Z g p 5 O.r.A.H. XXXs.+.1 < p C C A { A m ] | ' ' ' { A A Z Z C A ",
"@ t x n { { { ' ' ] { { A Z [ Z V V j 7 8 @.5.D.F.}.P.a.#.W 1 : p C { { { { |  .] ] { { A A A V V C ",
"# x n Z { ' ' ' ' ' A A Z Z S Z V g > W 6.y.D.I.Y.R.I.A.a.6.6 : e C A { { | | ] ] | A A C V V C A A ",
"u x Z A { ' ' ] ] { { A C Z Z V V g h ` b.(.K.}.R.E.U.K.(.u.W , r C Z { { { ] ] ] m A A V V C C C A ",
"i c A { { ' ' ] | | | { A Z V V g g ~ &.b.`.oX|.R.E.#XOX`.i.*.T k c m { { m m ] m m m A A V V C C C ",
"s M G { { ' ' ' m A A A A S [ Z V r ~ ;.b.`.+X$XR.E.#XOX`.i.*.T j D { ' ' m ] ' m m m A A V V C D D ",
"C D A A { ' m n n n Z Z A } } [ i > ~ ;.b._. X$X#X#X|.{.'.i.*.T d G | { ] ] { ' m m m n Z A C D A | ",
"c c m A Z n x & l u V Z Z Z [ [ V j U &.u.G.J.}.%X#XP.J.G.u.&.I k G | ] G G G A n n m m Z C A A G N ",
"c c c V Z = & & @ @ x V Z Z - - V k U &.0.y.C.K.{.P.K.C.y.7.( ~ F D { m { G A A n n m A Z C A A N N ",
"C Z A A n = * & t u x V Z S C u i j ! &.,.9.V.C.C.S.A.5.2.<.( ^ H m Z A A A A C Z Z A Z Z m D G N N ",
"D G G } Z [ n n V c c V A S C Z c i ! ( 1.0.5.3.4.3.3.9.w.1._ ! D c m A A A C C Z x V Z Z Z A A N N ",
"G | { { [ [ A A C D D D D A Z D C g ! ) l.Q.Z.w.w.w.q.q.Q.l.X.k c c m m A Z S V V V V Z Z Z A m M N ",
"m m A ' ' [ [ A A D c M M D A A c g V Q c./.!.^.^.^.^.^.~.x.^ D D m A A Z Z C C C C S S A A A | N N ",
"m m m m ' { A A D A M C A D G m V i u V ..h.j.j.z.j.j.j.j.X.F i G ] m { C V V V V C A A A A A G m m ",
"N N m { { A m A A A C C V A A A V c e 0 t t 0 0 z y y y y 0   z m ' m A A C C V C C A A A A A A A n ",
"m m ' m m m A A A A C C C Z n A A c 0   0 . 0 . 0   0   0 . . 0 m m ' m A C C A S V A A A A A A A A ",
"m ' ' ' Z A A A A A C D C Z n A A m q . . 0 0 0 0 0 0 0 0 0 X 0 m ' ' A A C A A C A S C S A A A A A ",
"| | { A A { A A Z V A A C m m { A m & . q q q q 0 0 q q q O o q ' ' ' { G m A A A A A G A A A A A A ",
"G { { A A A A A C V A A C m m ' { m & . . q q q q q q q q O . l ' ] m { A m m } C A A A A A A A A { ",
"m m A A A A A A A A A Z Z A A ' { A & . O O q q q q q q q q . l ' ' m A A m m m Z A A V V A A A { } ",
"A A m m A A A A A A C A A A A A A Z & . 0 o o q q q O O q o . q n m m A A A A { Z A A C V A G A { { ",
"A m A A A A A A A Z Z C A A A A A m @   o 0 o q q O O O o o . & m A A A A A A A A A A Z C A A A { { ",
"A A A A A A A A A A C A A A A A Z m o . o o 0 o O q q O q o . o A A A A A A m m C D A Z A A A A { { ",
"A A A A A A A A A A A V A A A A A m o   o @ o o O O O O O o . & A A A A A A A A C C A A A A A A ' { ",
"A A A A { A A A A A A m m A A A A m & . o o O o o O O 0 o o o O { | G A m m m Z V V A A C A n n n n ",
"A A A A A A m G D A C A m A A { A m @ X o o o O O o o o o o X & ' { ' { A A A A A Z Z Z m m n l l x ",
"{ A A A A A m N A A A Z A m m { { A l o o l l q q l l o & o o O m ' { { | A m m A A Z A A n n x x l ",
"| | A m m m m m A A A m m Z A G { A m l b b x c b m n l & & O l x m { { A m Z m m A G A A m m m A G ",
"A G A m m A G A A A A A A m A { { A A m b m m m m m b l & & O l x Z { { { m m m m m G { A A A A G A ",
"n m m A A G G | ] m A A A m m A G A ' ' n n m n x z z x & & l l m A { { A n c c c Z A m A A A A { A ",
"n A A A A A c m m x m Z A A A D A { { { m m m n x l n m m n n n { { { m m n x x x v c m A A A A A m ",
"A A A A A c x x x x x x A A A A A { { { A m m m x x c { { m m ' { { { A m x x l & v v c A A A Z m m ",
"G | A A c x x l l l x n m A A m m n m A A A | m m m m A Z n n A { { { | G A n n & * v n Z { [ n n n ",
"A D A A c n n * x x c m Z A A n n x n m m A | A A A A m n x x n m { A G A A A n n x x n n [ Z m n n ",
"V V A A A A m n m A A A A A m n l l x x n m A A A A Z x l & & x x n n A A A { { A n n n n n [ m n n ",
"V C V A A A A A A | { S A A n x & & x x n n m Z A m c m l l l & & * x x n n ' n { n n x n Z A A m A ",
"C V V A G A A A | | | { A A x x & & & v n m n m Z c c m x l l l & & & & x n n n { ' x x c Z A A A A "
};
