/* XPM */
static char *exit[] = {
/* columns rows colors chars-per-pixel */
"50 50 54 1 ",
"  c #1D0D0F",
". c #1C0E13",
"X c #1E1013",
"o c #23130F",
"O c #2D150F",
"+ c #240F10",
"@ c #221215",
"# c #2B1613",
"$ c #2C1917",
"% c #241419",
"& c #29161D",
"* c #261A1B",
"= c #2B1A1D",
"- c #331D1C",
"; c #3A231C",
": c #2D1722",
"> c #2E1A24",
", c #311C26",
"< c #331E29",
"1 c #381F2C",
"2 c #2D2123",
"3 c #332425",
"4 c #3C2524",
"5 c #3D2A23",
"6 c #36212C",
"7 c #3A222E",
"8 c #3D2C2C",
"9 c #3D2532",
"0 c #3F2834",
"q c #432D25",
"w c #40262F",
"e c #422A2D",
"r c #47302B",
"t c #48352E",
"y c #412734",
"u c #422835",
"i c #482E35",
"p c #432738",
"a c #442A38",
"s c #482F3B",
"d c #453234",
"f c #493432",
"g c #4E3A33",
"h c #47303B",
"j c #4A323E",
"k c #4F3838",
"l c #543D36",
"z c #533D3B",
"x c #53413A",
"c c #5B443C",
"v c #4C3640",
"b c #4E3842",
"n c #503943",
"m c #554044",
/* pixels */
",6,,,,,1<<<>,1,>,<<,,,,<6,<6,,,,,,,,<,><<,,,,<<<:<",
",6,,,,,,,,,,<7,>,,<<,,,,,,><,,66,,<,6,,<,,,,<66<6<",
"<9161,>,,,<<<9<66><666<>>6:66667,6,>6<<<,><,<6969<",
"79966<,66<yyy91976776966<9>97700699196696,67699909",
"99p1096996aaay17099970969069070960y9979967099p0009",
"90a9v00097yyiu67p00900p00p90pvp71ya0099900pp0p0a96",
"<09y0apayyyyuywy00009000pp9p9v0090a9999y0v9900p09<",
",91000p0yyyayyuua009990aaap99p00u0a9979u0pppppa09<",
",y7pppyyyayayyiupy90yyy70yayauyapuawyyya0yyuaauy9<",
",79yyyyyaayyyyuuu00yyaayyyayyuyyyypyuuyayyuaayyy9,",
"<1y9ayyyipyyyyyyyuypyyayyyayyyyyyyyyuayayypyyy9y1,",
"<9yyyyyayyyiyyyyuppyyyuyayyyaaypyppyuuyuyayypyy09,",
",19yaypayyaayyyuuypuywyyuyyyaayyuyyyayyyyuyypya96,",
":,9papyyyyyyayuuyuuuuuyuuyyyyyyyuyyuyuyuyyypppa9,:",
":19099yyyy0yyyuuyyyyyuyuuuyyyyyyuyuuyypyuyyyu009<<",
"<9p099yyyyyyyyuyyyuuyuuuuuayyyyauuyuuyyuuuyuu0097<",
"<9apyuaauyuuuuuypyyyyuuuuuuuuuyyuyywyyuuuyyaau009,",
",<9yiiyyuyuuuuuyypyayuuwyuyyyuuuuuuuyyyuyyuuaa996,",
",119yyyyuuuyyyuuyyyuuuuyyuyuyyuuuyuuyyyyyy0ua7996<",
"19yy7yyyyuuuuuuyyyuyyuuuuuuuuuuyuuyy0yyyyyyuy79996",
"6999yyaauuyuuyuyyyyyyuuywuyuuuuyuyyyyyyyuuuuyy9996",
",990ypayyuwuuyyyyaayyuyyyuuuwuuyyuyuyyyyaaaupp9966",
",<90apyyyyuuuuyyyyayyuuuuuyuuyyyuyuuuuyyuuyuaay9<,",
",600yyyyyyyuuuuuyuyyyyuuuyyuuyyuuuyyuuayyywuauy96,",
"1900yyyyy00yyuuuyyyyyyyyuyyyyyyuyyyyuyiyyyyyyuyy9,",
"60yyyyapuyyyuyuuyiyypiyyyyayyauaayyyyuuuyyaayyyy99",
"<699ayyyyuyuuyuuywuppuuuy9aaaayyayyayuyuyyyyyay91<",
",<19aayyyyyuyuuyywupyyppywaaayyyyyyyuuuuu7yyya97<:",
"17yyyyyyyyyyuuyyyypapppywwuu7uuuyyyyuyuuuyauy99up1",
"7yayyyuyyyyyuyyyyypyyyiuwiyuwueuauyyuyuyuuauuu9ap9",
"7yayyyauy0yuyyyyiywywwqieiwuiiyyauyuuuuyuuyyuapy0<",
"<9yyiuyuyyyuuuyyyyeeikw---<<frwyuuyuuuyyuyywyap09<",
"<9yuuywyuyyyayuy0uw4fx445q8-lr4yyyyauyyyuyye0yy091",
"60uuyyyuuyyyyyy0ya4-qt=xcclezq-6wyyyuyyuuuay0y0u09",
",69ysuyyuuuyuuyya7,$5xo;;;4$lq#&7iyyuyyuwyuauu076,",
",<7uhayyuyuuuyyyp1:#;xo#OO-+gq#%6uyyuyuyyuyyaay76>",
",00ypyyyyuuuyuyu03&+;x*xzcz&gr&@,uyyyuyyyayyyuy09,",
",60aayyyuuyuuuy0u>@+=8@88e8#85&X,uyuyyyyyyyyuuu06,",
":,90ayyyyuuyuyy0u>XX*2XXo@@@>;XX>u0uuyyyyayp00u9>>",
">99000yy8uyyuuuu02@X**X22>3@==XX=a0yuyayyyy000uy6,",
">90yyyyyyuyuuuyy09>.%>X22,>+>%X*7yyyuyuyyyyyy9u07,",
",99uaauauuyuyuyy0h6X*>X.X:X.&*@6h80yyyyuyayaay0966",
",999uuyyuuyuuyyuusss8:%2>:>X&0dasaayayuuyyyuay096,",
",7999yyyuyyyuuuy90hks63096d66hbsyaayyyuyyyyau99966",
"19999yyauyyyuayy77uasjvvbvbjbiay9yyuyuuuuyuy099996",
"60998uypuyyyyayaaaa7ujjuvvhhieay9yyyuyyuuuuuu09996",
"<999uaauyuyuyyyuaaa70hy7aa9ay7wuaypyuuyyyyyapy9y76",
"><99uauuuuyyyyau9yay9s99apuauy77uayyuuuyyyyap999<,",
",100pyyyyayyyyyayyyyuuyyyyuu0yyyuayyyyayyyyayyyy6,",
"<6y09yyyyayyyyyiyyw7uyyaw9s99yaayayayyyyyayuyaua9,"
};
