/* XPM */
static char *wall[] = {
/* columns rows colors chars-per-pixel */
"50 50 88 1 ",
"  c #19110E",
". c #1D0F16",
"X c #1F0E19",
"o c #1D1116",
"O c #1E1319",
"+ c #230E19",
"@ c #290F1A",
"# c #201117",
"$ c #241B16",
"% c #24141C",
"& c #29151E",
"* c #25191E",
"= c #2A1B1D",
"- c #271720",
"; c #2A1720",
": c #261A20",
"> c #2C1B23",
", c #2F1E28",
"< c #311D26",
"1 c #321F29",
"2 c #391E2A",
"3 c #2F2226",
"4 c #332325",
"5 c #35222B",
"6 c #3A242D",
"7 c #37292F",
"8 c #3B2A2E",
"9 c #3E322E",
"0 c #3D2631",
"q c #362930",
"w c #3D2932",
"e c #3E3232",
"r c #3E3138",
"t c #40252E",
"y c #40362F",
"u c #412732",
"i c #422A35",
"p c #492C37",
"a c #452D38",
"s c #492E39",
"d c #423433",
"f c #493337",
"g c #453934",
"h c #483936",
"j c #46323A",
"k c #4B333D",
"l c #453838",
"z c #4C393A",
"x c #50363E",
"c c #513A3F",
"v c #4D3640",
"b c #4E3841",
"n c #513640",
"m c #513942",
"M c #574346",
"N c #584345",
"B c #574946",
"V c #5F4E47",
"C c #554348",
"Z c #5A454A",
"A c #5D4B4C",
"S c #5F4A50",
"D c #614C4E",
"F c #65544E",
"G c #634D51",
"H c #645254",
"J c #6A5653",
"K c #6A5A57",
"L c #675858",
"P c #6C5B5A",
"I c #715E5B",
"U c #6D6057",
"Y c #72645E",
"T c #74685F",
"R c #715F60",
"E c #756563",
"W c #786664",
"Q c #766962",
"! c #7A6B65",
"~ c #7D6B69",
"^ c #7C7067",
"/ c #7E716A",
"( c #806D6B",
") c #82726D",
"_ c #857670",
"` c #887772",
"' c #857873",
"] c #897973",
/* pixels */
"0iit6iuuwa0000u0tuutuiu6i60u0uuuwu6u0ui00pt0iiu6t6",
"svapskkkawvva0jkkku6pkkkkpqjksiikssk7uvssssuikkpff",
"GGkNGSAGC5HSS2CGAHf2cDGGDA<CGGrjGGDZ<fZGGGGauDGFDD",
"EEMLERPEB3ETR&LWYQf<DIWTYE;HWWel!EEH=cIEWIEhpIT!UT",
"EWFYWEE!B3^QE$L!T!h6KTT(QQ*L!~ee^TQK=AYQWW~g9QT!YQ",
"YQUYWQQ!B3TQY$LQTQfyTTTTTQ:LWQ9e^TQK=KQYYYQgy!TTYT",
"~(~~/~YYV3^^QOP/~^hd)(!TKQ=U//eg)^)P=T^~!UQgy(!(!/",
")])``_KKF3__/$Y'_)gg])_!VE$T']gg])_Y$/`))FYhg_)]')",
"~(~(((GDD4!WW*L!~Wdd(~(RNI=K!~dg~~~K$W~~~VJfj~~(~!",
"DGGDGJmDc<GDS%CHDG88GGGGcD&MDG88GGGZ$SDHGNZ88GGGDD",
"xxcxnmnna;mzv@vvxm54mxnmxc&kzx46bvvv&xxmmnn5,mnvxz",
"spfppppnt&kaa+0apk<2ssaspf@iaa<4saa0&ippssk1,jsasa",
"puiwauup2%aa0+0vui<<aa00ua+0uu;<v0w5+uawuua2>uaiaa",
"puiwuuua2;a06@0aia<;i02i0w+0iu;<aia0&0a0uui1>iiui0",
"a2wi62wi1;005-00wa2;005a0a%0w0>10www%002w001>uiqq5",
"5<50,,15>%51>X,,27;*1,>515%,11*;2111+11;5,1>&5512-",
"%*%%%%O-%O%%Oo%%%*#o%%o*%%O%%%oO:*%%O%%#%%*o.&*%-o",
"X--X-:-->:%O:***&%%&%X****=*o%:*;;%#*:.%&=:O**.;:*",
";qw-3w0waw7Oqr0iw55w5*wiwwjwO5rwii0>ww%6iidww5:rww",
"2kb>wbvvbbw%vmnnbwwbw>bvmmcb:wmzvna0zk&jbmmbbw>mbb",
"qsk>2vvvvvw;kfpxvuak7;kkkkkv>qkkfnswkj&akkkkf6;zvj",
"uaw-1i0iiaq;utupsiia2;wiwu0i>6w0upuuau%0wiwui2;uwi",
"uau;1waiua5&06uuiuii2&uiwuwu;20quuuuiu+5wiuuu4;w0i",
"0iu@2uaius5%05u0u6up<@iiiuiu&<00u0ttau+7iaiuu5;w1a",
"<25@;57565<.2>215<27;+560266#;12522155O,5q575>%5>6",
"%--#%;&$&@*.*#*&*%&**O*:O:*&##%%*;%%%&O*-%*:%OO-O-",
"-::;&*%o:&;*%*.******:** :*&**%O#-::&*:*:.O:**:-%o",
"0wqaiq3*wwwwwqX;6qwwwiq7Oqwwwww:#5qquqiqqO3wqqwwqo",
"vmvmmb73bbvbbv&5jjbmxmvj&jvmmnb5&ijvmkmvb;qbvvvbrO",
"skkvzk6>kkkkvk&5jjkvkxkj*akkkzk5;ajkvkkkv;6vnvsvrO",
"uuiaii,:wiauwi&5auiiiiiu*6wauii<<iiiiiaia;3issaj0X",
"uu0iwi>:iiuuwa;5iuw00i00&0wiuii<;iiuw0iwi;2iuuwa0.",
"uu2uiu<;aiwuuj%2uui66uu6%uawiua1;iiui2uuu;4iu0uuw.",
"50>252;&70275qO;2252<561+5q555q>#5655;552&>625655.",
"*-%%;*##&;:;*:oO&%&*%&*OX*;&:%:O.*;;;#*;&+%***%*-.",
"%**#%%***#O&OOO***%%%**%*%*.-%-O%%&*O%%*%*%%%%%**%",
"q0w*4qww85%0q7qq0q;;www8qw6#5w0w6806%6qq7wwq3&70ww",
"bnn>qvnnva;vvbnnnb55mnxmmkv;abvvvvna*kvbxvmm7<nkvv",
"nxk;qkkxki*kkkkkvv2<kkkxkkk&wvvvkkki%kkksvkz6<kkvv",
"sui*2iuai7#iipiiia>;aaiiiwu%qiiiiaaq#wiauiia;;iiia",
"uu0*1uuuu5%60iuuii>;iuuuq6w+1000wiu7+0wuuu0w<*0u0r",
"u06&1wwq56%75w00wi>>wi0u060-6000wu05&0www00u<&0600",
"665&>q5521*22757q5;;7656516%,,16655<*2507225>&562q",
";=;+*;>-*-.;&;;;;:%%;;>;;;;X--->;;;*+&>;;&&=*#&&;>",
"%%%+OO-XX%O-+%+%-%XO%%%#%%%.XX-X%%%OX%+%+++%#.#%-X",
";&**----%---%&&&---%-;;-;;*%----&;%*--;-*;;-;**;--",
">>>1>>>,>,,>>,>>,>>>>,1>>>;>,,,,>>>>,,1>>1,>,,>>>>",
",,,265,,,,6,,5,1,,,,115,1,,10,,,,,111561151,,,,,,,",
",,,0055,,101,1,,,,,155q,,,,505,,111110011q6,,,,,,,",
"1,50r615,5i1,5,,,,,55q0,1,,50q5,11112q02506,,5,,,,"
};
