/* XPM */
static char *spr_tree3[] = {
/* columns rows colors chars-per-pixel */
"48 80 9 1 ",
"  c #181425",
". c #0D3230",
"X c #3E2731",
"o c #593232",
"O c #743F38",
"+ c #1C5549",
"@ c #2F8055",
"# c #36A54C",
"$ c None",
/* pixels */
"$$$$$$$$$$$$$$$$$$$$$$$$$$$$$$$$$$$$$$$$$$$$$$$$",
"$$$$$$$$$$$$$$$$$$$$$$$$$$$$$$$$$$$$$$$$$$$$$$$$",
"$$$$$$$$$$$$$$$$$$$$$$$$$$$$$$$$$$$$$$$$$$$$$$$$",
"$$$$$$$$$$$$$$$$$$$$$$$$$$$$$$$$$$$$$$$$$$$$$$$$",
"$$$$$$$$$$$$$$$$$$$$$$$$$$$$$$$$$$$$$$$$$$$$$$$$",
"$$$$$$$$$$$$$$$$$$$$$$$$$$$$$$$$$$$$$$$$$$$$$$$$",
"$$$$$$$$$$$$$$$$$$$$$$$$$$$$$$$$$$$$$$$$$$$$$$$$",
"$$$$$$$$$$$$$$$$$$$$$$$$$$$$$$$$$$$$$$$$$$$$$$$$",
"$$$$$$$$$$$$$$$$$$$$$$$$$$$$$$$$$$$$$$$$$$$$$$$$",
"$$$$$$$$$$$$$$$$$$$$$$$$$$$$$$$$$$$$$$$$$$$$$$$$",
"$$$$$$$$$$$$$$$$$$$$$$$$$$$$$$$$$$$$$$$$$$$$$$$$",
"$$$$$$$$$$$$$$$$$$$$$$$$$$$$$$$$$$$$$$$$$$$$$$$$",
"$$$$$$$$$$$$$$$$$$$$$$$$$$$$$$$$$$$$$$$$$$$$$$$$",
"$$$$$$$$$$$$$$$$$$$$$$$$$$$$$$$$$$$$$$$$$$$$$$$$",
"$$$$$$$$$$$$$$$$$$$$$$$$$$@@$$$$$$$$$$$$$$$$$$$$",
"$$$$$$$$$$$$$$$$$$$$$$$$$@##@$$$$$$$$$$$$$$$$$$$",
"$$$$$$$$$$$$$$$$$$@@$@@@@@##@@$$$$$$$$$$$$$$$$$$",
"$$$$$$$$$$$$$$$$$@##@@@@@#@@@@@@@$$$$$$$$$$$$$$$",
"$$$$$$$$$$$$$$$@@@##@##@####@#@@##@$$$$$$$$$$$$$",
"$$$$$$$$$$$$$$@@##@##########@####@@@$$$$$$$$$$$",
"$$$$$$$$$$$$$@##################@@@@@@@@@$$$$$$$",
"$$$$$$$$$$$$@@#######################@@##@$$$$$$",
"$$$$$$$$$$$$@@@@#####################@@##@$$$$$$",
"$$$$$$$$$$$@@#######################@@@@@@$$$$$$",
"$$$$$$$$$$@@@#########################@##@@@$$$$",
"$$$$$$$$$+##@@########################@###@@$$$$",
"$$$$$$$$$+##@@#####################@##@###@@$$$$",
"$$$$$$$$$++@@@####################@####@@##@@$$$",
"$$$$$$$$+@@@@@@@###########################@@@$$",
"$$$$$$$++@@+@@@##########################@@@@@$$",
"$$$$$$.##+++@###########################@@.@@@$$",
"$$$$$$.##@@++########################@##@@.@@@$$",
"$$$$$$..+@@@@@@#######################@@@@...@$$",
"$$$$$$+.++@@##+###############@@########@@+.++$$",
"$$$$$++.++@@##+################@@@@##+##@@@@++$$",
"$$$$$+++.++@@@@########@#######@@##+++@@@@@@++.$",
"$$$$$+..@@+@@+@@+############@@@####+@@##++@@+.$",
"$$$$$++.@@+@@.##@####@##@##++##@#####@@##@+##+.$",
"$$$$$$++.++@@.##@###++@@@###+##@##@##@@###+##+.$",
"$$$$$$++++++..@@@@##++##@@##@##@##@@#######++..$",
"$$$$$..+++@@+@@+@@@@@+##@@@@@@@@@@@+#######++.$$",
"$$$$$...++##+###@##.@@@@@@@##@@@@@@+.@#####+..$$",
"$$$$$...++#########.@@@@@@@##@@..@@@##+###...$$$",
"$$$$$.++++++######...@######@@@.+++@##+##.##.$$$",
"$$$$$$++.++#######...@########@++++@@@+##.##.$$$",
"$$$$$$++.++#######@@@@@########@+@@.@@+++...$$$$",
"$$$$$$.......+###+++@##########@@@@@..+++..$$$$$",
"$$$$$$....++.##++@@++##@#####++@@@@@..@@...$$$$$",
"$$$$$$$...++.#@@+@@@+@@#######+@@@@@@+@@.++.$$$$",
"$$$$$$$$$$...+@@@@@@@++###+@##+..@@@@.++.++.$$$$",
"$$$$$$$$$$.++.++@@@@@++##+++++++..+@@+++...$$$$$",
"$$$$$$$$$$$++.++@@@+@@++++++@@++@@.++.++...$$$$$",
"$$$$$$$$$$$.....++++@@++++++@@.+@@+++.....$$$$$$",
"$$$$$$$$$$..++...@@++++.++..+++++++.......$$$$$$",
"$$$$$$$$$$..++..+@@+.++.++++.++.+++.++...$$$$$$$",
"$$$$$$$$$$......++...++...++.++.....++..$$$$$$$$",
"$$$$$$$$$$$..........++................$$$$$$$$$",
"$$$$$$$$$$$$$............++.........$$$$$$$$$$$$",
"$$$$$$$$$$$$$$$$$........++......$$$$$$$$$$$$$$$",
"$$$$$$$$$$$$$$$$$$XX...........XX$$$$$$$$$$$$$$$",
"$$$$$$$$$$$$$$$$$$$XXXXX...XXXXX$$$$$$$$$$$$$$$$",
"$$$$$$$$$$$$$$$$$$$$$XXXXXXooXX$$$$$$$$$$$$$$$$$",
"$$$$$$$$$$$$$$$$$$$$$$XXXoooXX$$$$$$$$$$$$$$$$$$",
"$$$$$$$$$$$$$$$$$$$$$$$XXooOX$$$$$$$$$$$$$$$$$$$",
"$$$$$$$$$$$$$$$$$$$$$$$XOOoO$$$$$$$$$$$$$$$$$$$$",
"$$$$$$$$$$$$$$$$$$$$$$XOOOoX$$$$$$$$$$$$$$$$$$$$",
"$$$$$$$$$$$$$$$$$$    XoOOOX $$$$$$$$$$$$$$$$$$$",
"$$$$$$$$$$$$$$$$     XOOOOO    $$$$$$$$$$$$$$$$$",
"$$$$$$$$$$$$$$$    XXoOOOOX     $$$$$$$$$$$$$$$$",
"$$$$$$$$$$$$$$$ XXXXoOOOOOXXXX  $$$$$$$$$$$$$$$$",
"$$$$$$$$$$$$$$$  XXooOOOOOoXX  $$$$$$$$$$$$$$$$$",
"$$$$$$$$$$$$$$$$  XoOOOOOOooX  $$$$$$$$$$$$$$$$$",
"$$$$$$$$$$$$$$$$   XOOOoOOooX   $$$$$$$$$$$$$$$$",
"$$$$$$$$$$$$$$$$   XOOOoOOOOoXX  $$$$$$$$$$$$$$$",
"$$$$$$$$$$$$$$$$  XOOooooOOOOoXX  $$$$$$$$$$$$$$",
"$$$$$$$$$$$$$$$   XooXXXXooOOX    $$$$$$$$$$$$$$",
"$$$$$$$$$$$$$$$  XXXX    XXoo   $$$$$$$$$$$$$$$$",
"$$$$$$$$$$$$$$$            XXX $$$$$$$$$$$$$$$$$",
"$$$$$$$$$$$$$$$$$     $$       $$$$$$$$$$$$$$$$$",
"$$$$$$$$$$$$$$$$$$$$$$$$$$   $$$$$$$$$$$$$$$$$$$"
};
